<svg xmlns="http://www.w3.org/2000/svg" xmlns:xlink="http://www.w3.org/1999/xlink" version="1.1" x="0px" y="0px" viewBox="0 0 500 625" style="enable-background:new 0 0 500 500;" xml:space="preserve"><path d="M480.6,214c-1.2-2.5-3.7-4-6.5-4h-66.1c-2,0-4,0.6-5.3,2.1c-1.4,1.5-2,3.4-1.9,5.4l0.8,9.5c-6.8,1.4-13.1,3.9-18.9,7.3  L368,215.1l6.3-11.2c0.2-0.3,0.3-0.7,0.5-1l17.9,0.6c4-0.4,8.2-9.9,7.8-13.9c-0.4-4-3.9-6.9-7.9-6.5l-45.3,4.4  c-4,0.4-6.9,3.9-6.5,7.9c0.4,3.7,3.5,6.5,7.2,6.5c0.2,0,0.5,0,0.7,0l10,0.4l-3.6,6.4l-84.3,7.4l16-44l0.1-0.1c0.8-2.4,3.5-7,5.8-7  h20.7c4,0,7.2-3.5,7.2-7.5s-3.2-7.5-7.2-7.5h-20.7c-10.9,0-17.3,10.6-19.4,17l-20.8,57H77.1c0,0-10.9,0.1-10.9,14.6  c0,14.5,10.9,13.5,10.9,13.5c0.6,0,1.1,0,1.7,0l-4.4,10.2c-3.4-0.8-7-1.3-10.7-1.3c-24.5,0-44.3,19.9-44.3,44.3s19.9,44.3,44.3,44.3  c24.5,0,44.3-19.9,44.3-44.3c0-15.7-8.2-29.4-20.4-37.3l5.7-13.3c25.4,9.3,24.9,40.2,24.9,40.2l46.8-0.1c0.4,0.1,0.8,0.2,1.2,0.2  h152.4c0,0,0,0,0,0c0,0,0,0,0,0h33.7c3.6,31,29.8,54.8,61.6,54.8c34.2,0,62-27.9,62-62.1c0-16.4-6.4-31.3-16.8-42.4l20.2-23.8  C481.3,219.4,481.7,216.5,480.6,214z M93.7,305.4c0,16.5-13.4,29.9-29.9,29.9c-16.5,0-29.9-13.4-29.9-29.9  c0-16.5,13.4-29.9,29.9-29.9c1.6,0,3.3,0.1,4.8,0.4l-11.5,26.7c-1.6,3.7,0.1,7.9,3.8,9.5c0.9,0.4,1.9,0.6,2.8,0.6  c2.8,0,5.5-1.6,6.6-4.4l11.5-26.7C89.1,287,93.7,295.7,93.7,305.4z M458.5,224l-10.1,12c-9.4-6.2-20.5-9.9-32.4-10.3l-0.2-1.7H458.5  z M399.6,280h-32.5c1.5-9,6.2-18.9,12.9-25.9L399.6,280z M419.8,269.8l-2.6-29.6c7.9,0.5,15.4,3,21.8,6.9L419.8,269.8z M402.8,241.5  l1.9,22l-13.3-17.5C395,243.9,398.8,242.4,402.8,241.5z M371.1,242.8c-10.1,9.7-16.9,23.2-18.6,37.2h-21.4l29.2-51.6L371.1,242.8z   M346.5,223.6L314.6,280h-67.3l18-49.4L346.5,223.6z M461.7,287.7c0,26.2-21.4,47.6-47.6,47.6c-23.8,0-43.6-17.3-47.1-40.3h47.1  c0,0,0,0,0,0c0,0,0,0,0,0c0,0,0,0,0,0c0.3,0,0.5-0.1,0.8-0.1c0,0,0.1,0,0.1,0c0,0,0.1,0,0.1,0c0.1,0,0.1,0,0.2,0  c0.1,0,0.2,0,0.3-0.1c0,0,0.1,0,0.1,0c0.2,0,0.4-0.1,0.6-0.2c0,0,0,0,0.1,0c0,0,0.1,0,0.1-0.1c0.2-0.1,0.4-0.1,0.5-0.2  c0.1,0,0.1-0.1,0.2-0.1c0,0,0.1,0,0.1-0.1c0,0,0.1,0,0.1,0c0.1,0,0.2-0.1,0.2-0.1c0.1,0,0.2-0.1,0.2-0.1c0.1-0.1,0.3-0.2,0.4-0.3  c0,0,0.1-0.1,0.1-0.1c0,0,0,0,0,0c0,0,0.1-0.1,0.1-0.1c0.1-0.1,0.2-0.2,0.3-0.3c0.1-0.1,0.1-0.1,0.2-0.2c0,0,0,0,0.1-0.1  c0.1-0.1,0.2-0.2,0.2-0.2c0.1-0.1,0.2-0.2,0.2-0.3c0,0,0,0,0,0l30.3-35.9C457.3,264.8,461.7,275.7,461.7,287.7z"/><text x="0" y="515" fill="#000000" font-size="5px" font-weight="bold" font-family="'Helvetica Neue', Helvetica, Arial-Unicode, Arial, Sans-serif">Created by Martin LEBRETON</text><text x="0" y="520" fill="#000000" font-size="5px" font-weight="bold" font-family="'Helvetica Neue', Helvetica, Arial-Unicode, Arial, Sans-serif">from the Noun Project</text></svg>