<svg width="60" height="24" viewBox="0 0 60 24" fill="none" xmlns="http://www.w3.org/2000/svg">
<path d="M0.0779762 7.68769C0.233891 7.38739 0.558704 7.20721 0.922501 7.20721H9.51063C9.77048 7.20721 10.0303 7.27928 10.1992 7.45946C10.3811 7.63964 10.4591 7.86787 10.4461 8.10811L10.3422 9.24925C11.2257 9.41742 12.0442 9.71772 12.7978 10.1261L14.7077 7.81982L13.8891 6.47447C13.8632 6.43844 13.8502 6.39039 13.8242 6.35435L11.4985 6.42643C10.9788 6.37838 10.4331 5.23724 10.4851 4.75676C10.537 4.27628 10.9918 3.92793 11.5115 3.97598L17.3972 4.5045C17.9169 4.55255 18.2937 4.97297 18.2417 5.45345C18.1897 5.8979 17.7869 6.23423 17.3062 6.23423C17.2802 6.23423 17.2412 6.23423 17.2153 6.23423L15.916 6.28228L16.3837 7.05105L27.3365 7.93994L25.2577 2.65466L25.2447 2.64264C25.1408 2.35435 24.79 1.8018 24.4911 1.8018H21.8017C21.282 1.8018 20.8662 1.38138 20.8662 0.900901C20.8662 0.42042 21.282 0 21.8017 0H24.4911C25.9073 0 26.7389 1.27327 27.0117 2.04204L29.7142 8.88889H52.5033C52.5033 8.88889 53.9194 8.9009 53.9194 10.6426C53.9194 12.3844 52.5033 12.2643 52.5033 12.2643C52.4253 12.2643 52.3603 12.2643 52.2824 12.2643L52.8541 13.4895C53.2958 13.3934 53.7635 13.3333 54.2443 13.3333C57.4275 13.3333 60 15.7237 60 18.6547C60 21.5856 57.4145 23.976 54.2443 23.976C51.0611 23.976 48.4885 21.5856 48.4885 18.6547C48.4885 16.7688 49.5539 15.1231 51.139 14.1742L50.3984 12.5766C47.0983 13.6937 47.1633 17.4054 47.1633 17.4054L41.0827 17.3934C41.0308 17.4054 40.9788 17.4174 40.9268 17.4174H21.126H16.7475C16.2798 21.1411 12.8757 24 8.74406 24C4.30059 24 0.688633 20.6487 0.688633 16.5405C0.688633 14.5706 1.52016 12.7808 2.8714 11.4474L0.246883 8.58859C-0.01297 8.33634 -0.0649414 7.98799 0.0779762 7.68769ZM50.3465 18.6667C50.3465 20.6486 52.0875 22.2583 54.2313 22.2583C56.3751 22.2583 58.1161 20.6486 58.1161 18.6667C58.1161 16.6847 56.3751 15.0751 54.2313 15.0751C54.0234 15.0751 53.8025 15.0871 53.6076 15.1231L55.1018 18.3303C55.3097 18.7748 55.0888 19.2793 54.6081 19.4715C54.4911 19.5195 54.3612 19.5435 54.2443 19.5435C53.8805 19.5435 53.5297 19.3514 53.3867 19.015L51.8926 15.8078C50.9441 16.4565 50.3465 17.5015 50.3465 18.6667ZM2.94935 8.88889L4.26161 10.3303C5.48291 9.58559 6.92509 9.14114 8.47122 9.09309L8.49721 8.88889H2.94935ZM10.602 15.6156H14.8246C14.6297 14.5345 14.0191 13.3453 13.1486 12.5045L10.602 15.6156ZM7.9775 14.3904L8.31531 10.8348C7.28889 10.8949 6.31444 11.1952 5.48291 11.6637L7.9775 14.3904ZM10.1862 10.991L9.93938 13.6336L11.6674 11.5315C11.1997 11.2793 10.706 11.0991 10.1862 10.991ZM14.3049 11.1471C15.6172 12.3123 16.5007 13.9339 16.7215 15.6156H19.502L15.7081 9.41742L14.3049 11.1471ZM17.5011 8.84084L21.6457 15.6156H30.3898L28.0511 9.68168L17.5011 8.84084ZM2.53358 16.5405C2.53358 19.6877 5.31401 22.2583 8.71808 22.2583C11.8103 22.2583 14.3829 20.1802 14.8376 17.4174H8.71808C8.6791 17.4174 8.65312 17.4054 8.61414 17.4054H8.60115H8.58815C8.57516 17.4054 8.57516 17.4054 8.56217 17.4054C8.54918 17.4054 8.53618 17.4054 8.52319 17.3934H8.5102C8.48421 17.3934 8.45823 17.3814 8.43224 17.3694C8.43224 17.3694 8.43224 17.3694 8.41925 17.3694C8.41925 17.3694 8.40626 17.3694 8.40626 17.3574C8.38027 17.3453 8.35429 17.3453 8.34129 17.3333C8.3283 17.3333 8.3283 17.3213 8.31531 17.3213C8.31531 17.3213 8.30231 17.3213 8.30231 17.3093H8.28932C8.27633 17.3093 8.26334 17.2973 8.26334 17.2973C8.25034 17.2973 8.23735 17.2853 8.23735 17.2853C8.22436 17.2733 8.19837 17.2613 8.18538 17.2493L8.17239 17.2372L8.1594 17.2252C8.1464 17.2132 8.13341 17.2012 8.12041 17.1892C8.10743 17.1772 8.10743 17.1772 8.09443 17.1652C8.09443 17.1652 8.09443 17.1652 8.08144 17.1532C8.06845 17.1411 8.05545 17.1291 8.05545 17.1291C8.04246 17.1171 8.02947 17.1051 8.02947 17.0931L4.0927 12.7808C3.10526 13.7898 2.53358 15.0991 2.53358 16.5405Z" fill="white"/>
</svg>
