<svg width="54" height="90" viewBox="0 0 54 90" fill="none" xmlns="http://www.w3.org/2000/svg">
<path d="M54 0H0V90H54V0Z" fill="#00588E"/>
<path d="M27.4192 39.2959H26.5147V36.4352H27.4192V39.2959ZM31.4938 26.6867H30.5893V23.826H31.4938V26.6867ZM14.7565 21.7553C14.6888 21.7553 14.2203 21.7586 14.2203 21.8662L14.7565 21.9839C15.4813 22.1251 15.7641 22.5419 16.2709 22.5419C16.7305 22.5419 17.2048 22.1856 17.0192 21.4258L16.9072 21.4124C16.8365 21.7519 16.4741 21.9469 16.0852 21.9469C15.608 21.9435 15.5078 21.7553 14.7565 21.7553ZM9.77452 24.6126C9.85407 24.7404 10.7055 26.0009 9.39741 26.485L9.40919 26.6127C10.3755 27.0733 10.844 26.2262 10.844 26.2262C11.333 27.4968 10.5818 28.1994 10.5818 28.1994C10.6878 28.428 11.1504 28.8112 11.8516 28.9894C12.1197 28.828 12.4938 28.5154 12.647 28.0381C12.647 28.0381 12.8356 28.5927 12.6618 29.1238C14.6387 29.3289 15.3369 27.5271 16.8571 27.8532L16.922 27.7758C16.922 26.6665 16.3239 24.6328 14.4413 24.2227C12.5616 23.8092 13.0684 22.9285 13.0684 22.9285C13.8638 22.8848 14.3205 23.2781 14.3205 23.2781C14.4648 23.0091 14.2586 22.7133 14.2586 22.7133C14.3382 22.6091 14.3765 22.2427 14.3765 22.2427C13.4838 22.2393 13.251 22.0242 13.251 22.0242C13.1155 21.4259 13.4808 20.5754 14.8066 21.4864C15.1395 21.1536 15.113 20.6392 15.113 20.6392C15.2132 20.5855 15.275 20.4073 15.275 20.33C15.275 20.0779 14.2174 19.4055 13.9434 19.3215C13.8786 18.9551 13.4661 18.4273 12.2199 18.6189C11.6306 18.6996 11.2064 18.5248 11.4038 18.1349L11.28 18.1147C11.1445 18.2693 10.9559 18.7063 11.4715 19.0055C12.046 19.335 12.0784 19.9905 12.0814 20.0846C12.0902 20.2224 11.9459 20.2359 11.9134 20.098C11.6512 18.9954 10.3313 18.7534 9.54766 19.3417C9.59186 19.9333 10.1516 20.3233 10.4551 20.3233C10.6289 20.3233 10.8734 20.1216 10.8734 19.8459L10.9677 19.8325C11.0974 20.2291 10.5906 21.0359 9.83344 20.5418C9.06449 21.4191 9.37089 22.5049 9.44749 22.9049C9.58596 23.6243 9.27661 24.3168 8.71095 23.9941L8.65497 24.0411C8.65202 24.4916 9.1676 25.0026 9.77452 24.6126ZM14.017 20.1821C13.6576 20.6426 13.0713 20.535 12.9328 19.782C13.6694 19.7383 13.9876 19.8224 14.017 20.1821ZM36.9413 21.9435C36.5553 21.9435 36.19 21.7452 36.1222 21.409L36.0103 21.4191C35.8306 22.1788 36.299 22.5385 36.7586 22.5385C37.2654 22.5385 37.5511 22.1217 38.2729 21.9805C38.5941 21.92 38.8092 21.9771 38.8092 21.8662L38.2729 21.7553C37.5187 21.7553 37.4186 21.9435 36.9413 21.9435ZM44.3745 24.0411L44.3185 23.9941C43.7528 24.3168 43.4435 23.6209 43.5849 22.9083C43.6615 22.5083 43.965 21.4258 43.199 20.5451C42.4418 21.0359 41.9321 20.2291 42.0647 19.8358L42.159 19.8493C42.159 20.1249 42.4035 20.3233 42.5773 20.3233C42.8837 20.3233 43.4406 19.93 43.4847 19.3417C42.7011 18.7534 41.3812 18.9921 41.116 20.0947C41.0807 20.2325 40.9363 20.2224 40.9451 20.0812C40.951 19.9871 40.9834 19.335 41.555 19.0022C42.0706 18.703 41.882 18.2693 41.7465 18.1113L41.6198 18.1248C41.8172 18.5181 41.393 18.6963 40.8037 18.6055C39.5575 18.4139 39.1509 18.945 39.0802 19.3081C38.8062 19.3887 37.7485 20.0644 37.7485 20.3165C37.7485 20.3938 37.8104 20.572 37.9106 20.6224C37.9106 20.6224 37.8841 21.1368 38.217 21.4729C39.5428 20.5586 39.9081 21.4158 39.7726 22.0208C39.7726 22.0208 39.5398 22.2393 38.6442 22.2393C38.6442 22.2393 38.6854 22.6058 38.7591 22.7133C38.7591 22.7133 38.5558 23.0058 38.7031 23.2781C38.7031 23.2781 39.1598 22.8814 39.9523 22.9285C39.9523 22.9285 40.4561 23.8092 38.5764 24.2193C36.6938 24.6328 36.0987 26.6632 36.0987 27.7725L36.1605 27.8498C37.6837 27.5271 38.382 29.3289 40.3559 29.1205C40.185 28.5894 40.3736 28.0347 40.3736 28.0347C40.5297 28.5154 40.9039 28.8247 41.169 28.986C41.8702 28.8078 42.3328 28.4246 42.4359 28.196C42.4359 28.196 41.6905 27.4901 42.1766 26.2228C42.1766 26.2228 42.6451 27.0699 43.6114 26.6127L43.6203 26.4816C42.3092 26.0009 43.1636 24.737 43.2432 24.6093C43.8589 25.0026 44.3745 24.4916 44.3745 24.0411ZM40.0966 19.782C39.9552 20.535 39.3689 20.6426 39.0124 20.1821C39.039 19.8224 39.3601 19.7383 40.0966 19.782ZM26.1671 7.11902C26.1671 7.30727 26.2378 7.47534 26.2967 7.57283C26.4116 7.76107 26.3939 7.86529 26.338 7.9258C26.282 7.98967 26.1907 8.00984 26.0257 7.87873C25.9461 7.81486 25.7988 7.73418 25.6338 7.73418C25.351 7.73418 25.2096 7.94932 25.2096 8.13085C25.2096 8.31237 25.351 8.52751 25.6338 8.52751C25.7988 8.52751 25.9461 8.44684 26.0257 8.37961C26.1936 8.24851 26.2849 8.26868 26.338 8.33255C26.391 8.39642 26.3114 9.04856 26.2466 9.55952C25.7752 9.67381 25.5484 10.1075 25.5484 10.3528C25.5484 11.0016 26.1553 11.3748 26.5118 11.5899C26.8653 11.3748 27.4752 10.9983 27.4752 10.3528C27.4752 10.1007 27.2483 9.67045 26.7769 9.55952C26.7121 9.0452 26.6296 8.39305 26.6856 8.33255C26.7386 8.27204 26.83 8.24851 26.995 8.37961C27.0775 8.44348 27.2218 8.52751 27.3868 8.52751C27.6726 8.52751 27.814 8.31237 27.814 8.13085C27.814 7.95268 27.6726 7.73418 27.3868 7.73418C27.2218 7.73418 27.0775 7.81486 26.995 7.87873C26.83 8.00984 26.7357 7.98967 26.6856 7.9258C26.6296 7.86529 26.609 7.76107 26.7269 7.57283C26.7828 7.4787 26.8535 7.31063 26.8535 7.11902C26.8535 6.79631 26.665 6.63159 26.5059 6.63159C26.3468 6.63159 26.1671 6.79295 26.1671 7.11902ZM26.5118 11.9328C26.1288 11.9328 25.8194 12.2824 25.8194 12.7228C25.8194 13.1564 26.1288 13.5127 26.5118 13.5127C26.8918 13.5127 27.2041 13.1598 27.2041 12.7228C27.2041 12.2857 26.8948 11.9328 26.5118 11.9328ZM26.5118 19.5299C29.2841 19.5299 30.8486 20.135 30.8486 20.135C30.8633 18.5383 30.8574 17.6441 31.6558 17.7785C31.2198 16.4339 33.1083 15.9062 33.1083 14.1581C33.1083 13.0085 32.3924 12.8774 32.1832 12.8774C31.5557 12.8774 31.6529 13.3413 31.1196 13.3413L30.9841 13.3783C30.9841 13.58 31.1343 13.9228 31.3818 13.9228C31.7089 13.9228 31.7177 13.5463 31.9563 13.5463C32.0653 13.5463 32.2156 13.6438 32.2156 14.027C32.2156 14.7699 31.7884 15.5969 31.2817 16.2356C31.1668 16.0541 31.0077 15.9364 30.8191 15.9364C30.5215 15.9364 30.2593 16.2927 30.2593 16.7297L30.3359 17.1466C30.1651 17.2541 30.0177 17.3113 29.9058 17.3113C29.676 17.3113 29.3342 17.2071 29.3342 16.639C29.3342 15.3683 30.8221 14.2556 30.8221 12.6522C30.8221 11.8857 30.3742 11.1193 29.4344 11.1193C28.4268 11.1193 28.6183 12.1681 27.7433 12.1681L27.6726 12.2219C27.6726 12.2857 27.8228 12.8673 28.2736 12.8673C28.7597 12.8673 28.8923 11.916 29.3195 11.916C29.4786 11.916 29.7172 12.0269 29.7172 12.6656C29.7172 13.1665 29.4992 13.98 29.1869 14.7565C29.072 14.6254 28.9188 14.5346 28.7479 14.5346C28.3738 14.5346 28.1057 14.9481 28.1057 15.4423C28.1057 15.7515 28.2147 16.0507 28.3973 16.2524C28.1793 16.5717 27.9554 16.8339 27.652 16.8339C27.048 16.8339 26.7828 16.444 26.7828 16.0204C26.7828 15.5633 27.5164 15.3952 27.5164 14.6758C27.5164 14.1918 27.2395 13.9161 26.9714 13.9161C26.6856 13.9161 26.5383 14.1346 26.5088 14.1346C26.4794 14.1346 26.3321 13.9161 26.0433 13.9161C25.7752 13.9161 25.4983 14.1918 25.4983 14.6758C25.4983 15.3952 26.2319 15.5599 26.2319 16.0204C26.2319 16.444 25.9638 16.8339 25.3628 16.8339C25.0564 16.8339 24.8325 16.5717 24.6144 16.2524C24.8001 16.0541 24.9061 15.7549 24.9061 15.4423C24.9061 14.9515 24.638 14.5346 24.2638 14.5346C24.09 14.5346 23.9368 14.6288 23.8249 14.7565C23.5126 13.98 23.2946 13.1698 23.2946 12.6656C23.2946 12.0202 23.5332 11.916 23.6923 11.916C24.1195 11.916 24.255 12.8673 24.7352 12.8673C25.186 12.8673 25.3363 12.2891 25.3363 12.2219L25.2685 12.1715C24.3964 12.1715 24.585 11.1226 23.5774 11.1226C22.6405 11.1226 22.1897 11.8857 22.1897 12.6555C22.1897 14.2623 23.6776 15.3784 23.6776 16.6423C23.6776 17.2138 23.3329 17.3147 23.106 17.3147C22.994 17.3147 22.8438 17.2541 22.6759 17.1499L22.7525 16.7331C22.7525 16.2927 22.4902 15.9398 22.1927 15.9398C22.0041 15.9398 21.845 16.0541 21.7331 16.239C21.2293 15.6003 20.7991 14.7733 20.7991 14.0304C20.7991 13.6472 20.9553 13.5497 21.0584 13.5497C21.3029 13.5497 21.3088 13.9262 21.6359 13.9262C21.8833 13.9262 22.0336 13.5799 22.0336 13.3816L21.8981 13.3446C21.3648 13.3446 21.465 12.8807 20.8345 12.8807C20.6224 12.8807 19.9094 13.0118 19.9094 14.1615C19.9094 15.9095 21.7979 16.4406 21.3619 17.7819C22.1662 17.6508 22.1573 18.5383 22.1691 20.1384C22.1779 20.1316 23.7424 19.5299 26.5118 19.5299ZM21.4326 21.8897C20.6783 22.078 20.1362 22.2562 19.8947 22.3436C19.9064 21.9637 20.0331 21.6107 20.3307 21.5334L20.3425 21.4359C19.6707 20.9283 19.3084 21.9066 19.3025 21.9368C19.0638 21.9133 18.7044 21.9973 18.7044 22.3671C18.7044 23.4663 16.4977 24.0748 15.988 24.1655C16.8866 24.5622 17.2608 25.8564 17.2608 25.8564C17.9119 25.1135 18.6808 24.4546 18.8458 24.4546C19.0196 24.4546 19.0845 24.7034 19.0992 24.8513L19.1699 24.8782C19.5117 24.2966 19.3467 24.1655 19.3202 23.9941C19.2966 23.8596 19.3319 23.3453 19.8298 23.4092V30.7441L19.5706 30.8013C19.4557 30.8248 18.5158 29.9138 17.4375 29.0633C16.3622 28.2162 15.7847 28.7238 14.5562 29.4768C12.9505 30.4718 11.3272 29.5709 11.3272 29.5709C9.94245 30.7004 9.46812 33.9611 9.46812 33.9611C9.19412 34.0956 8.73746 34.2401 8.30143 34.2401C7.24669 34.2401 7.0493 33.5073 7.0493 33.0737C7.0493 31.2114 9.091 30.4113 9.091 28.5759C9.091 28.1322 8.91129 26.3203 6.94618 26.3203L5.19026 26.3169C4.45666 26.3169 4.27105 25.7118 4.16793 25.4833L4.08544 25.5169L4 26.3707C4 27.1136 4.383 27.5607 5.09893 27.5607C5.42595 27.5607 5.73236 27.4565 5.82958 27.3893L5.90029 27.4599C5.58799 27.8733 5.56442 28.6465 5.69111 28.8381L5.76771 28.8347C5.94153 28.0448 6.5838 27.3019 7.45882 27.3019C8.52534 27.3019 8.51944 28.3372 8.51944 28.586C8.51944 30.0785 6.22142 31.1744 6.22142 33.2283C6.22142 35.3125 8.14823 35.7596 9.26483 35.4301C9.20001 37.5109 7.10822 38.2236 7.04341 36.7311L6.96091 36.7411C6.69281 37.4807 6.80182 38.1228 7.61202 38.3312L7.58845 38.4186C6.7812 39.0068 7.22312 41.3062 7.26142 41.9818C7.32035 42.9567 6.47185 42.839 6.40114 42.8121L6.38641 42.8928C6.99038 43.7332 7.73281 42.9668 7.73281 42.9668C8.29553 43.1685 7.94494 43.713 7.57077 43.9988L7.58256 44.0929C7.66505 44.0996 8.53712 44.1837 8.69327 43.3937C9.07922 43.9181 9.64783 43.7265 9.76273 43.6593C9.93067 43.5618 10.7438 43.2256 10.8263 44.2677L10.8941 44.2542C11.5098 43.3702 10.8528 42.8256 10.4816 42.7617C10.5111 42.7147 11.006 42.2474 11.448 42.8928L11.5098 42.8558C11.5629 41.7364 10.7644 41.6322 10.243 42.1197C10.2194 42.0054 10.0485 41.3767 10.8263 41.3969L10.844 41.3196C10.24 40.5801 9.73916 41.2456 9.62721 41.407C9.35616 41.7701 8.68148 41.6255 8.62256 41.6154C8.83469 37.716 11.8427 39.101 12.2582 37.205L12.3259 37.1782C12.4408 37.6387 13.4572 37.7026 13.6487 36.7949L13.6163 36.7411C12.7472 37.7362 10.7851 34.6334 13.4602 32.1123C15.7464 29.9642 17.794 31.1609 18.5689 31.8669C18.6101 32.1761 18.4481 32.2803 18.345 32.3173L18.3538 32.3946C18.5718 32.4888 18.8782 32.4585 19.0196 32.2266C19.5117 32.6165 19.0904 33.1107 18.893 33.2451L18.9077 33.3325C19.3585 33.4233 19.7267 32.8989 19.7473 32.5963L19.8239 32.6434V34.8587C19.8239 38.0118 23.0117 38.4488 26.5088 41.1246C30.006 38.4522 33.1908 38.0152 33.1908 34.8587V32.6434L33.2674 32.5963C33.2851 32.9022 33.6563 33.4266 34.107 33.3325L34.1188 33.2451C33.9244 33.1107 33.5001 32.6165 33.9921 32.2266C34.1365 32.4552 34.4429 32.4888 34.658 32.3946L34.6668 32.3173C34.5637 32.2803 34.3987 32.1795 34.4429 31.8669C35.2207 31.1576 37.2683 29.9609 39.5516 32.1123C42.2267 34.6334 40.2675 37.7328 39.3954 36.7411L39.363 36.8017C39.5516 37.7126 40.571 37.6454 40.6859 37.1849L40.7536 37.2118C41.1661 39.101 44.1712 37.7227 44.3863 41.6221C44.3244 41.6322 43.6527 41.7768 43.3816 41.4104C43.2667 41.249 42.7688 40.5834 42.159 41.3162L42.1766 41.3936C42.9574 41.37 42.7836 42.002 42.76 42.1163C42.2444 41.6289 41.446 41.7297 41.4931 42.8525L41.5579 42.8895C42.0028 42.2407 42.4948 42.7079 42.5243 42.7584C42.159 42.8222 41.499 43.3668 42.1118 44.2509L42.1825 44.2643C42.265 43.2189 43.0782 43.5584 43.2461 43.6559C43.364 43.7265 43.9326 43.9181 44.3156 43.3903C44.4717 44.1803 45.3408 44.0963 45.4263 44.0895L45.4351 43.9954C45.061 43.7097 44.7104 43.1617 45.276 42.9634C45.276 42.9634 46.0185 43.7298 46.6195 42.8895L46.6048 42.8088C46.534 42.839 45.6855 42.9533 45.7445 41.9785C45.7828 41.3028 46.2218 39.0035 45.4115 38.4186L45.388 38.3312C46.2011 38.1228 46.3072 37.4773 46.042 36.7411L45.9595 36.7311C45.8947 38.2236 43.8029 37.5143 43.7381 35.4301C44.8518 35.7596 46.7815 35.3125 46.7815 33.2283C46.7815 31.1744 44.4835 30.0819 44.4835 28.586C44.4835 28.3372 44.4747 27.3019 45.5412 27.3019C46.4132 27.3019 47.0585 28.0448 47.2323 28.8347L47.3089 28.8381C47.4356 28.6499 47.412 27.8733 47.1027 27.4599L47.1704 27.3893C47.2706 27.4531 47.577 27.5607 47.9011 27.5607C48.617 27.5607 49 27.1136 49 26.3707L48.9263 25.5102L48.8409 25.4765C48.7348 25.7051 48.5522 26.3102 47.8186 26.3102L46.0627 26.3136C44.1005 26.3136 43.9208 28.1221 43.9208 28.5692C43.9208 30.4046 45.9625 31.2013 45.9625 33.067C45.9625 33.5006 45.771 34.2334 44.7104 34.2334C44.2773 34.2334 43.8206 34.0922 43.5466 33.9544C43.5466 33.9544 43.0752 30.6937 41.6876 29.5642C41.6876 29.5642 40.0642 30.4651 38.4586 29.4701C37.23 28.7137 36.6555 28.2028 35.5772 29.0566C34.5018 29.9071 33.562 30.8181 33.4442 30.7945L33.1849 30.7374V23.3991C33.6857 23.3419 33.7181 23.8495 33.6975 23.984C33.6681 24.1554 33.506 24.2865 33.8478 24.8681L33.9155 24.8412C33.9303 24.6967 33.9951 24.4445 34.1719 24.4445C34.3398 24.4445 35.1058 25.1 35.754 25.8463C35.754 25.8463 36.1311 24.5555 37.0267 24.1554C36.517 24.068 34.3133 23.4562 34.3133 22.357C34.3133 21.9906 33.9509 21.9032 33.7123 21.9267C33.7005 21.8931 33.341 20.9182 32.6693 21.4258L32.6811 21.5233C32.9787 21.6007 33.1053 21.9536 33.1171 22.3335C32.4749 22.1116 29.7379 21.2342 26.4971 21.2342C24.9238 21.2342 23.4713 21.4427 22.3194 21.678V24.2193H21.4267V21.8797L21.4326 21.8897ZM15.4489 47.9318C15.2102 47.8209 15.0511 47.6461 15.0511 47.2864V45.7098C14.6534 45.5485 13.5721 45.0778 11.4067 45.0778C9.60953 45.0778 9.04976 45.5417 9.02324 45.7031L8.54301 48.7117C8.54301 48.7117 9.27072 47.9553 11.8781 48.1469C15.0158 48.3722 18.2684 50.4866 18.2684 48.2343V46.9132C15.8054 46.9099 15.4489 47.8007 15.4489 47.9318ZM34.7582 46.9099V48.231C34.7582 50.4832 38.0107 48.3688 41.1484 48.1436C43.7558 47.9453 44.4835 48.7083 44.4835 48.7083L44.0062 45.6997C43.9797 45.5384 43.417 45.0745 41.6198 45.0745C39.4603 45.0745 38.3731 45.5485 37.9754 45.7065V47.283C37.9754 47.6427 37.8163 47.8209 37.5777 47.9284C37.5777 47.8007 37.2212 46.9099 34.7582 46.9099ZM26.5118 45.5417C31.5645 45.5417 36.6967 45.8443 37.3714 46.7116L37.448 46.6611V43.6021C37.448 42.7113 32.1537 42.1936 26.5118 42.1936C20.8698 42.1936 15.5756 42.7147 15.5756 43.6021V46.6611L15.6522 46.7116C16.3268 45.8443 21.4591 45.5417 26.5118 45.5417ZM22.0041 31.1341L21.4944 30.9828L21.4532 31.0567L20.861 30.7576L21.3913 30.7542L21.4208 30.6903L20.9671 30.1861L21.5534 30.4315L21.5887 30.3878L21.1969 29.7323L21.7714 30.1726L21.8126 30.1357L21.5416 29.3692L22.066 29.9373L22.1102 29.9071L21.9658 29.1339L22.3518 29.776L22.4048 29.7558L22.4166 29.0566L22.6611 29.6987L22.7289 29.6886L22.9233 29.1474L22.9469 29.8768L22.8615 29.897L22.7554 30.7744C23.5185 30.5693 24.4701 29.0801 25.1978 29.0801C26.0669 29.0801 26.3822 30.2399 27.9878 29.6516C28.3944 30.334 28.5329 30.9256 28.689 31.7492C29.3107 32.4148 30.1768 32.193 30.1768 31.4904C30.1768 30.5424 29.2724 30.3609 29.2724 29.3692C29.2724 28.9289 29.5405 28.2935 30.2829 28.2935L31.5792 28.4851C31.9711 28.4851 32.0536 28.1624 32.0977 28.028C32.136 27.9271 32.2421 27.9607 32.2303 28.0381L32.2745 28.4717C32.2745 29.0969 31.4761 29.1776 31.3818 29.1003L31.3406 29.144C31.4614 29.2549 31.4319 29.6247 31.2905 29.8667L31.2463 29.8634C31.1638 29.4163 30.7013 28.8583 30.2947 28.8583C30.1444 28.8583 29.8498 28.9558 29.8498 29.3491C29.8498 29.9138 30.8368 30.4248 30.8368 31.5912C30.8368 32.8014 29.785 33.0938 28.7273 32.7913C28.7656 33.941 30.2652 34.6234 30.3006 33.7998L30.3448 33.8031C30.5657 34.1527 30.4656 34.4217 30.1798 34.5561C30.442 34.6872 30.4891 35.2957 30.5657 35.652C30.6806 36.1898 31.1815 35.8907 31.208 35.8772L31.2345 35.9108C31.043 36.4756 30.5392 36.2604 30.5392 36.2604C30.2741 36.4756 30.5952 36.6605 30.8338 36.7445L30.8427 36.7949C30.663 36.8689 30.2858 37.0034 30.1061 36.6403C29.9706 37.0134 29.6878 37.0067 29.5817 37.0067C29.3902 37.0067 29.2606 37.2286 29.3077 37.5311L29.2724 37.558C28.8128 37.2084 29.0779 36.7983 29.2635 36.6975C29.2311 36.6706 28.9129 36.5226 28.7774 36.9462L28.7391 36.9496C28.5388 36.3378 28.9777 36.1596 29.293 36.3109C29.2694 36.2235 29.1044 35.9277 28.689 36.0218L28.6684 35.9882C28.7362 35.7999 28.9424 35.5209 29.3195 35.8066C29.511 35.9411 29.8439 35.7428 29.8763 35.726C29.2046 34.1998 27.8965 35.4772 27.6048 34.2805L27.5577 34.2973C27.487 34.5528 26.9154 34.5696 26.8152 34.0687L26.8418 34.0485C26.9243 34.146 27.104 34.2301 27.3397 33.8435C27.4958 33.5846 27.5194 33.2451 27.5194 33.0098C27.5194 32.082 26.7062 30.5189 25.4394 30.5189C24.6351 30.5189 23.7777 30.8752 23.1384 31.4063L23.7335 31.5677C23.6776 32.2568 23.1001 32.6568 22.5668 32.4888L22.6582 31.7022C22.5668 31.7391 22.3312 31.8333 22.2074 32.0316L22.1721 32.0215C22.063 31.5778 22.3871 31.3559 22.4844 31.2954L22.4755 31.2786C22.1838 31.2652 22.0218 31.5072 21.9747 31.5912H21.957C21.9216 31.524 21.8715 31.2954 22.0041 31.1341ZM23.7748 36.4386C23.545 36.7546 23.3476 36.4521 23.0441 36.4521C22.7613 36.4521 22.7142 36.721 22.7083 36.8286L22.6847 36.8386C22.3665 36.3411 22.723 36.0722 22.9292 36.0319C22.8968 35.9949 22.5845 35.7562 22.3842 36.0856L22.3518 36.0722C22.3429 35.457 22.7731 35.4133 23.053 35.6823C23.1001 35.4503 22.9705 35.2923 22.7436 35.2822L22.723 35.2486C22.8202 35.1276 22.9115 35.0772 23.0029 35.0772C23.3063 35.0772 23.3446 35.5075 23.5391 35.5075C23.8337 35.5075 24.2521 35.0536 24.2904 35.0066C24.2815 34.9797 24.0016 34.1124 24.0576 33.588L24.037 33.5746C23.8956 33.6653 23.5361 33.662 23.5361 33.1544L23.5656 33.1443C23.7247 33.393 23.981 33.1107 24.1106 32.9459C24.2491 32.7678 24.9916 31.5374 25.9815 31.5374C26.1995 31.5374 26.4823 31.6719 26.7092 31.8534C26.3645 32.3274 26.7062 32.7779 26.9596 32.7241L26.9684 32.761C25.6603 33.3224 25.077 33.5477 25.077 34.7982C25.077 35.4537 25.2714 35.8134 25.6073 35.7293L25.622 35.7562C25.5042 35.9209 25.3598 35.9747 25.2449 35.9747C24.9768 35.9747 24.9238 35.8066 24.7794 35.8066C24.6292 35.8066 24.1401 36.1293 24.1401 36.405C24.1401 36.5092 24.1961 36.6504 24.3699 36.7781L24.364 36.7983C24.2521 36.8185 23.8632 36.8521 23.7748 36.4386ZM27.2189 24.2865C26.8093 24.2596 26.5471 24.3639 26.5619 24.5118C26.7563 24.7471 27.0244 24.7235 27.2189 24.2865ZM25.7104 25.4396C26.0021 25.3589 26.3173 25.3959 26.3527 25.4093L26.3439 25.5135C25.7399 25.6009 25.7104 25.9169 25.3304 25.9169C25.074 25.9169 24.8001 25.6244 24.9061 25.1975L24.9709 25.1908C25.0033 25.3791 25.2361 25.5807 25.7104 25.4396ZM17.8883 40.6843C18.289 41.2658 18.672 40.7179 19.1964 40.7179C19.4527 40.7179 19.765 40.8154 19.8239 41.4003H19.874C20.4456 40.5128 19.7945 40.0086 19.4203 39.9481C19.4999 39.864 20.0596 39.4707 20.4102 40.0523L20.4721 40.0321C20.4721 38.906 19.7326 38.8287 19.1935 39.3127C19.0962 38.8791 19.385 38.5867 19.7562 38.5867L19.7945 38.5228C19.1345 37.716 18.6396 38.7346 18.5276 38.8959C18.2625 39.2959 17.3197 38.5463 16.9426 38.0959C16.9426 38.0959 17.7764 37.0975 17.7764 36.1865L17.7705 36.0251L17.8058 36.0016L18.1152 36.0924C18.3067 36.0924 18.6661 36.0218 18.6661 35.252L18.6219 35.2318C18.5217 35.3965 18.4157 35.4335 18.3302 35.4335C17.6585 35.4335 16.2532 32.8686 14.5945 32.8686C14.1643 32.8686 13.3423 33.2249 12.9269 33.7359C13.1273 33.8704 13.1656 34.146 13.145 34.3511C13.1125 34.6771 12.8857 34.8385 12.6559 34.9125V34.9763C13.4955 35.3394 15.0158 35.9982 15.3605 36.3378C15.7729 36.7378 15.6934 37.5042 15.4548 38.5564C15.225 39.5649 14.7329 39.4304 14.5562 39.3934L14.5385 39.4338C14.7536 39.743 15.0187 39.8472 15.2426 39.8472C15.6787 39.8472 15.8407 39.5413 16.0646 39.5413C16.4447 39.5413 17.2372 40.1599 17.2372 40.6338C17.2372 40.8994 17.0545 41.1381 16.8218 41.3095L16.8336 41.3499C17.0015 41.37 17.7469 41.4406 17.8883 40.6843ZM36.2047 41.333L36.2165 41.2961C35.9838 41.1246 35.8011 40.8826 35.8011 40.6204C35.8011 40.1464 36.5966 39.5279 36.9737 39.5279C37.1976 39.5279 37.3626 39.8338 37.7957 39.8338C38.0196 39.8338 38.2847 39.7296 38.4998 39.4203L38.4821 39.3833C38.3024 39.417 37.8104 39.5548 37.5835 38.5429C37.3478 37.4908 37.2654 36.7277 37.6778 36.3209C38.0255 35.9814 39.5457 35.3226 40.3824 34.9595V34.8923C40.1526 34.8183 39.9258 34.6603 39.8933 34.3343C39.8727 34.1326 39.911 33.8536 40.1114 33.7191C39.696 33.2081 38.8769 32.8518 38.4438 32.8518C36.7851 32.8518 35.3798 35.4167 34.7081 35.4167C34.6256 35.4167 34.5136 35.3797 34.4164 35.2184L34.3722 35.2385C34.3722 36.0117 34.7316 36.0789 34.9231 36.0789L35.2325 35.9882L35.2649 36.0117L35.259 36.173C35.259 37.0874 36.0928 38.0791 36.0928 38.0791C35.7157 38.5295 34.7699 39.2825 34.5107 38.8791C34.3987 38.7178 33.9038 37.6992 33.2438 38.5093L33.2821 38.5732C33.6533 38.5732 33.945 38.8623 33.8448 39.2993C33.3086 38.8119 32.5721 38.8926 32.5721 40.0153L32.6281 40.0355C32.9787 39.4607 33.5384 39.8472 33.6209 39.9313C33.2468 39.9951 32.5957 40.5027 33.1672 41.3868H33.2144C33.2733 40.8019 33.5856 40.7011 33.8389 40.7011C34.3634 40.7011 34.7464 41.2524 35.147 40.6675C35.2826 41.4406 36.025 41.37 36.2047 41.333ZM22.7908 26.5522C22.7377 26.6363 22.5639 26.5489 22.4961 26.5119L22.4844 26.5253C22.5256 26.6329 22.6965 26.9556 22.944 26.9556C23.0589 26.9556 23.2209 26.8783 23.268 26.7943C23.268 26.7943 24.2432 27.1573 24.7264 27.3086C24.5378 27.591 24.4229 27.9338 24.3964 28.3103C24.0075 28.038 22.449 27.0834 22.449 27.0834L21.9688 27.8364C21.8892 27.9607 21.5033 27.638 21.5828 27.5136L21.9481 26.9388C21.8274 26.7909 21.5327 26.885 21.4502 26.9086L21.4385 26.8817C21.4856 26.7674 21.6683 26.4178 22.1279 26.5758C22.1279 26.2598 21.7125 26.3573 21.6034 26.3942L21.5976 26.3741C21.7125 26.2362 22.0483 25.9236 22.4284 26.1791L22.5934 25.9169L22.2604 25.5236L22.4696 25.1942L22.7024 25.5572L24.5025 22.7469C24.5437 22.6764 24.9032 22.5587 25.0357 22.5251C25.0505 22.6831 25.0652 23.1033 25.024 23.1739L23.2563 26.0077L23.6275 26.1455L23.4242 26.4749L22.9823 26.243L22.7908 26.5522ZM29.0956 26.0917C29.0956 26.3505 29.237 26.727 29.5346 26.6161L29.5611 26.6296C29.5169 26.9186 29.0661 27.1775 28.8628 26.8413C28.6772 27.275 28.7214 27.6851 29.1162 27.9338V28.0011C28.8835 28.196 28.5181 28.1523 28.3473 27.7792C28.0261 28.0582 28.0733 28.6465 28.2677 28.8482C28.2677 28.8482 27.375 29.4533 26.5619 29.0196C26.0257 28.7238 25.5896 28.3507 24.8943 28.4112C24.9916 27.3019 25.4777 27.0094 26.3674 26.8514C27.0833 26.7203 27.1717 26.3472 27.0716 26.0614C26.827 25.9875 26.3851 26.243 26.3851 26.243C26.3056 26.0951 26.4234 25.9337 26.4234 25.9337L26.3556 25.6681C26.8565 25.6681 26.939 25.5404 26.939 25.5404C27.0333 24.9555 26.5029 24.8883 26.0993 25.211C25.9108 25.0227 25.9402 24.7706 25.9402 24.7706L25.8489 24.5958C25.8489 24.458 26.4411 24.0748 26.5943 24.0311C26.6326 23.8327 26.8506 23.5604 27.4781 23.6243C27.5547 23.4361 27.4339 22.7402 27.3573 22.5553L27.4251 22.5083L28.0084 23.2646C28.0084 23.2646 28.7155 22.8411 28.7479 22.8646C28.7803 22.8848 28.8805 23.7857 28.8805 23.7857L29.7585 23.9067L29.7614 23.9941C29.5817 24.0311 29.0131 24.3101 28.9188 24.4849C29.2488 25.0429 29.0956 25.8665 29.0956 26.0917Z" fill="white"/>
</svg>
