<svg width="76" height="95" viewBox="0 0 76 95" fill="none" xmlns="http://www.w3.org/2000/svg">
<path d="M45.6999 28.8C47.7999 28.8 49.4999 27.1 49.4999 25C49.4999 22.9 47.7999 21.2 45.6999 21.2C43.5999 21.2 41.8999 22.9 41.8999 25C41.8999 27.1 43.5999 28.8 45.6999 28.8Z" fill="black"/>
<path d="M33.6998 36C35.4998 35.7 40.7998 35.4 42.9998 38C43.3998 38.5 43.8998 38.7 44.4998 38.7C44.8998 38.7 45.3998 38.6 45.6998 38.3C46.4998 37.6 46.5998 36.4 45.9998 35.6C41.8998 30.6 33.2998 32.2 32.9998 32.3C31.8998 32.5 31.1998 33.5 31.3998 34.6C31.5998 35.5 32.5998 36.2 33.6998 36Z" fill="black"/>
<path d="M72.2 52.8C73 52.1 73.1 51 72.5 50.2C70.6 47.6 68.3 45.3 65.6 43.6C64.9 43.1 63.9 43.2 63.2 43.8L63.1 43.9C61.6 43 60 42.3 58.3 41.8C61.8 37.4 63.8 31.9 63.8 26C63.8 20.8 62.3 16 59.6 11.9C59.7 11.8 59.7 11.6 59.8 11.5C60 10.9 59.8 10.3 59.5 9.8C57.3 6.9 54.7 4.5 51.5 2.7C51 2.3 50.3 2.3 49.8 2.5L49.3 2.7C45.8 1 41.9 0 37.8 0C26.8 0 17.4 6.9 13.6 16.5L13.1 16.7C12.5 16.9 12.1 17.4 11.9 17.9C11.1 20.5 10.7 23.2 10.7 25.9C10.7 26.8 10.7 27.7 10.8 28.5C10.9 29.1 11.2 29.7 11.7 30C11.8 30.1 12 30.1 12.1 30.2C12.8 34.5 14.6 38.4 17.1 41.7C7.2 44.8 0 54.1 0 65V82.9C0 89.5 5.4 94.9 12 94.9H63.5C70.1 94.9 75.5 89.5 75.5 82.9V65.1C75.5 60.6 74.3 56.4 72.2 52.8ZM37.8 3.9C39.9 3.9 42 4.2 43.9 4.8L19 14.5C22.9 8.1 29.9 3.9 37.8 3.9ZM15.4 20L50.3 6.5C51.9 7.5 53.3 8.7 54.6 10.1L14.6 25.6C14.7 23.7 14.9 21.8 15.4 20ZM16 29.2L26.1 25.3C26.3 27.2 27.9 28.7 29.9 28.7C32 28.7 33.7 27 33.7 24.9C33.7 24 33.4 23.3 32.9 22.6L56 13.6C58.4 17.1 59.8 21.3 59.8 25.9C59.8 38.1 49.9 48 37.7 48C26.7 48 17.6 39.9 16 29.2ZM12 91.1C7.6 91.1 4 87.5 4 83V65.1C4 55.3 10.9 47 20.2 45C24.8 49.3 31 51.9 37.8 51.9C44.6 51.9 50.8 49.3 55.4 45C57.1 45.4 58.6 45.9 60.1 46.7L29.8 74.7H22.4V62.7C22.4 61.6 21.5 60.7 20.4 60.7C19.3 60.7 18.4 61.6 18.4 62.7V76.6C18.4 77.7 19.3 78.6 20.4 78.6H25.5L12 91.1ZM17.8 91.1L64.8 47.7C66.1 48.7 67.3 49.8 68.3 51.1L25 91.1H17.8ZM39.4 91.1H30.7L43 79.7C44.6 80.8 45.7 82.7 45.7 84.8C45.7 88.3 42.9 91.1 39.4 91.1ZM71.6 83C71.6 87.4 68 91.1 63.5 91.1H47.4C48.8 89.4 49.6 87.2 49.6 84.9C49.6 81.8 48.2 79 46 77.1L69.2 55.5C70.7 58.4 71.6 61.6 71.6 65V83Z" fill="black"/>
</svg>
