<svg width="24" height="24" viewBox="0 0 24 24" fill="none" xmlns="http://www.w3.org/2000/svg">
<path d="M5.56254 24H18.4374C21.5066 24 24 21.5125 24 18.4596L23.9987 5.54042C23.9987 2.48345 21.5013 0 18.4361 0H5.56257C2.49338 0 0 2.48748 0 5.54042V18.4609C0 21.514 2.49739 24 5.56254 24ZM2.01893 5.54042C2.01893 3.59365 3.60677 2.01092 5.56254 2.01092H18.4374C20.392 2.01092 21.981 3.59244 21.981 5.54042V18.4609C21.981 20.4077 20.3932 21.9904 18.4374 21.9904L5.56254 21.9891C3.60798 21.9891 2.01893 20.4076 2.01893 18.4596V5.54042Z" fill="white"/>
<path d="M11.9993 17.8768C15.2538 17.8768 17.9011 15.2387 17.9011 11.9985C17.9011 8.75693 15.2538 6.12024 11.9993 6.12024C8.74482 6.12024 6.09756 8.75696 6.09756 11.9985C6.09756 15.24 8.74482 17.8768 11.9993 17.8768ZM11.9993 8.13116C14.1392 8.13116 15.8821 9.86715 15.8821 11.9985C15.8821 14.1298 14.1392 15.8658 11.9993 15.8658C9.85946 15.8658 8.11652 14.1298 8.11652 11.9985C8.11652 9.86715 9.85946 8.13116 11.9993 8.13116Z" fill="white"/>
<path d="M18.9513 4.03591C20.9373 4.85546 19.7031 7.82079 17.717 7.00255C15.7322 6.183 16.9651 3.21632 18.9513 4.03591Z" fill="white"/>
</svg>
