<svg width="24" height="24" viewBox="0 0 24 24" fill="none" xmlns="http://www.w3.org/2000/svg">
<g clip-path="url(#clip0_3388_5819)">
<path d="M16.4212 14.3693C16.1658 14.3693 15.9214 14.4082 15.6937 14.4803L14.6162 11.7867C14.5718 11.6812 14.4773 11.6146 14.3663 11.6146H13.1C12.95 11.6146 12.8278 11.7367 12.8278 11.8923C12.8278 12.0478 12.95 12.17 13.1 12.17C13.1 12.17 13.9163 12.17 14.183 12.17C14.2107 12.2366 14.3163 12.5088 14.4718 12.8864L9.91209 12.8809L9.68991 12.4699L10.7562 12.3477C10.8618 12.3477 10.9506 12.2588 10.9506 12.1478C10.9506 12.0367 10.8617 11.9478 10.7562 11.9478H8.95678C8.84569 11.9478 8.76244 12.0367 8.76244 12.1478C8.76244 12.2588 8.72353 12.581 9.06234 12.5421L9.10678 12.5365L9.41784 13.1141L8.56256 14.6026C8.23491 14.4526 7.87388 14.3638 7.49063 14.3638C6.05775 14.3638 4.88588 15.5579 4.88588 17.0242C4.88588 18.4904 6.05222 19.69 7.48509 19.69C8.82909 19.69 9.93994 18.6459 10.0732 17.3074H11.7782C11.917 17.3074 12.0337 17.2519 12.1058 17.1518L14.7884 13.6807C14.9162 13.9973 15.055 14.3416 15.1882 14.6859C14.3719 15.1358 13.8164 16.0189 13.8164 17.0297C13.8164 18.4959 14.9828 19.6956 16.4156 19.6956C17.8485 19.6956 19.0204 18.5015 19.0204 17.0352C19.026 15.5633 17.8597 14.3693 16.4212 14.3693ZM7.49053 19.1289C6.35756 19.1289 5.43563 18.1848 5.43563 17.0184C5.43563 15.8577 6.36309 14.9136 7.49616 14.9136C7.77938 14.9136 8.046 14.9747 8.29041 15.0802L7.25728 16.8797C7.20731 16.963 7.20731 17.074 7.25728 17.1574C7.30725 17.2407 7.39613 17.2962 7.49053 17.2962H9.52884C9.39553 18.3348 8.52919 19.1346 7.49053 19.1289ZM7.96266 16.7464L8.75691 15.3635C9.17344 15.6967 9.46228 16.1855 9.52894 16.7464C8.87353 16.7464 8.2515 16.7464 7.96266 16.7464ZM10.0787 16.7464C10.001 15.98 9.60656 15.3135 9.02897 14.8803C9.30666 14.3971 9.56766 13.9417 9.72319 13.6751L11.3949 16.752C11.084 16.7464 10.5952 16.7464 10.0787 16.7464ZM11.9337 16.4131L10.2175 13.4418C11.1506 13.4418 13.5666 13.4473 14.283 13.4473C13.8608 13.9861 12.5002 15.6744 11.9337 16.4131ZM16.4212 19.1401C15.2883 19.1401 14.3607 18.1904 14.3663 17.0296C14.3663 16.252 14.7829 15.569 15.3994 15.2079C15.8104 16.241 16.1714 17.1407 16.1714 17.1407C16.2269 17.2851 16.388 17.3517 16.5268 17.2907C16.6657 17.2352 16.7323 17.0685 16.6768 16.9297L15.8993 14.9969C16.0658 14.9525 16.2436 14.9247 16.4213 14.9247C17.5543 14.9247 18.4762 15.8744 18.4762 17.0352C18.4817 18.1959 17.5542 19.1401 16.4212 19.1401ZM0.1875 6.60938C0.1875 7.89169 1.08984 8.98144 2.25 9.38212V21.9844H0.1875V23.6719H23.8125V21.9844H21.75V9.38006C22.9584 9.01022 23.7843 7.93669 23.8125 6.60938V5.85938H0.1875V6.60938ZM6.12094 6.54806C6.12094 7.15528 6.75422 9.49837 9.09534 9.49837C11.1287 9.49837 12.0205 7.65947 12.0205 6.54806C12.0205 7.58419 12.7152 9.49622 14.9703 9.49622C17.0077 9.49622 17.9106 7.52756 17.9106 6.54806C17.9106 7.90041 18.8224 9.02456 20.0625 9.375V21.9844H3.9375V9.38381C5.19394 9.04369 6.12094 7.91203 6.12094 6.54806ZM23.8125 5.20312H0.1875L3.1875 2.20312V0.328125H20.9062V2.20312H20.8905L23.8125 5.20312Z" fill="white"/>
</g>
<defs>
<clipPath id="clip0_3388_5819">
<rect width="24" height="24" fill="white"/>
</clipPath>
</defs>
</svg>
