<svg width="24" height="24" viewBox="0 0 24 24" fill="none" xmlns="http://www.w3.org/2000/svg">
<path d="M19.9954 22.0506C19.9381 22.8092 19.2797 23.3674 18.5212 23.3101C18.2779 23.2957 18.106 23.2099 17.8913 23.1097C17.8913 23.1097 13.9982 20.4619 13.7692 20.2758C13.3827 19.9466 12.9963 19.5601 12.8245 19.0019C12.7673 18.8016 11.98 16.125 11.98 16.125L11.6266 23.625H3.72619L3.91706 20.6049H2.04675C0.916031 20.6049 0 19.6889 0 18.5582C0 18.2862 0.0429375 18.0286 0.143156 17.7996C0.143156 17.7996 2.26153 13.0477 2.66231 12.2747C3.24919 11.1153 4.27969 10.6144 5.72531 10.6573H9.54694L1.54584 16.3969L0.830156 18.0715C0.758625 18.2147 0.729938 18.3864 0.729938 18.5582C0.729938 19.2739 1.31681 19.8607 2.03241 19.8607H8.688C9.81872 19.8607 10.7347 18.9446 10.7347 17.8139C10.7347 16.812 10.0191 15.9675 9.07444 15.7958L11.021 10.6287H11.479C12.5525 10.6287 13.397 11.3587 13.6403 12.1888L15.1718 17.7137C15.2004 17.7996 15.3007 17.9713 15.4295 18.0715C15.5869 18.186 19.4658 20.8483 19.4658 20.8483C19.8236 21.1202 20.0383 21.5639 19.9954 22.0506ZM8.24438 9.71269C9.91903 9.8415 11.3789 8.59631 11.5077 6.92166C11.6365 5.247 10.3913 3.78712 8.71669 3.65831C7.04203 3.5295 5.58206 4.77469 5.45325 6.44925C5.32444 8.12391 6.56972 9.58387 8.24438 9.71269ZM9.99056 17.7996C9.99056 17.1268 9.47531 16.583 8.83116 16.5113L7.88653 19.1164L8.68809 19.102C9.40369 19.102 9.99056 18.5152 9.99056 17.7996ZM23.625 4.20647C23.625 5.34431 22.7156 6.27094 21.6037 6.27094C20.4917 6.27094 19.5866 5.34 19.5866 4.20216C19.5866 3.41775 20.0176 2.73244 20.6512 2.38341C20.5478 2.11622 20.4399 1.84894 20.3408 1.60331L18.2591 4.29703C18.2031 4.37466 18.1126 4.41769 18.0049 4.41769H16.6817C16.5783 5.45634 15.7162 6.26663 14.6733 6.26663C13.5613 6.26663 12.6562 5.33569 12.6562 4.19784C12.6562 3.06 13.5656 2.13338 14.6776 2.13338C14.975 2.13338 15.2551 2.20237 15.5094 2.31872L16.1732 1.16363L15.9319 0.715406L15.8974 0.719719C15.6345 0.749906 15.6646 0.499875 15.6646 0.413719C15.6646 0.327563 15.7293 0.258563 15.8154 0.258563H17.2118C17.2937 0.258563 17.3627 0.327563 17.3627 0.413719C17.3627 0.499875 17.2937 0.568875 17.2118 0.568875L16.3843 0.663656L16.5567 0.982594L20.0951 0.986906C19.9745 0.693844 19.8925 0.482625 19.871 0.430969C19.6641 0.430969 19.0305 0.430969 19.0305 0.430969C18.9142 0.430969 18.8193 0.336187 18.8193 0.215437C18.8193 0.0946875 18.9142 0 19.0306 0H20.0133C20.0994 0 20.1728 0.05175 20.2073 0.133594L21.0434 2.22394C21.2201 2.16788 21.4098 2.13778 21.608 2.13778C22.7243 2.13769 23.6293 3.06431 23.625 4.20647ZM16.2593 4.40906H14.6776C14.6043 4.40906 14.5354 4.36594 14.4966 4.30134C14.4578 4.23666 14.4578 4.1505 14.4966 4.08581L15.2982 2.68941C15.1086 2.60756 14.9017 2.56013 14.6819 2.56013C13.8027 2.56013 13.0829 3.29278 13.0829 4.19362C13.0829 5.09869 13.7983 5.83144 14.6776 5.83144C15.4836 5.83566 16.1559 5.21503 16.2593 4.40906ZM16.2593 3.98241C16.2076 3.54713 15.9835 3.16781 15.6603 2.90925L15.044 3.98241C15.268 3.98241 15.7507 3.98241 16.2593 3.98241ZM17.7075 3.98662L16.4102 1.59891C16.2895 1.80581 16.0869 2.15916 15.8714 2.53416C16.3196 2.87034 16.6256 3.38756 16.686 3.98231C17.0869 3.98241 17.4661 3.98241 17.7075 3.98662ZM19.9486 1.42228C19.3927 1.42228 17.5178 1.41797 16.7937 1.41797L18.1254 3.72375C18.5651 3.15056 19.621 1.84031 19.9486 1.42228ZM23.2027 4.20647C23.2027 3.30572 22.4872 2.56866 21.608 2.56866C21.4701 2.56866 21.3322 2.59022 21.2029 2.62472L21.8063 4.12453C21.8494 4.23225 21.7976 4.36153 21.6899 4.40466C21.5822 4.45209 21.4572 4.40034 21.4141 4.28831C21.4141 4.28831 21.134 3.59006 20.815 2.7885C20.3366 3.06862 20.0134 3.59878 20.0134 4.20216C20.0091 5.10291 20.7288 5.83997 21.6081 5.83997C22.4872 5.83997 23.207 5.10722 23.2027 4.20647Z" fill="white"/>
</svg>
