<svg width="24" height="24" viewBox="0 0 24 24" fill="none" xmlns="http://www.w3.org/2000/svg">
<path d="M12 0C5.38667 0 0 5.38667 0 12C0 18.6133 5.38667 24 12 24C18.6133 24 24 18.6133 24 12C24 5.38667 18.6133 0 12 0ZM12 21.52C6.77333 21.52 2.48 17.2533 2.48 12C2.48 6.74667 6.74667 2.48 12 2.48C17.2267 2.48 21.52 6.74667 21.52 12C21.52 17.2267 17.2267 21.52 12 21.52Z" fill="white"/>
<path d="M19.0933 12.7999C18.6133 11.3333 17.04 10.5599 15.5733 11.0133L14.7733 9.19995L14.9867 8.63995H15.6267V8.07995H13.2533C13.12 8.07995 13.04 8.31995 13.2267 8.34661L14.4 8.61328L14.1867 9.17328H9.22666L9.44 8.45328C9.6 7.91995 10.4533 8.05328 10.88 8.05328V7.49328C10.1333 7.49328 9.17333 7.35995 8.90666 8.29328L8.10666 10.9066C6.8 10.6399 5.52 11.3333 4.98666 12.5333C4.4 13.9466 5.04 15.5733 6.45333 16.1866C7.86666 16.7733 9.49333 16.1333 10.1067 14.7199C10.6933 13.3066 10.0533 11.6799 8.61333 11.0666L8.82666 10.3466L11.3867 13.1733C11.3867 13.1999 11.3867 13.2266 11.3867 13.2799C11.3867 13.7599 11.76 14.1333 12.24 14.1333C12.2667 14.1333 12.2667 14.1333 12.2933 14.1333L12.56 14.6399L12.2933 14.7999L12.48 15.1466L13.4133 14.6399L13.2267 14.2933L12.9067 14.4799L12.7467 14.1599H13.7333C14.0533 15.7599 15.7333 16.7733 17.3333 16.2399C18.7733 15.8399 19.5733 14.2666 19.0933 12.7999ZM9.57333 14.5866C9.06666 15.7066 7.73333 16.2133 6.64 15.7066C5.52 15.1999 5.01333 13.8933 5.52 12.7733C5.94666 11.8666 6.93333 11.3333 7.92 11.5199L7.28 13.5999C7.17333 13.9466 7.70666 14.1066 7.81333 13.7599L8.48 11.6533C9.6 12.1599 10.08 13.4666 9.57333 14.5866ZM11.3333 12.3199L11.3867 12.2933L11.52 12.5333L11.3333 12.3199ZM12.2667 12.4799C12.16 12.4799 12.0533 12.5066 11.9467 12.5333L11.7333 12.1333L12 11.9733L11.8133 11.6266L11.0667 12.0266L9.04 9.75995H13.9733L12.88 12.6933C12.72 12.5599 12.5067 12.4799 12.2667 12.4799ZM13.68 13.6799H13.12L14.5067 9.97328L15.0667 11.2533C14.2133 11.7599 13.68 12.6666 13.68 13.6799ZM15.3067 11.7599L16.16 13.6533H14.24C14.2133 12.8799 14.64 12.1599 15.3067 11.7599ZM17.0667 15.8133C15.92 16.1599 14.5067 15.4399 14.2667 14.2399H16.56C16.7467 14.2399 16.9067 14.0266 16.8267 13.8399L15.7867 11.5466C16.96 11.1999 18.2133 11.8666 18.56 13.0399C18.9333 14.2133 18.2667 15.4666 17.0667 15.8133Z" fill="white"/>
<path d="M11.3333 12.32L11.52 12.5333L11.3867 12.2933L11.3333 12.32Z" fill="white"/>
</svg>
