<svg width="24" height="24" viewBox="0 0 24 24" fill="none" xmlns="http://www.w3.org/2000/svg">
<path d="M18.8683 21.4282H18.1136C17.9052 21.4282 17.7362 21.6198 17.7362 21.8568C17.7362 22.0938 17.9052 22.2853 18.1136 22.2853H18.8683C19.0762 22.2853 19.2456 22.4773 19.2456 22.7139C19.2456 22.9505 19.0762 23.1425 18.8683 23.1425H15.6482L16.6282 20.3097V20.3088L19.046 13.3198C19.1222 13.0995 19.0268 12.851 18.8328 12.7644C18.6388 12.6787 18.4196 12.7863 18.3437 13.0065L16.6211 17.9864L12.3817 11.3202C12.3127 11.2113 12.2059 11.1564 12.0957 11.15C12.0893 11.1474 12.0851 11.1427 12.0757 11.1427H9.79226C9.59829 8.27095 7.48354 6 4.90575 6C2.2008 6 0 8.49937 0 11.5713C0 14.6432 2.2008 17.1426 4.90575 17.1426C5.34123 17.1426 5.76124 17.0715 6.16351 16.9502L7.12466 20.0684L6.22653 21.4282H4.90575C4.69745 21.4282 4.52839 21.6198 4.52839 21.8568C4.52839 22.0938 4.69745 22.2853 4.90575 22.2853H8.67941C8.88772 22.2853 9.05678 22.0938 9.05678 21.8568C9.05678 21.6198 8.88772 21.4282 8.67941 21.4282H7.16995L7.736 20.5711H15.7271L14.7433 23.4146C14.6976 23.5466 14.7124 23.6953 14.7825 23.8127C14.8527 23.9297 14.9697 24 15.0942 24H18.8679C19.4921 24 20 23.4232 20 22.7143C20 22.0055 19.4921 21.4286 18.8679 21.4286L18.8683 21.4282ZM4.90575 16.2855C2.61703 16.2855 0.754731 14.1705 0.754731 11.5713C0.754731 8.97207 2.61703 6.85712 4.90575 6.85712C7.0673 6.85712 8.8462 8.74365 9.03753 11.1427H7.92468C7.71637 11.1427 7.54731 11.3343 7.54731 11.5713C7.54731 11.8083 7.71637 11.9999 7.92468 11.9999H9.03753C8.90055 13.7175 7.94883 15.1686 6.62579 15.8565L5.86992 13.4034C6.41974 13.0284 6.79258 12.3513 6.79258 11.5717C6.79258 10.3902 5.94615 9.42892 4.90575 9.42892C3.86536 9.42892 3.01892 10.3902 3.01892 11.5717C3.01892 12.7533 3.86536 13.7145 4.90575 13.7145C4.99179 13.7145 5.07444 13.6982 5.15746 13.6858L5.9137 16.1398C5.59029 16.2319 5.25406 16.2863 4.90575 16.2863V16.2855ZM5.27746 12.7777C5.27482 12.7786 5.27331 12.7811 5.27104 12.782C5.15595 12.827 5.03406 12.8566 4.90575 12.8566C4.28159 12.8566 3.77366 12.2797 3.77366 11.5709C3.77366 10.862 4.28159 10.2852 4.90575 10.2852C5.52992 10.2852 6.03785 10.862 6.03785 11.5709C6.03785 12.1267 5.72388 12.5968 5.28802 12.776C5.28463 12.7773 5.28085 12.776 5.27746 12.7777ZM9.79226 11.9999H11.4093L7.6375 19.1384L6.87673 16.6695C8.49261 15.8603 9.65113 14.0904 9.79226 11.9999ZM8.21374 19.714L12.1048 12.3491L16.2931 18.9348L16.0237 19.714H8.21374Z" fill="white"/>
<path d="M18.5 0C15.4671 0 13 2.69143 13 6C13 9.30857 15.4671 12 18.5 12C21.5329 12 24 9.30857 24 6C24 2.69143 21.5329 0 18.5 0ZM18.5 11.1429C15.9005 11.1429 13.7857 8.83586 13.7857 6C13.7857 3.16414 15.9005 0.857143 18.5 0.857143C21.0995 0.857143 23.2143 3.16414 23.2143 6C23.2143 8.83586 21.0995 11.1429 18.5 11.1429Z" fill="white"/>
<path d="M21.6318 3.84938C21.5738 3.72653 21.4683 3.64212 21.3477 3.62223C21.2278 3.60323 21.1052 3.64875 21.0186 3.74686L19.7319 5.21756C19.5857 5.3846 19.3305 5.38372 19.1851 5.21756C19.1121 5.13448 19.0719 5.02312 19.0719 4.90512C19.0719 4.78713 19.1121 4.67577 19.1848 4.59269L20.4715 3.12198C20.5577 3.02299 20.5983 2.88379 20.5809 2.74547C20.5631 2.60759 20.4897 2.48695 20.3822 2.42066C19.1886 1.68354 17.6842 1.93278 16.7241 3.03006C15.9451 3.92097 15.6446 5.23303 15.9257 6.44256L15.1134 7.37103C14.9622 7.54382 14.9622 7.82311 15.1134 7.9959C15.2646 8.16869 15.5089 8.16869 15.6601 7.9959L16.6372 6.87962C16.7427 6.75941 16.7779 6.57999 16.728 6.41914C16.4295 5.45841 16.6426 4.3735 17.2705 3.65538C17.8605 2.98145 18.7243 2.73265 19.5103 2.97085L18.6377 3.96826C18.4188 4.21838 18.2982 4.55115 18.2982 4.90557C18.2982 5.25998 18.4188 5.59275 18.6377 5.84287C19.09 6.35992 19.8258 6.35948 20.2782 5.84287L21.1508 4.84546C21.3585 5.743 21.1416 6.73113 20.5515 7.40506C19.9236 8.12273 18.9744 8.36755 18.1339 8.02507C17.9931 7.96718 17.8361 8.00872 17.731 8.12892L16.7539 9.24565C16.6027 9.41844 16.6027 9.69773 16.7539 9.87052C16.8293 9.95669 16.9283 10 17.0273 10C17.1263 10 17.2252 9.95669 17.3006 9.87052L18.113 8.94161C19.1701 9.26421 20.3192 8.91995 21.0983 8.02949C22.0583 6.93309 22.2775 5.21358 21.6314 3.84894L21.6318 3.84938Z" fill="white"/>
</svg>
