<svg width="13" height="25" viewBox="0 0 13 25" fill="none" xmlns="http://www.w3.org/2000/svg">
<path d="M11.9536 10.566V24.7093H1.39586V10.566H1V9.73635H1.79013L5.84732 2.70634V1.68253H5.71761V1H7.41076V1.68253H7.28103V2.70632L11.5137 9.73635H12.3332V10.566H11.9536ZM7.65981 20.9698V19.814C7.65981 19.4624 7.35664 19.1667 6.94545 19.0809V20.9698H7.65981ZM6.53938 20.9698V19.0663C6.08501 19.1264 5.7387 19.4382 5.7387 19.814V20.9698H6.53938ZM1.84084 24.2696H5.32696V19.5858C5.32696 18.9875 5.94133 18.5024 6.69918 18.5024C7.45704 18.5024 8.07141 18.9875 8.07141 19.5858V24.2696H11.5086V10.606H1.84084V24.2696ZM7.84993 8.61598V6.11068H5.41353V8.32645V8.61598V9.72542H7.84993V8.61598ZM6.46244 7.20906H5.66663V6.41287H6.46244V7.20906ZM6.46244 8.32645H5.66663V7.54353H6.46244V8.32645ZM6.46244 9.42482H5.66663V8.62863H6.46244V9.42482ZM7.59257 7.20906H6.79676V6.41287H7.59257V7.20906ZM7.59257 8.32645H6.79676V7.54353H7.59257V8.32645ZM7.59257 9.42482H6.79676V8.62863H7.59257V9.42482ZM8.54448 15.2402H10.9809V17.7455H8.54448V15.2402ZM9.9277 17.4693H10.7235V16.6731H9.9277V17.4693ZM9.9277 16.3386H10.7235V15.5424H9.9277V16.3386ZM8.79758 17.4693H9.59339V16.6731H8.79758V17.4693ZM8.79758 16.3386H9.59339V15.5424H8.79758V16.3386ZM8.54448 11.9166H10.9809V14.4219H8.54448V11.9166ZM9.9277 14.1456H10.7235V13.3494H9.9277V14.1456ZM9.9277 13.0149H10.7235V12.2188H9.9277V13.0149ZM8.79758 14.1456H9.59339V13.3494H8.79758V14.1456ZM8.79758 13.0149H9.59339V12.2188H8.79758V13.0149ZM10.9741 21.0897V22.1991H8.53772V21.0897V20.8001V18.5844H10.9741V21.0897ZM9.58663 18.8866H8.79082V19.6828H9.58663V18.8866ZM9.58663 20.0172H8.79082V20.8001H9.58663V20.0172ZM9.58663 21.1023H8.79082V21.8985H9.58663V21.1023ZM10.7168 18.8866H9.92095V19.6828H10.7168V18.8866ZM10.7168 20.0172H9.92095V20.8001H10.7168V20.0172ZM10.7168 21.1023H9.92095V21.8985H10.7168V21.1023ZM5.41316 15.3359H7.84956V17.8412H5.41316V15.3359ZM6.79638 17.5649H7.59219V16.7687H6.79638V17.5649ZM6.79638 16.4343H7.59219V15.638H6.79638V16.4343ZM5.66626 17.5649H6.46207V16.7687H5.66626V17.5649ZM5.66626 16.4343H6.46207V15.638H5.66626V16.4343ZM5.41316 11.9166H7.84956V14.4219H5.41316V11.9166ZM6.79638 14.1456H7.59219V13.3494H6.79638V14.1456ZM6.79638 13.0149H7.59219V12.2188H6.79638V13.0149ZM5.66626 14.1456H6.46207V13.3494H5.66626V14.1456ZM5.66626 13.0149H6.46207V12.2188H5.66626V13.0149ZM2.46024 15.2402H4.89664V17.7455H2.46024V15.2402ZM3.84346 17.4693H4.63927V16.6731H3.84346V17.4693ZM3.84346 16.3386H4.63927V15.5424H3.84346V16.3386ZM2.71333 17.4693H3.50915V16.6731H2.71333V17.4693ZM2.71333 16.3386H3.50915V15.5424H2.71333V16.3386ZM2.46024 11.9166H4.89664V14.4219H2.46024V11.9166ZM3.84346 14.1456H4.63927V13.3494H3.84346V14.1456ZM3.84346 13.0149H4.63927V12.2188H3.84346V13.0149ZM2.71333 14.1456H3.50915V13.3494H2.71333V14.1456ZM2.71333 13.0149H3.50915V12.2188H2.71333V13.0149ZM4.89048 21.0897V22.1991H2.45408V21.0897V20.8001V18.5844H4.89048V21.0897ZM3.50299 18.8866H2.70718V19.6828H3.50299V18.8866ZM3.50299 20.0172H2.70718V20.8001H3.50299V20.0172ZM3.50299 21.1023H2.70718V21.8985H3.50299V21.1023ZM4.63311 18.8866H3.83731V19.6828H4.63311V18.8866ZM4.63311 20.0172H3.83731V20.8001H4.63311V20.0172ZM4.63311 21.1023H3.83731V21.8985H4.63311V21.1023Z" fill="white" stroke="white" stroke-width="0.102564"/>
</svg>
