<svg xmlns="http://www.w3.org/2000/svg" data-name="Layer 1" viewBox="0 0 128 160" x="0px" y="0px"><defs><style>.cls-1,.cls-2{fill:none;stroke:#000;stroke-linejoin:round;stroke-width:4px;}.cls-2{stroke-linecap:round;}</style></defs><title>Artboard 32</title><line class="cls-1" x1="47" y1="43" x2="81" y2="43"/><polygon class="cls-1" points="84 29 44 29 48 19 80 19 84 29"/><line class="cls-1" x1="49" y1="43" x2="49" y2="29"/><line class="cls-1" x1="79" y1="41.5" x2="79" y2="29"/><polyline class="cls-1" points="60 42 60 35 68 35 68 42"/><line class="cls-1" x1="64" y1="20" x2="64" y2="28"/><line class="cls-1" x1="55" y1="20" x2="55" y2="28"/><line class="cls-1" x1="73" y1="20" x2="73" y2="28"/><line class="cls-2" x1="36" y1="66" x2="45" y2="66"/><circle class="cls-1" cx="100" cy="105" r="21"/><path class="cls-1" d="M47.56,109.29a21,21,0,1,1,0-8.61"/><line class="cls-2" x1="84.5" y1="77" x2="64.65" y2="102"/><polyline class="cls-2" points="51.5 66 43.5 66 55.5 101"/><line class="cls-2" x1="57.87" y1="109.4" x2="64.5" y2="121"/><line class="cls-2" x1="61.5" y1="122" x2="68.5" y2="122"/><path class="cls-2" d="M58,101l0,0H33a8,8,0,0,0-8,8H49.5A8,8,0,1,0,58,101Z"/><polyline class="cls-1" points="49.33 83 36 78 10 78"/><line class="cls-1" x1="24.63" y1="78" x2="33" y2="100"/><path class="cls-2" d="M88,78h15l-3.5,27c-6.5-5-13-25-13-25l-3-10L87,66V63H80"/><polyline class="cls-2" points="103 78 107 78 109 61 93 61 96 77"/><path class="cls-1" d="M92,30A28,28,0,1,0,57.49,57.23L64,67l6.51-9.77A28,28,0,0,0,92,30Z"/><text x="0" y="143" fill="#000000" font-size="5px" font-weight="bold" font-family="'Helvetica Neue', Helvetica, Arial-Unicode, Arial, Sans-serif">Created by Juraj Sedlák</text><text x="0" y="148" fill="#000000" font-size="5px" font-weight="bold" font-family="'Helvetica Neue', Helvetica, Arial-Unicode, Arial, Sans-serif">from the Noun Project</text></svg>