<svg width="90" height="90" viewBox="0 0 90 90" fill="none" xmlns="http://www.w3.org/2000/svg">
<path fill-rule="evenodd" clip-rule="evenodd" d="M10.9899 4.90565C11.1501 4.22606 12.2471 3.9882 12.6063 4.61925C12.8745 5.17083 12.9869 5.78512 12.9316 6.39591C13.1355 6.39591 13.3442 6.39591 13.5481 6.39591C13.9121 5.93961 13.9413 5.33768 14.1354 4.80857C14.2713 4.50761 14.6645 4.15325 14.9849 4.41052C15.1124 4.55056 15.2089 4.71587 15.2683 4.89567C15.3277 5.07548 15.3486 5.26578 15.3296 5.45418C15.3296 5.34739 15.3296 5.24545 15.3733 5.13866C15.4898 5.78913 15.6791 6.42989 15.7422 7.08035C15.7422 8.2211 15.8441 9.42495 15.3538 10.4783C15.2674 10.7245 15.0899 10.9281 14.8578 11.0473C14.6257 11.1665 14.3567 11.1922 14.1063 11.1191C13.7519 10.9977 13.6209 10.6045 13.5432 10.2793C13.3976 9.72782 13.3209 9.16039 13.3151 8.59002C13.15 8.56089 12.9898 8.54148 12.8296 8.52207C12.8353 9.17467 12.7686 9.82588 12.6306 10.4638C12.5719 10.6922 12.4296 10.8902 12.2318 11.0188C12.0341 11.1473 11.7953 11.197 11.5627 11.1579C11.3614 11.0399 11.1884 10.8792 11.0559 10.6872C10.9234 10.4951 10.8346 10.2764 10.7957 10.0463C10.3346 8.35217 10.587 6.56581 11.0093 4.89109L10.9899 4.90565ZM30.0331 4.83283C30.6059 4.34741 31.402 4.43478 32.0961 4.42993C33.3679 4.38138 34.6592 5.58524 34.4456 6.89589C34.4065 7.16927 34.3017 7.4291 34.1403 7.65314C33.9788 7.87717 33.7654 8.05873 33.5184 8.18226C33.931 8.86185 34.4893 9.52689 34.4893 10.3618C34.4623 10.5007 34.4035 10.6314 34.3176 10.7438C34.2317 10.8562 34.121 10.9472 33.9941 11.0097C33.8672 11.0722 33.7276 11.1046 33.5861 11.1042C33.4446 11.1038 33.3052 11.0707 33.1786 11.0074C32.5416 10.6564 31.9988 10.1568 31.5961 9.55116C31.6583 10.0807 31.5603 10.6167 31.3146 11.09C31.2467 11.1747 31.1617 11.2442 31.0652 11.2941C30.9687 11.3439 30.8629 11.373 30.7545 11.3794C30.646 11.3858 30.5375 11.3694 30.4358 11.3313C30.3341 11.2931 30.2416 11.234 30.1641 11.1579C29.9115 10.8883 29.7428 10.5509 29.6787 10.1871C29.4993 9.11893 29.465 8.03145 29.5768 6.95414C29.703 6.23086 29.4943 5.38622 30.0331 4.794L30.0331 4.83283ZM31.4068 6.28911C31.4068 6.44929 31.3486 6.6289 31.4408 6.77453C31.5864 7.1386 32.2515 6.97355 32.1835 6.57065C32.1156 6.16775 31.7078 6.24542 31.4262 6.30367L31.4068 6.28911ZM5.58226 4.63867C6.46679 4.40592 7.38641 4.33683 8.29578 4.43479C8.9553 4.48605 9.57884 4.75597 10.0676 5.20176C10.1896 5.33602 10.2715 5.50177 10.3041 5.68023C10.3368 5.85869 10.3187 6.04272 10.252 6.21144C10.0426 6.48746 9.76811 6.7073 9.453 6.8513C9.13789 6.9953 8.792 7.05899 8.44626 7.03667C8.20355 8.04635 8.3249 9.10943 8.04822 10.1094C7.93172 10.4929 7.689 10.9977 7.21329 10.954C7.05073 10.9496 6.89136 10.9078 6.74746 10.8321C6.60355 10.7564 6.47894 10.6486 6.38321 10.5172C6.03989 10.1094 5.85088 9.59392 5.84924 9.06088C5.80944 8.36114 5.85016 7.65915 5.97061 6.96871C5.37839 7.05607 4.74734 7.31336 4.17939 7.00268C4.08097 6.96343 3.99174 6.90421 3.91735 6.82876C3.84295 6.7533 3.785 6.66325 3.74715 6.56428C3.70929 6.46531 3.69235 6.35956 3.6974 6.25372C3.70246 6.14788 3.72938 6.04423 3.77649 5.94931C4.08231 5.21632 4.87355 4.88623 5.58227 4.65808L5.58226 4.63867ZM17.3926 4.7309C17.7907 4.42508 18.3198 4.54158 18.7858 4.51246C19.4848 4.54644 20.2421 4.42023 20.8683 4.79886C21.0273 4.87691 21.156 5.00549 21.2342 5.16447C21.3123 5.32345 21.3356 5.50387 21.3003 5.67748C21.2337 5.80749 21.1367 5.91951 21.0175 6.00402C20.8984 6.08853 20.7606 6.14303 20.6158 6.1629C19.9873 6.27047 19.3466 6.28844 18.713 6.21629C18.713 6.39104 18.713 6.56579 18.7518 6.74055C19.2809 6.86675 19.946 6.92016 20.2566 7.43956C20.3075 7.53096 20.3381 7.63217 20.3466 7.7364C20.355 7.84062 20.3411 7.94546 20.3057 8.04385C20.2703 8.14225 20.2142 8.23193 20.1413 8.30687C20.0684 8.38182 19.9803 8.44029 19.8829 8.47837C19.4352 8.6378 18.9573 8.69421 18.4848 8.64341C18.5188 8.83273 18.4848 9.07544 18.7373 9.12884C19.4539 9.13586 20.1662 9.24204 20.8537 9.44436C20.9904 9.50366 21.1089 9.59829 21.197 9.71851C21.2851 9.83874 21.3396 9.98024 21.3549 10.1285C21.3702 10.2767 21.3458 10.4264 21.2842 10.5621C21.2225 10.6978 21.1259 10.8146 21.0042 10.9006C20.2177 11.2984 19.3293 11.449 18.4557 11.3327C18.109 11.3005 17.7726 11.1978 17.4671 11.0309C17.1615 10.8639 16.8934 10.6362 16.6791 10.3618C16.4947 10.0841 16.3798 9.7661 16.3441 9.43465C16.281 8.10459 16.2665 6.72599 16.8295 5.4833C16.9458 5.16889 17.1476 4.89318 17.4121 4.68721L17.3926 4.7309ZM35.9164 4.64351C36.0562 4.59142 36.206 4.57224 36.3544 4.58744C36.5028 4.60263 36.6457 4.65181 36.772 4.73115C36.8982 4.8105 37.0046 4.91787 37.0826 5.04494C37.1607 5.17201 37.2085 5.31537 37.2222 5.46388C37.2756 6.65317 37.2222 7.84731 37.2222 9.0366C37.1737 9.63853 37.2222 10.3181 36.795 10.8084C36.7048 10.9507 36.5665 11.0559 36.4053 11.1049C36.244 11.1539 36.0706 11.1434 35.9164 11.0754C35.6753 10.9375 35.4786 10.7336 35.3496 10.4876C35.2206 10.2416 35.1646 9.96383 35.1883 9.68707C35.147 8.31869 35.1859 6.94907 35.3048 5.58524C35.3158 5.38609 35.3802 5.19358 35.4912 5.02789C35.6023 4.8622 35.7558 4.72943 35.9358 4.64351H35.9164ZM26.0672 4.73574C26.5526 4.66293 26.9312 4.95418 27.3487 5.11437C27.9644 5.34311 28.48 5.78134 28.805 6.35221C29.14 7.05087 29.2437 7.83811 29.1011 8.59972C29.0219 9.01276 28.8495 9.40231 28.5972 9.73877C28.3449 10.0752 28.0191 10.3497 27.6448 10.5414C27.1257 10.7615 26.5529 10.8223 25.9992 10.7162C25.5749 10.6335 25.1734 10.4607 24.8216 10.2095C24.4699 9.95825 24.1762 9.63442 23.9604 9.2599C23.7482 8.76819 23.649 8.23517 23.67 7.70004C23.691 7.16492 23.8317 6.64131 24.0818 6.16774C24.2705 5.79117 24.5441 5.4636 24.8811 5.21087C25.218 4.95815 25.6091 4.78718 26.0235 4.71147L26.0672 4.73574ZM25.8584 7.64829C25.8293 8.02206 26.1788 8.2405 26.4652 8.38613C26.6351 8.26477 26.8827 8.19682 26.9506 7.96867C27.004 7.63372 26.7565 7.2017 26.3778 7.24539C26.3178 7.22945 26.2549 7.22777 26.1941 7.2405C26.1333 7.25323 26.0763 7.28 26.0278 7.31869C25.9792 7.35737 25.9403 7.40689 25.9143 7.46328C25.8882 7.51966 25.8758 7.58136 25.8778 7.64343L25.8584 7.64829ZM43.7172 4.76972C43.8317 4.69582 43.9635 4.65312 44.0995 4.64587C44.2356 4.63863 44.3712 4.66708 44.4929 4.72841C44.6145 4.78973 44.7181 4.88181 44.7932 4.99549C44.8683 5.10918 44.9124 5.24052 44.921 5.3765C44.9453 6.83277 44.9453 8.34244 44.8919 9.82784C44.8337 10.1531 44.7706 10.5754 44.4065 10.7016C43.6589 10.9443 43.1541 10.0269 43.1638 9.38611C43.1347 8.20652 43.2221 7.02694 43.2949 5.84736C43.2843 5.44768 43.4327 5.06013 43.7075 4.76972H43.7172ZM46.0327 4.9105C46.8773 4.69691 47.6734 5.1969 48.2219 5.80368C48.5908 6.12406 48.7559 6.60948 49.1103 6.94442C49.1782 6.31823 49.0035 5.60951 49.4161 5.06583C49.552 4.79885 49.9015 4.89592 50.1248 4.87652C50.4288 5.29604 50.6284 5.78192 50.7073 6.29396C50.8763 7.3138 50.9365 8.3487 50.8869 9.38125C50.9107 9.84814 50.7699 10.3086 50.4889 10.6822C50.3848 10.766 50.2621 10.8234 50.1311 10.8496C50.0001 10.8758 49.8647 10.87 49.7365 10.8327C49.2262 10.6016 48.7748 10.2581 48.4161 9.82784C48.0957 9.52203 47.9841 9.06087 47.6394 8.77447C47.5763 9.38611 47.6977 10.0511 47.3919 10.6191C47.2979 10.7447 47.1626 10.8331 47.0098 10.8686C46.8571 10.9042 46.6966 10.8846 46.5569 10.8133C46.3355 10.6731 46.1546 10.4775 46.032 10.2459C45.9094 10.0144 45.8494 9.75479 45.8579 9.4929C45.8579 8.37157 45.8579 7.25509 45.8579 6.13376C45.8357 5.7153 45.9019 5.29685 46.0521 4.90564L46.0327 4.9105ZM38.4261 5.99785C38.5844 5.72363 38.7983 5.48555 39.0541 5.29888C39.3099 5.11221 39.6019 4.98107 39.9113 4.91387C40.2208 4.84668 40.5408 4.84493 40.851 4.90871C41.1612 4.9725 41.4546 5.10042 41.7124 5.28427C41.9026 5.4341 42.0299 5.6496 42.0695 5.88849C42.109 6.12737 42.0578 6.3724 41.926 6.5755C41.5085 7.06093 40.7852 6.83763 40.2415 7.0318C39.494 7.31335 39.4988 8.60943 40.3144 8.79875L40.5474 8.66283C40.3823 8.50749 40.1493 8.36187 40.227 8.09974C40.227 7.61432 40.7707 7.41529 41.1978 7.45898C41.4703 7.42624 41.7463 7.47925 41.9873 7.61062C42.2283 7.74198 42.4223 7.94519 42.5425 8.19197C42.7172 9.07059 42.5425 10.1337 41.7172 10.6531C41.1978 10.9266 40.5967 11.0026 40.0255 10.867C39.4542 10.7313 38.9515 10.3932 38.6105 9.91522C38.2276 9.33849 38.0106 8.6676 37.9832 7.97588C37.9559 7.28416 38.1191 6.59821 38.4552 5.993L38.4261 5.99785ZM52.0665 5.89105C52.1644 5.67947 52.3071 5.49173 52.4848 5.34085C52.6625 5.18996 52.8709 5.07956 53.0956 5.01729C53.4718 4.90222 53.8695 4.87565 54.2577 4.93965C54.6459 5.00364 55.014 5.15647 55.3334 5.38621C56.2169 6.03668 56.5324 7.15801 56.6926 8.19196C56.7217 8.80845 56.7411 9.42494 56.6926 10.0414C56.6851 10.2253 56.6285 10.4038 56.5286 10.5583C56.4287 10.7128 56.2892 10.8377 56.1246 10.92C55.8042 10.9686 55.3965 11.0317 55.1538 10.7453C54.6781 10.2987 54.6781 9.56086 54.5616 8.95893C54.3085 8.97969 54.0581 9.02522 53.814 9.09485C53.6975 9.4929 53.6053 9.89579 53.4742 10.2938C53.4285 10.4002 53.3589 10.4945 53.2708 10.5695C53.1827 10.6446 53.0784 10.6983 52.9662 10.7265C52.8539 10.7546 52.7367 10.7565 52.6236 10.732C52.5105 10.7075 52.4045 10.6572 52.314 10.5851C51.9506 10.2741 51.7097 9.84391 51.6345 9.37154C51.4196 8.19106 51.5774 6.97298 52.0859 5.88619L52.0665 5.89105ZM53.6538 6.99782C53.6538 7.2114 53.581 7.48324 53.8237 7.61431C53.938 7.63304 54.0552 7.62286 54.1646 7.58471C54.274 7.54655 54.372 7.48164 54.4499 7.39587C54.4208 7.21141 54.4887 6.97355 54.3285 6.83763C54.1926 6.59492 53.6441 6.64831 53.6732 6.99297L53.6538 6.99782ZM57.5081 5.36194C57.7362 4.87651 58.411 4.96389 58.8333 5.13379C59.0547 5.21506 59.2432 5.36705 59.3696 5.56624C59.496 5.76544 59.5531 6.00073 59.5323 6.2357C59.5906 6.83763 59.3381 7.41043 59.3964 8.0075L59.4886 8.04634C60.1439 8.30362 60.9012 8.10459 61.5128 8.50264C61.6242 8.57981 61.7172 8.68071 61.7849 8.79807C61.8527 8.91543 61.8936 9.04635 61.9048 9.18142C61.9159 9.31648 61.897 9.45233 61.8494 9.57921C61.8017 9.70609 61.7266 9.82085 61.6293 9.91523C60.5222 10.525 59.2268 10.6982 57.9984 10.4007C57.8217 10.3198 57.6689 10.1946 57.5549 10.0372C57.441 9.87988 57.3696 9.6957 57.3479 9.50262C57.2362 8.58207 57.2362 7.65139 57.3479 6.73084C57.3415 6.27306 57.402 5.8168 57.5275 5.37651L57.5081 5.36194Z" fill="black"/>
<path fill-rule="evenodd" clip-rule="evenodd" d="M48.3681 15.1482C49.0164 15.1582 49.6608 15.2512 50.2855 15.4249C50.538 15.4977 50.9069 15.4637 51.0088 15.7647C52.6269 20.2598 54.2822 24.7403 55.9748 29.2062C57.4311 33.0897 58.8873 36.9731 60.3436 40.8323C61.2514 43.2109 62.164 45.5944 63.0329 47.9875C63.2611 48.6283 63.5183 49.2594 63.6882 49.9292C61.9892 49.9972 60.2902 49.9292 58.5767 49.9292C56.4553 50.036 54.3243 49.9584 52.1981 50.0069C51.6593 50.0458 51.1156 50.0797 50.5768 50.07C49.7564 50.07 48.9409 50.1186 48.1254 50.036C48.1254 49.0652 48.1497 48.0943 48.0962 47.1235C48.0477 46.3662 48.1399 45.6089 48.0962 44.8516C48.0444 44.556 47.9116 44.2804 47.7128 44.0555C47.3972 43.6235 47.2273 43.0847 46.9264 42.6575C46.7427 43.0752 46.6804 43.5362 46.7468 43.9876C46.7196 44.9591 46.7455 45.9314 46.8244 46.9002C46.8827 47.7642 46.8244 48.6331 46.8535 49.5021C46.8535 49.7108 46.8875 50.1234 46.5671 50.0894C45.3487 50.138 44.14 50.0312 42.907 50.1914C39.8488 50.2448 36.7809 50.1671 33.7178 50.269C32.3246 50.2302 30.9314 50.3564 29.5383 50.269C29.1406 50.317 28.7378 50.3039 28.3441 50.2302C28.2464 49.9123 28.2246 49.5759 28.2802 49.248C28.3358 48.9201 28.4674 48.6098 28.6645 48.3419C29.3538 47.4147 29.8829 46.4002 30.4946 45.4293C32.7469 41.6672 35.0624 37.9391 37.3197 34.1819C39.4588 30.6221 41.5785 27.0461 43.6788 23.4539C45.2225 20.9151 46.5429 18.2549 48.004 15.687C48.1021 15.4987 48.2245 15.3241 48.3681 15.1676L48.3681 15.1482ZM45.4555 21.8374V22.119H45.9409C45.9409 22.051 45.9409 21.9151 45.9409 21.8471L45.4555 21.8374ZM46.6108 31.0994C46.5768 31.8955 46.3924 32.7062 46.6108 33.4926C46.7853 34.0316 47.125 34.502 47.5817 34.8372C48.0378 35.2723 48.5826 35.6035 49.1787 35.8081C49.1787 35.2693 49.0962 34.7401 49.0671 34.2062C49.515 34.333 49.9815 34.3806 50.4457 34.3469C50.1855 33.5004 49.6892 32.7457 49.0151 32.1713C48.341 31.597 47.5171 31.2268 46.64 31.1043L46.6108 31.0994ZM43.4944 35.5751C42.9311 35.9863 42.4777 36.5298 42.174 37.1576C42.6993 37.286 43.2409 37.3351 43.7808 37.3032C43.3807 37.862 43.1683 38.5334 43.174 39.2207C43.7883 39.1837 44.3866 39.0097 44.925 38.7115C45.4634 38.4133 45.9283 37.9985 46.2856 37.4974C46.771 36.8663 46.771 36.0411 46.805 35.2547C46.8487 34.9634 46.4798 35.0362 46.3196 34.9926C45.3487 34.9926 44.2953 34.9392 43.5138 35.5751L43.4944 35.5751ZM55.7175 36.3615L56.1544 36.7595L56.5913 36.3906L55.7175 36.3615ZM47.3535 36.3906C47.2633 36.964 47.3037 37.5504 47.4718 38.106C47.64 38.6616 47.9314 39.1721 48.3244 39.5993C49.1674 40.2839 50.2352 40.63 51.3195 40.5701C51.1629 39.9172 50.7983 39.3328 50.2807 38.9051C50.9748 38.8469 51.737 39.0605 52.3777 38.7158C52.0246 38.2714 51.6331 37.8588 51.2078 37.4828C50.0772 36.6991 48.7175 36.3147 47.3438 36.3906L47.3535 36.3906ZM45.3439 39.4051C44.825 39.4472 44.321 39.5987 43.865 39.8497C43.409 40.1008 43.0113 40.4456 42.6983 40.8614C42.227 41.4916 41.9995 42.2708 42.0575 43.0555C42.7686 42.9055 43.4539 42.652 44.0914 42.3031C44.0932 42.8388 44.1288 43.3739 44.1982 43.9051C44.8586 43.6625 45.4763 43.3168 46.0283 42.8808C46.8341 42.1138 46.9992 40.9391 47.2807 39.9197C47.3183 39.7826 47.3027 39.6363 47.237 39.5103C47.1713 39.3842 47.0603 39.2877 46.9264 39.2401C46.3947 39.2581 45.8654 39.3198 45.3439 39.4245V39.4051ZM47.8293 40.4294C47.6836 40.9931 47.6311 41.5768 47.6739 42.1575C47.7662 42.9908 48.1556 43.7629 48.771 44.3322C49.5383 44.9702 50.4886 45.3476 51.4845 45.4099C51.3569 44.7258 51.091 44.075 50.703 43.4973C51.3849 43.6387 52.0861 43.6617 52.7758 43.5652C52.4963 43.1318 52.1708 42.7297 51.8049 42.3662C51.4441 41.9253 51.0005 41.5592 50.4991 41.2886C49.6436 40.8915 48.7418 40.6028 47.8147 40.4294L47.8293 40.4294ZM41.2274 44.5555C41.2924 44.6406 41.3493 44.7316 41.3973 44.8274C41.6012 44.74 41.8148 44.6623 42.0235 44.5847V44.3322C41.7384 44.3449 41.4598 44.4212 41.208 44.5555H41.2274ZM12.6744 16.0026C14.6728 15.5481 16.7263 15.3846 18.7714 15.5171C19.9997 15.6635 21.2186 15.8806 22.4219 16.1676C22.8798 16.2723 23.3176 16.451 23.718 16.6967C24.6888 17.2404 25.8393 17.3666 26.7907 17.9491C27.7422 18.5316 28.7664 19.2112 29.7033 19.8908C30.1422 20.275 30.4763 20.7644 30.6742 21.3132C31.1596 22.284 31.5673 23.2986 32.0334 24.2791C32.3033 24.8312 32.468 25.4288 32.5188 26.0412L32.0334 25.9733L32.1693 26.1772C32.3175 26.1732 32.4657 26.1862 32.611 26.216C33.1655 28.4252 33.4636 30.6909 33.4994 32.9683C33.568 33.5741 33.5907 34.1843 33.5673 34.7935C33.4411 35.5945 33.5673 36.4197 33.3489 37.2207C32.8634 39.1139 31.7081 40.7206 30.7567 42.4002C30.4411 42.939 29.8683 43.24 29.4315 43.6721C27.5435 45.3201 25.45 46.7168 23.2034 47.8273C22.4046 48.1579 21.5656 48.3815 20.7083 48.4924C20.3087 48.6245 19.8913 48.6949 19.4704 48.7011C18.1743 48.5506 16.8588 48.5506 15.587 48.3662C12.2201 47.5891 9.15711 45.8364 6.78129 43.3274C5.65045 42.1972 4.73865 40.8673 4.09201 39.4051C3.02241 36.9695 2.47347 34.3372 2.48038 31.6771C2.58666 29.205 3.078 26.7647 3.93667 24.4442C4.28549 23.411 4.73761 22.4157 5.28617 21.4733C5.7716 20.6578 6.31528 19.8957 6.81527 19.1044C7.11336 18.6456 7.5291 18.2751 8.01914 18.0316C9.49472 17.1656 11.0735 16.4888 12.7181 16.0171L12.6744 16.0026ZM19.5481 22.1238C19.4992 22.3721 19.5194 22.6289 19.6064 22.8665H19.7568C19.9898 22.6141 19.7568 22.2986 19.5481 22.1335L19.5481 22.1238ZM23.4947 22.1481C23.5698 22.417 23.6896 22.6714 23.849 22.9005L24.2374 22.7064C24.2713 22.585 24.3005 22.4636 24.3345 22.3423C24.0401 22.3834 23.741 22.3143 23.4947 22.1481ZM25.2373 23.0025L25.0917 23.4345C25.349 23.5025 25.6063 23.5704 25.8636 23.6287C25.7008 23.3786 25.4874 23.1653 25.2373 23.0025ZM7.4609 26.1044H7.84439C7.79585 25.8859 7.74246 25.6675 7.68905 25.4539C7.60528 25.5387 7.54136 25.641 7.50191 25.7535C7.46246 25.866 7.44845 25.9858 7.4609 26.1044ZM30.0577 25.9927C30.4736 26.3119 30.9906 26.4704 31.514 26.4393V26.1044C31.0316 26.0347 30.545 25.9974 30.0577 25.9927ZM29.3635 28.182C29.2033 28.4296 29.0431 28.6674 28.8781 28.9247H29.2713C29.4046 28.7532 29.5095 28.5615 29.5819 28.3568L29.3635 28.1771V28.182ZM30.4072 28.3422C30.4072 28.4102 30.4072 28.5364 30.4072 28.6043H30.6645C30.6645 28.5412 30.6645 28.4102 30.6645 28.3471L30.4072 28.3422ZM27.0092 29.4975C27.176 29.4544 27.3385 29.3959 27.4946 29.3228C27.5558 29.1641 27.6076 29.002 27.6499 28.8373C27.4905 28.8778 27.3461 28.9635 27.2342 29.0841C27.1222 29.2046 27.0475 29.3549 27.0189 29.5169L27.0092 29.4975ZM26.4898 29.0412C26.4898 29.2791 26.4898 29.5267 26.4898 29.7451C26.5771 29.6868 26.6596 29.6189 26.7422 29.5558C26.6901 29.3712 26.6063 29.1971 26.4946 29.0412H26.4898ZM29.9703 29.415C29.9703 29.5412 29.9703 29.6674 29.9703 29.7888H30.2421C30.2421 29.682 30.2082 29.5752 30.1936 29.4732L29.9703 29.415ZM29.8781 30.9732C30.0328 31.1833 30.1329 31.4285 30.1693 31.6868C30.3558 31.3961 30.4613 31.061 30.4751 30.716C30.281 30.7985 30.0819 30.8907 29.8829 30.9732H29.8781ZM81.7657 16.2259C82.9452 16.2259 84.12 16.0171 85.2996 16.0802C85.2996 17.5365 85.2996 18.9685 85.2996 20.4151C85.2996 21.3277 85.4598 22.2355 85.3821 23.153C85.2025 22.9675 85.049 22.7585 84.9258 22.5316L84.7122 22.4928C84.8465 24.258 84.8838 26.0292 84.8239 27.7985C83.853 27.9102 82.8579 27.8762 81.8724 27.9684C80.7171 28.0849 79.5521 27.9684 78.3968 28.1043C77.7706 28.1723 77.1346 28.1334 76.5036 28.1577C76.5036 28.8616 76.6492 29.5606 76.6152 30.2645C76.5841 30.5647 76.4735 30.8513 76.2948 31.0946C76.3994 31.1723 76.4832 31.2744 76.5391 31.3921C76.5949 31.5097 76.6211 31.6392 76.6152 31.7693C76.4065 33.4198 76.5812 35.0945 76.4793 36.7498C76.4017 37.3663 76.5618 37.978 76.4793 38.5896C76.3863 39.7408 76.3539 40.8961 76.3822 42.0507C76.3442 43.4204 76.3766 44.7911 76.4793 46.1575C76.5958 47.5215 76.358 48.8807 76.3482 50.2448C73.324 50.2448 70.2949 50.2157 67.2659 50.2448C67.2068 49.4631 67.189 48.6789 67.2125 47.8953C67.2125 46.8177 67.2125 45.7303 67.2125 44.6526C67.3241 43.2886 67.2368 41.9245 67.3047 40.5605C67.4406 39.5896 67.3629 38.6187 67.4697 37.6188C67.5862 35.0945 67.6154 32.5654 67.5328 30.0412C67.4843 29.1237 67.4018 28.2111 67.3921 27.2888C63.9115 27.2888 60.431 27.1577 56.9505 27.0995C56.7806 24.8811 56.8388 22.6481 56.7903 20.4248C56.6876 19.2304 56.66 18.0306 56.7078 16.8327C57.5184 16.7793 58.334 16.8327 59.1349 16.7404C59.9359 16.6482 60.6301 16.7404 61.3776 16.6773C62.5669 16.5511 63.7659 16.5657 64.9601 16.4734C66.0426 16.5074 67.1154 16.323 68.1979 16.3569C69.2804 16.3909 70.2901 16.3569 71.3386 16.3569C71.9163 16.3569 72.4842 16.2453 73.0668 16.2501C75.9502 16.2501 78.8385 16.2501 81.722 16.2501L81.7657 16.2259ZM73.9988 16.8763C73.9988 17.0219 74.0231 17.1676 74.0425 17.3181L74.2803 17.3521C74.324 17.1919 74.3628 17.0317 74.4065 16.8666L73.9988 16.8763ZM74.5327 16.8763C74.6153 16.9977 74.6929 17.1239 74.7706 17.2453H75.0327C75.0327 17.1239 75.0327 16.9977 75.0327 16.8763H74.5473H74.5327ZM66.7659 23.3665C66.852 23.2722 66.933 23.1734 67.0086 23.0704C66.9154 22.9278 66.8149 22.7901 66.7076 22.6578C66.6367 22.7625 66.6021 22.8876 66.6091 23.0139C66.6161 23.1401 66.6643 23.2606 66.7464 23.3568L66.7659 23.3665Z" fill="#A1C9D6"/>
<path fill-rule="evenodd" clip-rule="evenodd" d="M44.0521 54.084C43.9987 54.2685 44.0521 54.3316 44.2269 54.2685C44.2803 54.0889 44.2221 54.0258 44.0521 54.084Z" fill="black"/>
<path fill-rule="evenodd" clip-rule="evenodd" d="M59.809 54.4772C59.6682 54.5695 59.809 54.8462 59.9595 54.72C60.1099 54.5937 59.9547 54.3607 59.809 54.4772Z" fill="black"/>
<path fill-rule="evenodd" clip-rule="evenodd" d="M38.4261 54.885C38.3088 55.0849 38.2019 55.2907 38.1057 55.5015C38.3193 55.3608 38.528 55.2151 38.7367 55.0647C38.6591 54.9918 38.562 54.8608 38.4261 54.885Z" fill="black"/>
<path fill-rule="evenodd" clip-rule="evenodd" d="M39.2076 57.5887C39.062 57.6907 39.2319 57.9285 39.3726 57.8217C39.5134 57.7149 39.3483 57.4771 39.2076 57.5887Z" fill="black"/>
<path fill-rule="evenodd" clip-rule="evenodd" d="M57.3673 60.5887C57.2459 60.7391 57.4935 60.9479 57.61 60.778C57.7265 60.6081 57.4741 60.4139 57.3673 60.5887Z" fill="black"/>
<path fill-rule="evenodd" clip-rule="evenodd" d="M37.4261 81.1999C37.3727 81.3503 37.4261 81.4038 37.5766 81.3503C37.6251 81.1999 37.5718 81.1464 37.4261 81.1999Z" fill="black"/>
<path fill-rule="evenodd" clip-rule="evenodd" d="M74.7843 72.6951C74.896 72.9281 74.9639 73.2096 75.2115 73.3358C75.2504 73.0251 75.0125 72.8504 74.7843 72.6951Z" fill="black"/>
<path fill-rule="evenodd" clip-rule="evenodd" d="M44.0521 54.084C44.222 54.0256 44.2803 54.084 44.2269 54.2684C44.057 54.3316 43.9987 54.2684 44.0521 54.084Z" fill="#A1C9D6"/>
<path fill-rule="evenodd" clip-rule="evenodd" d="M59.809 54.4773C59.9546 54.3608 60.0808 54.623 59.9595 54.72C59.8381 54.817 59.6682 54.5696 59.809 54.4773Z" fill="#A1C9D6"/>
<path fill-rule="evenodd" clip-rule="evenodd" d="M76.9153 73.3601C76.9153 72.4766 77.0998 71.6028 77.095 70.7145C76.8368 70.563 76.5484 70.4702 76.2503 70.4427L76.7357 69.9913C76.7357 70.1611 76.7357 70.3262 76.7357 70.4767H77.2212C77.3037 69.5058 77.3862 68.535 77.527 67.5641C77.6338 66.268 77.3522 64.9914 77.26 63.705C77.1629 63.2536 77.3134 62.7342 76.9979 62.3604C77.2649 61.6371 76.9105 60.8604 76.9105 60.1226C76.9349 59.5155 76.9008 58.9076 76.8085 58.3071C76.807 57.7875 76.7713 57.2686 76.7018 56.7537C76.6095 55.1227 76.6289 53.4868 76.4396 51.8655C75.7408 51.8689 75.0423 51.8332 74.3475 51.7587C72.8669 51.7587 71.3912 51.6228 69.9107 51.6131C68.8476 51.4869 67.7797 51.5451 66.7117 51.4966C66.5661 53.0305 66.7117 54.5839 66.5176 56.1178C66.5176 57.0207 66.5176 57.9236 66.4933 58.8313C66.3428 60.1129 66.4059 61.4089 66.3574 62.7147C66.2894 65.069 66.1826 67.4185 66.1632 69.7728C66.0605 71.0743 66.0232 72.3801 66.0516 73.6853C66.5403 73.7827 67.039 73.8218 67.5369 73.8018C68.4398 73.8018 69.333 73.9475 70.2408 73.9328C70.964 73.9328 71.697 74.0638 72.4009 74.0638C73.8572 74.0638 75.3134 74.292 76.8085 74.2434H76.9008C76.9008 73.9425 76.9396 73.6464 76.959 73.3502L76.9153 73.3601ZM77.2454 66.7243C77.3716 66.6951 77.4105 66.8651 77.3619 66.9622C77.3493 66.9845 77.3309 67.003 77.3085 67.0156C77.1726 67.0447 77.1387 66.8409 77.2115 66.7535C77.2202 66.7411 77.2319 66.7311 77.2454 66.7243ZM67.7068 60.2051C67.7116 60.2421 67.7116 60.2796 67.7068 60.3166C67.6977 60.3513 67.6864 60.3854 67.6729 60.4186C67.6397 60.4875 67.5908 60.5476 67.5301 60.594C67.4694 60.6404 67.3985 60.6718 67.3234 60.6856C67.3525 60.5255 67.3865 60.3701 67.4253 60.2002H67.7214L67.7068 60.2051ZM68.1146 59.0741C68.1186 59.0411 68.1302 59.0095 68.1486 58.9818C68.2408 58.9818 68.2748 59.0109 68.2797 59.0352C68.2844 59.0594 68.1 59.1856 68.1146 59.0741ZM68.1146 57.3459C68.1146 57.2634 68.1146 57.176 68.1146 57.0887C68.126 56.9961 68.1181 56.9021 68.0914 56.8127C68.0647 56.7233 68.0197 56.6404 67.9593 56.5693C68.1146 56.71 68.2991 56.8217 68.4447 56.9819C68.3525 57.1323 68.236 57.2246 68.1243 57.3459H68.1146ZM69.6243 59.5886H69.401H69.3379C69.3379 59.54 69.3864 59.4479 69.4058 59.3993L69.6097 59.3265C69.6097 59.3993 69.6097 59.54 69.6097 59.608L69.6243 59.5886ZM70.3621 62.9866C70.1922 63.0836 70.0272 63.1807 69.8524 63.2633C69.833 63.1079 69.8184 62.9461 69.8087 62.7778C69.9884 62.8457 70.1728 62.9138 70.3621 62.9672V62.9866ZM73.6727 55.2198L73.3863 54.7052L73.7164 54.8023C73.7067 54.9091 73.6921 55.0498 73.6824 55.1906L73.6727 55.2198ZM74.5805 64.4137C74.5805 64.4963 74.5805 64.6467 74.5805 64.7244C74.4737 64.6321 74.3766 64.5399 74.2795 64.4429L74.5805 64.4137Z" fill="black"/>
<path fill-rule="evenodd" clip-rule="evenodd" d="M74.7843 72.6951C75.0125 72.8505 75.2698 73.0251 75.2115 73.3358C74.9639 73.2096 74.896 72.9281 74.7843 72.6951Z" fill="#A1C9D6"/>
<path fill-rule="evenodd" clip-rule="evenodd" d="M37.4261 81.1999C37.5717 81.1465 37.6251 81.1999 37.5766 81.3503C37.4212 81.4037 37.3727 81.3503 37.4261 81.1999Z" fill="#A1C9D6"/>
<path fill-rule="evenodd" clip-rule="evenodd" d="M59.4255 60.4092C60.4692 58.3218 61.5662 56.2588 62.5468 54.1424C59.4255 54.1034 56.3042 54.1424 53.1829 54.1424C52.7364 55.0064 52.2898 55.8753 51.916 56.7782C51.0082 58.9044 50.0228 60.9917 49.1442 63.1276H48.9646C48.89 62.7077 48.7133 62.3126 48.4501 61.9771C48.1151 61.414 47.9355 60.783 47.6006 60.2199C47.4545 60.0134 47.3247 59.7959 47.2122 59.5694C46.9889 58.9869 46.6103 58.482 46.3385 57.9287C45.3676 55.8365 44.2705 53.8171 43.2949 51.7346C43.1547 51.3708 42.9926 51.0158 42.8094 50.6716C42.0279 50.6036 41.2415 50.6716 40.46 50.6716C39.5217 50.6569 38.5833 50.6958 37.6494 50.7881L35.7465 50.822C35.6494 51.5842 35.4164 52.4434 35.8582 53.1424C36.8031 55.2297 37.7416 57.3219 38.6736 59.4189L39.0086 59.2732L39.3629 59.5888C39.1445 59.5888 38.9309 59.5596 38.7173 59.5354C39.6493 61.6567 40.5571 63.7828 41.4697 65.909C42.1881 67.6031 42.9259 69.307 43.5958 71.0108C43.955 72.1758 43.8385 73.4379 44.0181 74.6175C44.1152 76.3262 44.2269 78.0155 44.2851 79.7436C44.4453 80.7144 44.2851 81.6853 44.455 82.6561C44.4987 83.6852 44.5084 84.7143 44.5084 85.7483C47.7365 85.7483 50.9645 85.7483 54.1926 85.7483C54.2411 85.1075 54.1052 84.4813 54.1392 83.8454C54.1392 82.3892 54.0907 80.962 54.081 79.5203C53.9839 78.763 54.0567 78.0009 54.013 77.2436C54.013 75.7291 53.9968 74.2146 53.9645 72.7001C53.8926 72.1661 53.8715 71.6265 53.9014 71.0885C55.7508 67.5206 57.5906 63.9673 59.4255 60.4092ZM57.3673 60.5888C57.4741 60.4139 57.7217 60.6277 57.61 60.7781C57.4984 60.9285 57.2459 60.7392 57.3673 60.5888ZM38.1057 55.5015C38.2019 55.2907 38.3088 55.0849 38.426 54.885C38.562 54.8608 38.6396 54.9918 38.7367 55.0647C38.528 55.2151 38.3193 55.3608 38.1057 55.5015ZM39.3726 57.8219C39.2318 57.9286 39.062 57.6909 39.2076 57.5889C39.3532 57.4868 39.5183 57.7199 39.3726 57.8219ZM43.4502 62.613C43.4502 62.7392 43.4211 62.8654 43.4016 62.9916H43.0327C43.1402 62.8344 43.2833 62.7047 43.4502 62.613ZM43.7706 64.1324H43.4016C43.4016 64.0548 43.4016 63.8897 43.4016 63.8072L43.7512 63.875C43.7512 63.9382 43.7512 64.0741 43.7754 64.142L43.7706 64.1324ZM46.8627 61.0645H47.0472H47.1151V61.4188H46.7559C46.7802 61.2829 46.819 61.1713 46.8627 61.0645ZM45.523 64.278C45.6036 64.4676 45.7011 64.6495 45.8142 64.8217C45.7899 64.8217 45.7463 64.8897 45.7268 64.909L45.5229 65.4333C45.3353 65.3241 45.1822 65.1643 45.0812 64.9721L44.9696 64.8993C45.2105 64.7504 45.4028 64.5345 45.523 64.278ZM44.0667 58.3753C44.0667 58.2732 44.0958 58.1714 44.1152 58.0694C44.199 58.0034 44.2785 57.9321 44.3531 57.8558C44.4208 57.7945 44.4748 57.7195 44.5116 57.6359C44.5484 57.5522 44.5672 57.4618 44.5667 57.3704L44.7705 57.3946C44.8649 57.6269 44.9752 57.8524 45.1006 58.0694C45.007 58.0599 44.9127 58.0599 44.8191 58.0694C44.7419 58.0708 44.6652 58.0822 44.5909 58.1033H44.5133L44.3676 58.1664C44.253 58.2179 44.1479 58.2885 44.057 58.3752L44.0667 58.3753ZM44.3676 72.6224V72.2875L44.5909 72.3167C44.5909 72.375 44.5909 72.4913 44.5909 72.5497L44.3676 72.6224ZM45.3967 66.1809C45.2072 66.2368 45.0116 66.2694 44.8142 66.2779C44.688 66.1372 44.5812 65.9867 44.4647 65.8459C44.6794 65.824 44.8921 65.7851 45.1006 65.7294L45.4016 65.9187C45.3919 65.9866 45.3871 66.1177 45.3871 66.1809L45.3967 66.1809ZM45.7317 70.6128H45.455C45.4568 70.5885 45.4568 70.5642 45.455 70.5399V70.409C45.455 70.3603 45.455 70.3167 45.455 70.2875H45.5521H45.6492H45.7463C45.7463 70.3651 45.7463 70.506 45.7463 70.5788L45.7317 70.6128ZM45.9404 68.9041C45.9456 68.9199 45.9456 68.9369 45.9404 68.9527C45.9293 68.9704 45.9133 68.9844 45.8943 68.993C45.8753 69.0016 45.8542 69.0045 45.8336 69.0013H45.8093H45.7657C45.7539 68.992 45.7443 68.9803 45.7376 68.9669C45.7309 68.9535 45.7272 68.9387 45.7268 68.9237C45.7261 68.8973 45.7347 68.8715 45.7511 68.8509C45.76 68.8345 45.7735 68.8209 45.7899 68.812C45.8211 68.7996 45.8559 68.7996 45.887 68.812L45.9453 68.8556C45.9584 68.8744 45.9667 68.8961 45.9696 68.9188C45.9583 68.9178 45.9479 68.9126 45.9404 68.9041ZM45.9647 63.2101C45.9307 63.2101 45.9016 63.2101 45.8967 63.0838C46.1055 62.9576 46.0278 63.1809 45.9404 63.2101H45.9647ZM46.188 63.045H46.5375C46.5375 63.1275 46.5375 63.2925 46.5375 63.3751H46.2268C46.2025 63.2828 46.188 63.1226 46.1783 63.045H46.188ZM47.1588 64.0158C46.9429 63.8914 46.706 63.8074 46.4598 63.7682C46.4598 63.7196 46.4598 63.6128 46.4598 63.5595C46.6734 63.5595 46.8919 63.5595 47.1103 63.5595C47.1103 63.7149 47.1491 63.8702 47.1686 64.0449L47.1588 64.0158ZM48.5714 65.5255L48.6006 65.5012C48.7462 65.375 48.9209 65.6032 48.8044 65.7197H48.7753H48.7462C48.7182 65.7339 48.6864 65.739 48.6553 65.7342C48.6243 65.7294 48.5955 65.7151 48.573 65.6931C48.5505 65.6712 48.5355 65.6427 48.53 65.6118C48.5245 65.5809 48.5288 65.549 48.5423 65.5206L48.5714 65.5255ZM47.6443 62.0207C47.8287 62.0207 47.7899 62.108 47.7219 62.1469C47.654 62.1858 47.5326 62.1809 47.6151 62.0159L47.6443 62.0207ZM47.9113 66.2779H48.3336C48.3336 66.4041 48.3336 66.5254 48.3336 66.6517C48.136 66.6957 47.9414 66.7525 47.7511 66.8215C47.7705 66.6419 47.8336 66.4575 47.8821 66.273L47.9113 66.2779ZM48.4404 76.2436C48.4268 76.2617 48.4092 76.2764 48.389 76.2865C48.3688 76.2966 48.3465 76.3019 48.3239 76.3019C48.3013 76.3019 48.279 76.2966 48.2587 76.2865C48.2385 76.2764 48.2209 76.2617 48.2074 76.2436C48.1945 76.2315 48.1845 76.2165 48.1782 76.2C48.1709 76.178 48.1685 76.1546 48.171 76.1316C48.1736 76.1085 48.1811 76.0863 48.1931 76.0665C48.2051 76.0466 48.2213 76.0296 48.2405 76.0166C48.2598 76.0036 48.2816 75.995 48.3045 75.9912H48.3724H48.4161C48.4369 76.0047 48.454 76.0233 48.4656 76.0451C48.4773 76.067 48.4831 76.0915 48.4826 76.1163C48.4822 76.1411 48.4754 76.1654 48.4629 76.1868C48.4504 76.2083 48.4327 76.2261 48.4113 76.2388L48.4404 76.2436ZM48.4404 70.2438C48.4411 70.2145 48.4533 70.1866 48.4744 70.1662C48.4944 70.1455 48.5195 70.1304 48.5472 70.1225C48.5749 70.1145 48.6042 70.1139 48.6322 70.1208C48.6601 70.1277 48.6858 70.1417 48.7067 70.1616C48.7276 70.1815 48.7428 70.2065 48.751 70.2341C48.7554 70.2516 48.7554 70.2699 48.751 70.2875V70.3166C48.7351 70.3341 48.7155 70.3478 48.6937 70.3571C48.672 70.3663 48.6485 70.3707 48.6248 70.37C48.5824 70.3772 48.5389 70.3675 48.5036 70.343C48.4682 70.3185 48.4438 70.2812 48.4355 70.239L48.4404 70.2438ZM48.6054 81.6416C48.6054 81.4571 48.7802 81.3649 48.8773 81.2435C48.9112 81.4231 48.9355 81.6076 48.9549 81.792C48.853 81.7337 48.6637 81.7581 48.6006 81.6366L48.6054 81.6416ZM49.1734 65.3847C49.4452 65.1129 49.6102 65.6662 49.4258 65.8701L49.3821 65.909C49.339 65.9322 49.2901 65.9423 49.2413 65.9382C49.1491 65.7691 49.1248 65.5711 49.1734 65.3847ZM49.251 70.7778L49.1831 70.6952L49.1443 70.6515L49.0083 70.4914L49.5569 70.1613H49.6928C49.552 70.37 49.4307 70.5933 49.2802 70.7972L49.251 70.7778ZM50.3869 82.1755C50.3351 82.36 50.2866 82.5444 50.2413 82.7289C50.0958 82.5558 49.9155 82.4152 49.7122 82.3163L49.6733 82.1416C49.7805 82.2052 49.9015 82.2415 50.0259 82.2474C50.1503 82.2533 50.2743 82.2286 50.3869 82.1755ZM50.5083 61.5547C50.4112 61.4285 50.3238 61.3023 50.2364 61.1712L50.5714 61.278C50.5471 61.38 50.5277 61.4722 50.5083 61.5644L50.5083 61.5547ZM50.9937 75.1126H50.7947L50.7559 74.8116L50.9403 74.8358H50.9791H51.0471C51.0083 74.9426 50.9937 75.0592 50.9791 75.1222L50.9937 75.1126ZM51.1879 78.1077C51.1345 78.1708 50.9646 78.2144 51.0762 78.0203C51.1976 78.035 51.2073 78.0787 51.1733 78.1174L51.1879 78.1077ZM52.1344 61.3168C51.9209 61.2198 51.7121 61.0985 51.4985 61.0014C51.5823 60.9329 51.6559 60.8528 51.717 60.7635C51.8917 60.9189 52.1102 61.0644 52.1344 61.3168ZM52.6199 58.482H52.3043V58.2247H52.6539C52.615 58.312 52.6102 58.4334 52.6053 58.4917L52.6199 58.482ZM53.1441 55.7684C53.2333 55.8016 53.3107 55.8603 53.3668 55.9371C53.4229 56.0139 53.4552 56.1055 53.4597 56.2005L53.2024 56.1471L53.1441 55.7684ZM53.6684 70.9574C53.5033 70.8798 53.3432 70.7923 53.183 70.7098C53.3771 70.6127 53.5762 70.5205 53.7752 70.438L53.8868 70.6855C53.7994 70.7826 53.7072 70.8748 53.6538 70.9671L53.6684 70.9574ZM53.4014 58.4674L53.5422 58.2587H53.9062C53.9062 58.3801 53.9062 58.5062 53.9354 58.6324C53.7363 58.5888 53.5616 58.5354 53.3868 58.477L53.4014 58.4674Z" fill="black"/>
<path fill-rule="evenodd" clip-rule="evenodd" d="M40.193 80.5978C40.1493 79.5251 40.1153 78.4426 39.9648 77.3698C37.0232 77.4718 34.0815 77.4087 31.1398 77.4281C30.1101 77.4816 29.0775 77.4328 28.0574 77.2824C27.8147 76.2776 27.8875 75.234 27.7564 74.2194C27.7166 73.1008 27.7425 71.9807 27.8341 70.8651C27.8341 70.3797 27.8632 69.8506 27.8729 69.3458C27.8729 67.4283 28.0331 65.5206 28.0622 63.6032C28.0622 63.1615 28.1545 62.7294 28.1787 62.2877C28.1787 62.0838 28.1787 61.8848 28.1787 61.6809C28.4571 58.8902 28.4294 56.0774 28.0962 53.2928C28.0525 52.7643 27.9599 52.2411 27.8195 51.7297C27.7357 51.7122 27.649 51.7127 27.5654 51.7311C27.4817 51.7495 27.4029 51.7854 27.3341 51.8365C27.1725 51.7574 26.9946 51.7175 26.8147 51.72C26.0866 51.72 25.3584 51.72 24.6351 51.72C23.8517 51.7637 23.0658 51.7246 22.2905 51.6035C20.8343 51.5161 19.3489 51.6035 17.878 51.5598C17.5382 52.3219 17.6208 53.1714 17.4654 53.9869C17.4266 54.6762 17.4654 55.3655 17.3683 56.05C17.3683 58.9625 17.4217 61.8751 17.1742 64.7876C17.0916 65.3604 17.1742 65.9478 17.048 66.5157C16.9954 67.1619 16.9954 67.8113 17.048 68.4574C17.1013 68.9671 16.8586 69.4526 16.8926 69.9622C16.8198 70.7195 16.8247 71.4816 16.7858 72.2389C16.7114 72.8948 16.6757 73.5545 16.679 74.2146C16.5876 74.9275 16.5567 75.6469 16.5868 76.365C16.8435 75.8004 17.0435 75.2118 17.1839 74.6077C17.3198 74.0301 17.4169 73.4427 17.5431 72.8602C17.599 73.2638 17.6185 73.6716 17.6013 74.0786C17.6013 75.9572 17.5528 77.831 17.5382 79.7047C17.5722 80.3892 17.4411 81.0736 17.4606 81.7581C17.4606 82.6901 17.4606 83.6172 17.4606 84.5444C25.072 84.5444 32.6786 84.5736 40.2755 84.5152C40.3175 83.2089 40.29 81.9012 40.193 80.5978ZM19.9459 58.7538C19.9751 58.9431 20.0091 59.1372 20.0479 59.3266L19.8634 59.1081C19.8003 59.0353 19.742 58.9625 19.6838 58.8848L19.9459 58.7538ZM18.8683 71.9622C19.0809 71.9468 19.2943 71.9765 19.4945 72.0495L19.2906 72.1126L18.9265 72.2146H18.8586C18.8634 72.1807 18.8683 72.0302 18.8683 71.967L18.8683 71.9622ZM18.0576 69.8457L18.4848 70.1224L18.0625 70.1807V70.0108C18.0651 69.9672 18.0651 69.9235 18.0625 69.8798V69.8459L18.0576 69.8457ZM18.1353 68.0448L18.2518 68.0205C18.2518 68.0981 18.2518 68.2438 18.2178 68.3215H18.0091C18.0091 68.2632 18.0091 68.1466 18.0091 68.0885L18.1353 68.0448ZM17.9266 75.4524C17.9266 75.4524 17.9266 75.394 17.9266 75.3116C17.9694 75.3111 18.0116 75.3229 18.0479 75.3456C18.1159 75.4039 17.9751 75.4913 17.9266 75.4573V75.4524ZM18.3877 74.5543C18.6401 74.5543 18.4654 74.7145 18.3877 74.7C18.3101 74.6853 18.3343 74.6611 18.3877 74.5593V74.5543ZM18.6596 82.559C18.5139 82.4667 18.4751 82.2774 18.3877 82.1366C18.5368 82.1403 18.6826 82.1807 18.8122 82.2544C18.9418 82.3281 19.0511 82.4327 19.1304 82.559C18.9738 82.5729 18.8164 82.5748 18.6596 82.5644V82.559ZM19.912 83.4473H19.4265C19.4265 83.3647 19.4265 83.2094 19.3974 83.1269C19.5769 83.2147 19.749 83.317 19.9119 83.4327L19.912 83.4473ZM20.1644 81.6367H19.8731C19.9717 81.4483 20.109 81.2829 20.276 81.1512C20.2372 81.292 20.2129 81.4668 20.1644 81.6415L20.1644 81.6367ZM23.1255 62.1517H23.0963C23.0788 62.1561 23.0605 62.1561 23.0429 62.1517C22.9119 62.1517 22.8002 61.9673 22.9361 61.875H22.9653C23.0915 61.8266 23.2711 62.0449 23.1255 62.1517ZM23.1255 59.7246C22.9847 59.7925 22.8439 59.8556 22.708 59.9285C22.5769 60.1033 22.6789 60.3023 22.7371 60.4819C22.5332 60.2731 22.3099 60.0887 22.1012 59.8897C22.1106 59.8612 22.1255 59.8349 22.1449 59.8121C22.2468 59.6858 22.4119 59.8557 22.4895 59.9869C22.6668 59.8318 22.8904 59.7395 23.1255 59.7246ZM20.9896 71.2097C20.8537 71.1369 20.8537 71.0543 20.9896 70.9767C21.1255 71.0479 21.1255 71.1256 20.9896 71.2097ZM21.2711 81.5396C21.1692 81.69 20.9313 81.5007 21.043 81.3647C21.1546 81.2288 21.3828 81.4036 21.2711 81.5492V81.5396ZM21.3828 52.1083H21.1012C21.1012 52.1083 21.1012 52.0646 21.1012 52.0403V51.9141V51.8462L21.3488 51.8219C21.3488 51.8899 21.3488 52.0306 21.3488 52.0986L21.3828 52.1083ZM21.8682 54.05C21.7988 54.0673 21.732 54.0934 21.6692 54.1276C21.6692 53.9917 21.6692 53.8606 21.6692 53.7247H22.0721C22.1996 53.8627 22.3358 53.9924 22.4798 54.113C22.3597 54.0399 22.2224 53.9998 22.0818 53.9965H21.975L21.8682 54.05ZM21.975 68.2244L22.3876 68.2583C22.3946 68.5268 22.4387 68.7931 22.5187 69.0496C22.2799 68.818 22.0958 68.5361 21.9799 68.2243L21.975 68.2244ZM22.7128 79.9474L22.3391 79.9863L22.1546 79.6465C22.355 79.7176 22.5433 79.819 22.7128 79.9474ZM23.2614 62.8507C22.873 63.0012 22.6158 62.6566 22.373 62.4139C22.6854 62.5239 22.9836 62.6706 23.2614 62.8507ZM23.6206 66.2487H23.3876C23.3633 66.0933 23.3342 65.9332 23.3196 65.7633L23.6109 65.9284C23.6109 66.0255 23.6109 66.1226 23.6109 66.2245L23.6206 66.2487ZM23.7662 60.6226C23.6303 60.6566 23.5866 60.4575 23.6594 60.3702C23.6702 60.3579 23.6834 60.3479 23.6983 60.3411C23.8536 60.2974 23.8827 60.5595 23.7662 60.6178L23.7662 60.6226ZM25.3681 63.1905C25.7856 63.1129 25.9167 63.5303 26.072 63.8216C25.8248 63.624 25.5897 63.4116 25.3681 63.1857V63.1905ZM26.2031 65.8167C25.8972 65.9866 25.7176 65.54 25.805 65.3313C26.1011 65.1517 26.3099 65.5691 26.2031 65.8118V65.8167ZM26.8293 64.2779C26.6545 64.3362 26.5914 64.2779 26.6496 64.103C26.8244 64.0399 26.8826 64.0976 26.8293 64.2729V64.2779ZM26.8293 61.011L26.8681 60.9868H26.9118C27.0814 60.8751 27.2582 60.7745 27.4409 60.6858C27.5525 60.8071 27.6593 60.9431 27.7758 61.0693C27.4683 60.9628 27.1371 60.9443 26.8195 61.0159L26.8293 61.011ZM28.0525 77.7581H27.8972C27.8972 77.5008 28.1884 77.5543 28.3826 77.53C28.3535 77.7339 28.203 77.7533 28.0428 77.7533L28.0525 77.7581ZM32.9068 83.8696L32.7854 83.9377L32.664 84.0105L32.2903 83.8795C32.2903 83.8309 32.2903 83.7436 32.2903 83.6999C32.4159 83.6563 32.5303 83.5853 32.6251 83.4922C32.72 83.399 32.793 83.2859 32.8388 83.1611C32.9082 83.3629 33.0454 83.5345 33.2271 83.6465L33.4747 83.3164C33.5524 83.4184 33.6349 83.5154 33.7223 83.6125C33.4318 83.6422 33.15 83.7279 32.8922 83.8649L32.9068 83.8696ZM35.2611 79.6076C35.1633 79.5048 35.0917 79.3799 35.0523 79.2435H35.4941C35.4585 79.3858 35.3765 79.5122 35.2611 79.6027V79.6076Z" fill="black"/>
<path fill-rule="evenodd" clip-rule="evenodd" d="M75.3426 77.6078C74.9737 76.9573 74.7018 76.2 74.0708 75.7534C73.5853 75.3748 72.9591 75.3165 72.4058 75.103C71.7456 74.87 71.0466 74.501 70.3379 74.7632C69.5321 75.103 68.6437 75.302 67.969 75.8845C67.2942 76.467 66.6486 76.8553 66.071 77.433C65.9351 77.9475 65.8574 78.4718 65.702 78.9815C65.4642 79.6417 65.6389 80.3455 65.5953 81.0251C65.5953 81.3504 65.503 81.7387 65.77 81.996C66.3773 82.7809 67.046 83.5162 67.77 84.195C68.3428 84.6185 68.9805 84.9464 69.6583 85.1658C70.2407 85.1053 70.8171 84.9966 71.3815 84.8406C72.476 84.6009 73.5467 84.263 74.5805 83.8309C74.7698 83.7386 75.027 83.656 75.0659 83.4134C75.2455 82.6901 75.4251 81.9572 75.6144 81.2436C75.6678 80.3358 75.6532 79.4281 75.6581 78.5204C75.6384 78.193 75.5293 77.8773 75.3426 77.6078ZM67.5758 83.5057C67.4836 83.6416 67.2991 83.5348 67.2991 83.4086C67.294 83.3879 67.294 83.3662 67.2991 83.3455C67.3913 83.1998 67.6001 83.3455 67.5709 83.4668C67.5688 83.48 67.5655 83.493 67.5612 83.5057L67.5758 83.5057ZM68.6389 83.4765L68.469 83.2629C68.5078 83.1706 68.5466 83.0833 68.5903 82.9959C68.7602 83.1513 68.9253 83.3114 69.1049 83.4813L68.6389 83.4765ZM70.9689 80.8989C70.7942 80.9572 70.7359 80.8989 70.7893 80.7192C70.8361 80.7008 70.8881 80.7008 70.9349 80.7192H70.964V80.7484C70.9668 80.7612 70.9668 80.7745 70.964 80.7873C70.9689 80.8312 70.9656 80.8756 70.9543 80.9183L70.9689 80.8989ZM72.9106 79.7921C72.5223 79.7484 72.0417 79.8504 71.8281 79.4329C71.9825 79.4303 72.1353 79.4635 72.2747 79.5299L72.4106 79.5883C72.5343 79.6539 72.6624 79.7106 72.7941 79.7582L72.8912 79.7874L72.9106 79.7921Z" fill="black"/>
<path d="M87.449 32.4438C87.6626 34.8029 87.3325 37.099 87.2403 39.4824H78.1435C78.0901 37.2203 77.7406 34.9971 77.9396 32.7544C78.1677 32.4729 78.4833 32.5797 78.7599 32.5797C80.7939 32.5797 82.8327 32.5263 84.8714 32.5797C85.7015 32.5749 86.5025 32.1816 87.449 32.4438Z" fill="#93CAD6"/>
<path d="M84.5996 36.0698C84.4491 36.4582 84.2452 36.5552 83.9637 36.4533C84.0413 36.1912 84.2549 36.1329 84.5996 36.0698Z" fill="#98CCD8"/>
<path d="M80.0754 38.2396C80.0172 38.3804 79.925 38.4532 79.7211 38.3804C79.6143 38.06 79.823 37.895 80.0851 37.8076C80.1493 37.8638 80.1908 37.9415 80.2016 38.0261C80.1961 38.0683 80.1821 38.1091 80.1604 38.1458C80.1387 38.1825 80.1098 38.2144 80.0754 38.2396Z" fill="#9FCFDB"/>
<path d="M80.0754 38.2397V38.0164C80.1381 37.9465 80.2045 37.88 80.2745 37.8174C80.5172 37.8708 80.5026 38.0601 80.5075 38.2446H80.0706L80.0754 38.2397Z" fill="#BEDFE5"/>
<path d="M81.0414 38.3369C80.9935 38.2881 80.9639 38.2242 80.9577 38.1561C80.9515 38.088 80.9691 38.0198 81.0075 37.9631C81.2647 38.0699 81.1919 38.201 81.0414 38.3369Z" fill="#AED6E0"/>
<path d="M81.6045 38.0261H81.823C81.954 38.0261 81.954 38.1815 82.0414 38.2446C82.0335 38.2997 82.008 38.3508 81.9686 38.3902C81.9292 38.4296 81.8781 38.4552 81.823 38.463C81.8093 38.4785 81.7925 38.4909 81.7737 38.4994C81.7548 38.5079 81.7344 38.5123 81.7137 38.5123C81.6931 38.5123 81.6727 38.5079 81.6538 38.4994C81.635 38.4909 81.6182 38.4785 81.6045 38.463C81.5755 38.4345 81.5524 38.4005 81.5366 38.363C81.5208 38.3255 81.5127 38.2852 81.5127 38.2446C81.5127 38.2039 81.5208 38.1636 81.5366 38.1261C81.5524 38.0886 81.5755 38.0546 81.6045 38.0261Z" fill="#A9D4DE"/>
<path d="M84.4588 37.3611C84.6287 37.463 84.7209 37.6038 84.5268 37.7446C84.3326 37.8853 84.2792 37.7446 84.2307 37.5795C84.3132 37.5116 84.3278 37.3757 84.4588 37.3611Z" fill="#B7DBE3"/>
<path d="M83.8035 38.6864C83.829 38.6073 83.8719 38.5348 83.929 38.4743C83.9861 38.4138 84.056 38.3669 84.1336 38.3369C84.3035 38.5068 84.2016 38.6088 84.0365 38.6864L83.92 38.7787L83.8035 38.6864Z" fill="#BBDDE4"/>
<path d="M86.3131 38.8465L86.0607 38.6135C86.3811 38.429 86.3957 38.5601 86.3131 38.8465Z" fill="#B6DBE3"/>
<path d="M80.6143 35.9147C80.7939 35.8515 80.8812 35.9147 80.9104 36.0166C80.9087 36.079 80.8826 36.1383 80.8376 36.1816C80.7162 36.1719 80.6434 36.0894 80.6143 35.9147Z" fill="#E2F0F3"/>
<path d="M82.1871 35.4923C82.0074 35.5263 81.954 35.4194 81.9346 35.2738C81.9346 35.2738 81.988 35.2156 82.0172 35.2156C82.187 35.2301 82.2647 35.3127 82.1871 35.4923Z" fill="#9ACDD9"/>
<path d="M85.9636 33.8806C86.153 33.9631 86.25 34.0942 86.0559 34.2398C85.8617 34.3854 85.8132 34.2398 85.7646 34.0796C85.8183 34.0017 85.8857 33.9343 85.9636 33.8806Z" fill="#ABD5DE"/>
<path d="M82.8035 33.1233C82.7792 33.0602 82.7259 32.9922 82.7404 32.9437C82.7549 32.8951 82.8521 32.8514 82.8763 32.9437C82.9006 33.0359 82.8327 33.065 82.8035 33.1233Z" fill="#AAD5DE"/>
<path d="M79.0803 33.9727C79.1677 33.8757 79.2502 33.8659 79.3279 33.9727C79.2405 34.0892 79.158 34.0941 79.0803 33.9727Z" fill="#A0D0DC"/>
<path d="M79.5172 35.2883C79.6046 35.1912 79.692 35.1863 79.7648 35.2883C79.6774 35.3999 79.5949 35.4048 79.5172 35.2883Z" fill="#C1E0E7"/>
<path d="M83.8035 35.4049C83.6239 35.4049 83.4394 35.4049 83.3715 35.1816C83.3847 35.1654 83.4013 35.1523 83.4202 35.1433C83.4391 35.1343 83.4598 35.1296 83.4807 35.1296C83.5016 35.1296 83.5223 35.1343 83.5412 35.1433C83.56 35.1523 83.5767 35.1654 83.5899 35.1816H83.8035C83.8617 35.2301 83.8811 35.2787 83.8617 35.3321C83.8423 35.3855 83.8035 35.4049 83.8035 35.4049Z" fill="#B5DAE3"/>
<path d="M83.8035 35.4049V35.1816C83.9394 35.2253 84.0462 35.3224 83.9831 35.4535C83.92 35.5845 83.8326 35.4826 83.8035 35.4049Z" fill="#A9D4DE"/>
<path d="M86.2986 35.2883C86.4102 35.366 86.4102 35.4485 86.2986 35.531C86.1918 35.4485 86.1869 35.366 86.2986 35.2883Z" fill="#A7D4DE"/>
<path d="M85.8714 35.4971C85.9733 35.5844 85.9782 35.667 85.8714 35.7446C85.7452 35.6573 85.7452 35.5747 85.8714 35.4971Z" fill="#AFD7E0"/>
<path d="M78.658 36.1768C78.5512 36.0943 78.5464 36.0166 78.658 35.9341C78.7648 36.0117 78.7696 36.0943 78.658 36.1768Z" fill="#A8D4DE"/>
<path d="M81.9443 36.3806C81.8618 36.4922 81.7841 36.4922 81.7016 36.3806C81.7793 36.2592 81.8618 36.2592 81.9443 36.3806Z" fill="#99CDD9"/>
<path d="M80.6143 39.2349C80.5172 39.1475 80.5075 39.065 80.6143 38.9922C80.7308 39.0796 80.7356 39.1718 80.6143 39.2349Z" fill="#9ECFDB"/>
<path d="M83.8035 38.895C83.7647 38.9726 83.7064 39.0891 83.6336 38.9532C83.5608 38.8173 83.6676 38.7251 83.7938 38.6765C83.8423 38.7251 83.8617 38.7736 83.8423 38.8173C83.8229 38.861 83.8035 38.895 83.8035 38.895Z" fill="#A9D4DE"/>
<path d="M80.8279 36.9971C80.9347 37.0844 80.9589 37.1621 80.8618 37.2641C80.6822 37.1912 80.7696 37.099 80.8279 36.9971Z" fill="#F5FAFB"/>
<path d="M84.4588 37.361C84.4464 37.4158 84.4181 37.4657 84.3776 37.5046C84.337 37.5434 84.2859 37.5695 84.2307 37.5795C84.2889 37.4921 84.0753 37.1135 84.4588 37.361Z" fill="#EBF5F6"/>
<path d="M83.5705 37.5845C83.5705 37.4389 83.687 37.3466 83.8278 37.4049C83.9685 37.4631 83.8715 37.536 83.7938 37.5894C83.7793 37.6047 83.7619 37.6168 83.7424 37.6249C83.723 37.6331 83.7021 37.637 83.6811 37.6366C83.66 37.6361 83.6393 37.6313 83.6203 37.6223C83.6012 37.6134 83.5843 37.6004 83.5705 37.5845Z" fill="#FEFEFE"/>
<path d="M85.3229 38.0212C85.454 38.0698 85.5607 38.162 85.4928 38.2979C85.4248 38.4338 85.3617 38.2979 85.318 38.2397C85.2743 38.1814 85.2404 38.1426 85.2598 38.0941C85.2792 38.0455 85.3035 38.0212 85.3229 38.0212Z" fill="#A5D3DD"/>
<path d="M81.6045 38.0261V38.463C81.3424 38.3174 81.3327 38.1718 81.6045 38.0261Z" fill="#C3E1E8"/>
<path d="M78.8862 38.1184C78.9832 38.2058 78.993 38.2883 78.8862 38.366C78.7697 38.2786 78.7599 38.2009 78.8862 38.1184Z" fill="#BCDEE5"/>
<path d="M85.3229 38.0212C85.3229 38.094 85.3229 38.1668 85.3229 38.2396C85.187 38.2008 85.085 38.1086 85.1481 37.9726C85.2112 37.8367 85.2598 37.9435 85.3229 38.0212Z" fill="#D3E9EE"/>
<path d="M82.0414 38.2398C81.9874 38.2292 81.9378 38.2028 81.8989 38.1639C81.86 38.125 81.8335 38.0753 81.823 38.0213C82.2016 37.7835 81.9637 38.1718 82.0414 38.2398Z" fill="#B5DBE3"/>
<path d="M80.2793 37.8173C80.2793 37.8701 80.2584 37.9208 80.221 37.9581C80.1837 37.9954 80.1331 38.0164 80.0803 38.0164C80.0728 37.947 80.0728 37.877 80.0803 37.8076C80.1468 37.8031 80.2136 37.8064 80.2793 37.8173Z" fill="#F3F9FA"/>
<path d="M82.7695 37.9096L82.8278 37.8901L82.8181 37.9435L82.7695 37.9096Z" fill="#A2D1DC"/>
<path d="M86.2597 37.9096L86.3228 37.8901L86.3131 37.9435L86.2597 37.9096Z" fill="#A1D0DC"/>
<path d="M83.5705 37.5845H83.8035C83.7161 37.7884 83.6433 37.8175 83.5705 37.5845Z" fill="#EFF6F8"/>
<path d="M83.2501 38.094L83.2695 38.1522L83.2161 38.1425L83.2501 38.094Z" fill="#A8D4DF"/>
<path d="M78.4007 38.3466L78.459 38.3271L78.4493 38.3805L78.4007 38.3466Z" fill="#9DCEDA"/>
<path d="M80.5123 38.2446L80.6628 38.332C80.5172 38.4582 80.5512 38.298 80.5172 38.2397L80.5123 38.2446Z" fill="#DCEDF1"/>
<path d="M81.6045 38.4631H81.823C81.7501 38.6864 81.6773 38.6573 81.6045 38.4631Z" fill="#B2D9E2"/>
<path d="M79.789 37.264L79.7308 37.2834L79.7405 37.23L79.789 37.264Z" fill="#ADD6DF"/>
<path d="M83.8035 38.895C83.8035 38.8222 83.8035 38.7494 83.8035 38.6814H84.0171C84.0072 38.7344 83.9815 38.7832 83.9434 38.8213C83.9053 38.8594 83.8565 38.8851 83.8035 38.895Z" fill="#D5EAEF"/>
<path d="M80.1774 39.0456L80.158 38.9873L80.2162 38.9922L80.1774 39.0456Z" fill="#C1E0E7"/>
<path d="M83.4686 35.9048L83.4928 35.9679L83.4297 35.9582L83.4686 35.9048Z" fill="#D0E7ED"/>
<path d="M84.7695 35.5504L84.7452 35.4922L84.8035 35.5019L84.7695 35.5504Z" fill="#ADD6DF"/>
<path d="M80.5754 35.5067L80.6434 35.4824L80.6337 35.5455L80.5754 35.5067Z" fill="#D7EBF0"/>
<path d="M83.5753 35.1815H83.3569C83.4346 34.9679 83.5025 34.997 83.5753 35.1815Z" fill="#C0E0E6"/>
<path d="M80.3618 35.0699L80.4249 35.0457L80.4152 35.1039L80.3618 35.0699Z" fill="#BADCE5"/>
<path d="M81.721 34.8174L81.7404 34.8756L81.687 34.8659L81.721 34.8174Z" fill="#A1D0DC"/>
<path d="M85.8617 34.6767L85.8374 34.6184L85.8957 34.6281L85.8617 34.6767Z" fill="#A8D4DF"/>
<path d="M87.0656 34.3176L87.216 34.4001C87.0704 34.5312 87.1044 34.3612 87.0704 34.3127L87.0656 34.3176Z" fill="#BFDFE6"/>
<path d="M87.0704 34.3175L86.9199 34.2349C87.0655 34.1039 87.0267 34.2738 87.0655 34.3223L87.0704 34.3175Z" fill="#B7DBE3"/>
<path d="M85.9637 33.8806C85.9624 33.933 85.9411 33.9829 85.904 34.02C85.8669 34.057 85.817 34.0784 85.7646 34.0796C85.7598 34.0117 85.7598 33.9436 85.7646 33.8757H85.9637V33.8806Z" fill="#E6F2F4"/>
<path d="M85.7452 33.8757L85.5898 33.7883C85.7403 33.6572 85.6966 33.8368 85.7403 33.8805L85.7452 33.8757Z" fill="#B8DBE4"/>
<path d="M86.3422 33.3321L86.284 33.3515L86.2937 33.2981L86.3422 33.3321Z" fill="#9DCEDA"/>
<path d="M78.4444 33.0701L78.4638 33.1283L78.4104 33.1186L78.4444 33.0701Z" fill="#9FD0DB"/>
</svg>
