<svg width="90" height="90" viewBox="0 0 90 90" fill="none" xmlns="http://www.w3.org/2000/svg">
<path d="M45 4.73682C22.799 4.73682 4.73682 22.799 4.73682 45C4.73682 67.201 22.799 85.2631 45 85.2631C67.201 85.2631 85.2631 67.2019 85.2631 45C85.2631 22.799 67.201 4.73682 45 4.73682ZM45 83.4245C23.813 83.4245 6.57549 66.187 6.57549 45C6.57549 23.813 23.813 6.57549 45 6.57549C66.187 6.57549 83.4245 23.813 83.4245 45C83.4245 66.187 66.187 83.4245 45 83.4245Z" fill="#716D6D"/>
<path d="M45 0C20.1869 0 0 20.1869 0 45C0 69.8131 20.1869 90 45 90C69.8131 90 90 69.8131 90 45C90 20.1869 69.8131 0 45 0ZM45 88.1443C21.2103 88.1443 1.85567 68.7906 1.85567 45C1.85567 21.2103 21.2103 1.85567 45 1.85567C68.7906 1.85567 88.1443 21.2103 88.1443 45C88.1443 68.7906 68.7906 88.1443 45 88.1443Z" fill="#716D6D"/>
<path d="M63.5652 41.1959C62.4463 41.1959 61.3666 41.3637 60.3458 41.6645L56.8696 33.4391L57.9007 31.4152H59.4604C59.9769 31.4152 60.3944 31.002 60.3944 30.4928C60.3944 29.9836 59.9769 29.5704 59.4604 29.5704H51.7701C51.2537 29.5704 50.8362 29.9836 50.8362 30.4928C50.8362 31.002 51.2537 31.4152 51.7701 31.4152H55.8096L55.2277 32.5581L35.4295 32.5572L37.4132 27.8076L37.4141 27.8048L37.416 27.7993C37.4394 27.743 37.4375 27.6858 37.4496 27.6286C37.4627 27.5687 37.487 27.5115 37.487 27.4478L37.4861 27.4451C37.4861 27.3233 37.4618 27.2034 37.4141 27.0927C37.3908 27.0364 37.3488 26.994 37.3151 26.9451C37.2815 26.8953 37.2582 26.8409 37.2152 26.7984C37.1293 26.7136 37.0265 26.6444 36.9126 26.5983L36.9098 26.5964C36.8528 26.5734 36.7949 26.5752 36.7379 26.5632C36.6763 26.5503 36.6193 26.5263 36.554 26.5263H36.5474H36.5437H31.5507C29.1588 26.5263 27.2124 28.171 27.2124 30.1921C27.2124 32.2131 29.1579 33.8579 31.5507 33.8579C32.0662 33.8579 32.4847 33.4446 32.4847 32.9354C32.4847 32.4262 32.0662 32.013 31.5507 32.013C30.2114 32.013 29.0804 31.1791 29.0804 30.1921C29.0804 29.2051 30.2114 28.3712 31.5507 28.3712H35.1567L29.6108 41.6552C28.6022 41.3619 27.5384 41.1977 26.4344 41.1977C20.2161 41.1977 15.1577 46.1945 15.1577 52.3361C15.1577 58.4777 20.217 63.4737 26.4344 63.4737C32.6528 63.4737 37.7121 58.4777 37.7121 52.3361C37.7121 47.9361 35.1091 44.1347 31.3499 42.3268L33.5531 37.0504L43.6456 49.4046C43.1459 50.0356 42.8349 50.8187 42.8349 51.6803C42.8349 53.7263 44.5207 55.3903 46.5913 55.3903C48.3397 55.3903 49.8004 54.2004 50.2179 52.6018H52.3016C52.4473 58.6189 57.4375 63.4718 63.5652 63.4718C69.7836 63.4718 74.8419 58.4759 74.8419 52.3343C74.8419 46.1927 69.7836 41.1959 63.5652 41.1959ZM35.8441 52.3343C35.8441 57.4584 31.6226 61.627 26.4344 61.627C21.2462 61.627 17.0256 57.4575 17.0256 52.3343C17.0256 47.2092 21.2462 43.0407 26.4344 43.0407C27.2862 43.0407 28.1072 43.1634 28.8926 43.3737L25.5714 51.3288C25.3744 51.7993 25.6023 52.3389 26.0786 52.5335C26.1953 52.5806 26.3158 52.6027 26.4344 52.6027C26.8015 52.6027 27.1498 52.3887 27.2983 52.0317L30.6382 44.0324C33.7194 45.559 35.8441 48.7027 35.8441 52.3343ZM52.4146 50.7569H50.216C50.0199 50.0051 49.5912 49.353 49.0093 48.8641L55.7619 35.6105L58.6077 42.3443C55.3295 43.9392 52.9497 47.0543 52.4146 50.7569ZM59.3287 44.048L62.1633 50.7569H54.3021C54.8139 47.8199 56.7211 45.3533 59.3287 44.048ZM34.658 34.4021L54.2863 34.403L47.3375 48.044C47.0956 47.9951 46.8472 47.9693 46.5913 47.9693C46.0673 47.9693 45.5705 48.0763 45.1166 48.2682L34.3647 35.1041L34.658 34.4021ZM46.5913 53.5464C45.5499 53.5464 44.7028 52.7097 44.7028 51.6812C44.7028 50.6518 45.5499 49.8151 46.5913 49.8151C47.6336 49.8151 48.4807 50.6518 48.4807 51.6812C48.4816 52.7088 47.6336 53.5464 46.5913 53.5464ZM63.5652 61.627C58.4686 61.627 54.3152 57.6014 54.1695 52.6018H63.5652C63.6857 52.6018 63.808 52.5797 63.9248 52.5308L63.9257 52.5299C64.0406 52.4828 64.1424 52.4136 64.2283 52.3278C64.2647 52.2919 64.2844 52.2448 64.3133 52.2042C64.3535 52.148 64.4002 52.0972 64.4273 52.0327C64.474 51.922 64.4982 51.8021 64.4992 51.6803V51.6784C64.4992 51.6019 64.473 51.5336 64.4553 51.4626C64.4431 51.4165 64.4459 51.3685 64.4273 51.3242L64.4263 51.3224C64.4254 51.3205 64.4254 51.3196 64.4245 51.3178L61.0715 43.382C61.8673 43.1653 62.7004 43.0398 63.5652 43.0398C68.7534 43.0398 72.974 47.2092 72.974 52.3334C72.974 57.4585 68.7534 61.627 63.5652 61.627Z" fill="#716D6D"/>
</svg>
