<svg width="24" height="24" viewBox="0 0 24 24" fill="none" xmlns="http://www.w3.org/2000/svg">
<path d="M14.9355 23.2258C15.1492 23.2258 15.3226 23.3992 15.3226 23.6129C15.3226 23.8266 15.1492 24 14.9355 24H2.66532C1.93246 24 1.26511 23.6996 0.782245 23.2157C0.299381 22.7329 0 22.0655 0 21.3337V2.66733C0 1.93345 0.300413 1.26612 0.782245 0.784258L0.80543 0.763089C1.28729 0.292327 1.94556 0.000998466 2.66631 0.000998466H3.75503C3.96874 0.000998466 4.14213 0.174387 4.14213 0.388095C4.14213 0.601804 3.96874 0.775192 3.75503 0.775192H2.66631C2.15521 0.775192 1.68848 0.980838 1.3397 1.32157C0.987882 1.67439 0.774179 2.14717 0.774179 2.66732V21.3336C0.774179 21.8548 0.986881 22.3286 1.33062 22.6713C1.67235 23.0131 2.14615 23.2258 2.66631 23.2258H14.9365L14.9355 23.2258ZM12.3174 9.68052L17.2116 3.72903C17.2812 3.62823 17.3981 3.56169 17.5302 3.56169H19.7106C19.7973 3.56371 19.884 3.59194 19.9556 3.65141C20.1199 3.78649 20.1441 4.03046 20.008 4.19477L13.7853 11.7612L19.4797 19.8278C19.6027 20.0022 19.5604 20.2431 19.386 20.3661C19.3185 20.4135 19.2408 20.4367 19.1642 20.4367L16.2006 20.4377C16.0615 20.4377 15.9395 20.3641 15.871 20.2542L11.6826 14.3197L6.78841 20.2705C6.71885 20.3713 6.60191 20.4378 6.46985 20.4378H4.28941C4.20272 20.4358 4.11602 20.4076 4.04445 20.3481C3.88014 20.213 3.85594 19.969 3.99203 19.8047L10.2147 12.2393L4.52029 4.17169C4.39731 3.9973 4.43965 3.75636 4.61404 3.6334C4.68158 3.58602 4.7592 3.56283 4.83582 3.56283H7.79943C7.93854 3.56283 8.06051 3.63642 8.12906 3.7463L12.3185 9.68178L12.3174 9.68052ZM9.06351 0.774194C8.8498 0.774194 8.67641 0.600805 8.67641 0.387097C8.67641 0.173388 8.8498 0 9.06351 0H21.3327C22.0665 0 22.7339 0.300413 23.2167 0.782245L23.2379 0.805431C23.7087 1.28729 24 1.94556 24 2.66631V21.3326C24 22.0645 23.6996 22.7318 23.2157 23.2167C22.7318 23.7006 22.0645 24 21.3326 24H20.245C20.0312 24 19.8579 23.8266 19.8579 23.6129C19.8579 23.3992 20.0312 23.2258 20.245 23.2258H21.3326C21.8538 23.2258 22.3276 23.0131 22.6693 22.6714C23.0131 22.3286 23.2258 21.8548 23.2258 21.3337V2.66734C23.2258 2.15524 23.0201 1.68951 22.6794 1.34073C22.3266 0.988915 21.8538 0.775211 21.3337 0.775211H9.0645L9.06351 0.774194Z" fill="white"/>
</svg>
