<svg width="90" height="90" viewBox="0 0 90 90" fill="none" xmlns="http://www.w3.org/2000/svg">
<path d="M87.143 36.2571C90.2735 33.0535 90.8717 28.3804 88.6384 24.5905L86.1565 20.6468C83.9309 16.9177 79.375 14.9083 74.8234 15.6484C71.2462 16.3313 67.5214 15.7771 64.3564 14.0967C61.1909 12.4198 58.8061 9.72755 57.6526 6.53468C56.064 2.53734 51.8925 -0.0906049 47.267 0.00239056H42.7228C38.1008 -0.0869949 33.9293 2.53734 32.3442 6.53468C31.1868 9.72755 28.7981 12.4163 25.6327 14.0967C22.4672 15.7735 18.7424 16.3278 15.1656 15.6484C10.6136 14.9083 6.05371 16.9177 3.83254 20.6468L1.34677 24.5905C-0.882655 28.3805 -0.284482 33.0536 2.84599 36.2571C5.03654 38.7205 6.23279 41.8061 6.23279 44.9847C6.23279 48.1669 5.03654 51.2525 2.84599 53.7124C-0.292237 56.916 -0.894289 61.5891 1.33514 65.3789L3.80927 69.3262C6.03094 73.0554 10.583 75.0719 15.1354 74.339C18.7165 73.6597 22.4412 74.2174 25.6024 75.9014C28.7679 77.5854 31.1488 80.2777 32.2985 83.4706C32.4888 83.9997 32.7413 84.511 33.0403 84.9973C33.0403 85.0188 33.0714 85.0331 33.0792 85.0545C35.091 88.158 38.742 90.0422 42.6687 89.9993H47.3489C51.2911 90.0386 54.9576 88.1329 56.9619 85.0044C57.2609 84.5182 57.5095 84.0105 57.7037 83.4813C58.8494 80.2848 61.2343 77.5925 64.3959 75.9086C67.5613 74.2246 71.2861 73.6703 74.8629 74.3497C79.4149 75.0791 83.9709 73.0626 86.196 69.3333L88.6701 65.3861H88.6662C90.8957 61.5961 90.2897 56.923 87.1515 53.7232C84.961 51.2597 83.7607 48.1777 83.7569 44.992C83.7569 41.8098 84.9525 38.7241 87.143 36.2571ZM47.3321 85.4339H42.6558C40.7876 85.4661 39.0048 84.7188 37.8008 83.3994V61.9721C37.8008 61.1283 37.2997 60.3524 36.4919 59.952C34.9071 59.1654 33.4546 58.1714 32.1845 56.9986C28.6073 53.7056 26.6887 49.1863 26.8984 44.5349C27.1043 39.8833 29.4192 35.5212 33.276 32.5141V40.9485C33.0934 42.679 33.8702 44.3773 35.35 45.4571L42.3412 49.887C44.0074 50.8596 46.1358 50.8346 47.771 49.8263L54.6612 45.4678C56.141 44.3845 56.9216 42.6861 56.7352 40.9556V32.514C60.5959 35.521 62.9107 39.883 63.1166 44.5348C63.3264 49.1864 61.4076 53.7062 57.8305 56.9985C56.5566 58.1712 55.1078 59.1652 53.5232 59.9519C52.7153 60.3523 52.2143 61.1282 52.2143 61.972V83.4067V83.4031C51.0064 84.726 49.212 85.4732 47.3321 85.4339ZM84.358 63.0949L81.8839 67.0421H81.8877C80.7498 69.0515 78.361 70.1814 75.9219 69.8631C69.0162 68.5616 61.8774 70.7248 57.1584 75.548V63.2874C63.7534 59.5332 67.8591 52.9792 68.0838 45.8426C68.3091 38.7095 64.627 31.9445 58.2806 27.8439C57.0144 27.0323 55.3598 26.9357 53.9926 27.5936C52.6216 28.2479 51.7593 29.5494 51.7554 30.9724V40.9474C51.7321 41.212 51.7321 41.4802 51.7554 41.7483L45.0555 46.0496L38.3323 41.8842C38.243 41.5803 38.2119 41.262 38.2313 40.9474V30.9724C38.2275 29.5494 37.3652 28.2479 35.9903 27.5901C34.6192 26.9358 32.9685 27.0323 31.6985 27.8475C25.3714 31.9592 21.7047 38.7204 21.9341 45.8461C22.1594 52.9756 26.2532 59.5218 32.8287 63.2874V75.5369C29.0651 71.7077 23.7285 69.5088 18.1199 69.4695C16.7644 69.4695 15.4089 69.6017 14.0806 69.8628C11.6415 70.1917 9.24498 69.0583 8.11475 67.0418L5.64063 63.0945C4.46764 60.9636 4.87548 58.3821 6.6582 56.648C9.58284 53.3585 11.1831 49.2396 11.1831 44.9888C11.1831 40.7379 9.58284 36.6187 6.6582 33.3259C4.87929 31.5918 4.4754 29.0104 5.65226 26.8829L8.13026 22.9392C9.276 20.9263 11.6764 19.7964 14.1155 20.1218C18.9006 21.0335 23.8798 20.297 28.1093 18.0517C32.3429 15.8063 35.5316 12.2094 37.0736 7.94389C37.9863 5.83795 40.2429 4.49006 42.7054 4.58653H47.2536C49.7161 4.49 51.9765 5.83438 52.8893 7.94389C54.4274 12.2094 57.6161 15.8099 61.8458 18.0553C66.0793 20.3007 71.0586 21.0372 75.8436 20.1219C78.2866 19.8001 80.6831 20.9264 81.8288 22.9393L84.334 26.883C85.5147 29.0104 85.1185 31.5883 83.3397 33.326C80.4189 36.619 78.8225 40.7414 78.8264 44.9925C78.8303 49.2436 80.4305 53.3626 83.3591 56.6481C85.138 58.3857 85.538 60.9672 84.3611 63.0946L84.358 63.0949Z" fill="black"/>
</svg>
