<svg width="82" height="82" viewBox="0 0 82 82" fill="none" xmlns="http://www.w3.org/2000/svg">
<path d="M44.5761 0.158964C22.0551 -1.81104 2.12915 14.908 0.159147 37.43C-1.81085 59.951 14.9081 79.877 37.4301 81.847C59.9511 83.818 79.8772 67.098 81.8472 44.576C83.8172 22.055 67.0981 2.12896 44.5761 0.158964ZM80.8411 37.469L80.7991 37.273L64.6232 40.748L54.6301 38.601L63.2861 33.165L79.6751 30.898L79.6292 30.567C80.2321 32.802 80.6341 35.111 80.8411 37.469ZM46.4371 39.501L46.1861 39.178C46.1731 39.143 46.1601 39.11 46.1471 39.075L46.1311 38.66L46.6111 38.961L46.4371 39.501ZM46.6231 40.556L46.9711 41.003L46.6231 41.451L46.4971 41.061C46.4981 41.018 46.5031 40.974 46.5021 40.93L46.6231 40.556ZM46.1461 42.938C46.1611 42.902 46.1721 42.867 46.1841 42.83L46.4381 42.505L46.6121 43.045L46.1321 43.347L46.1461 42.938ZM46.7701 43.536L47.0851 44.515L46.0801 44.731L46.1091 43.95L46.7701 43.536ZM47.0491 42.77L46.8091 42.027L47.2881 41.411L47.9201 42.224L47.0491 42.77ZM46.8091 39.979L47.0491 39.236L47.9201 39.783L47.2881 40.595L46.8091 39.979ZM46.7701 38.47L46.1091 38.055L46.0801 37.275L47.0861 37.491L46.7701 38.47ZM46.0601 36.759L46.0161 35.553L47.7891 35.308L47.2391 37.013L46.0601 36.759ZM46.0611 45.247L47.2411 44.993L47.7901 46.697L46.0171 46.452L46.0611 45.247ZM47.2071 43.261L48.2281 42.62L49.3281 44.033L47.5771 44.409L47.2071 43.261ZM47.6061 41.003L48.3461 40.051L49.8621 41.003L48.3451 41.955L47.6061 41.003ZM48.2291 39.386L47.2081 38.745L47.5791 37.597L49.3291 37.973L48.2291 39.386ZM47.7321 37.119L48.3411 35.232L51.8361 34.749L49.6691 37.535L47.7321 37.119ZM47.9601 34.78L45.9971 35.051L45.9241 33.071L49.0431 31.421L47.9601 34.78ZM45.9971 46.955L47.9611 47.226L49.0431 50.584L45.9241 48.934L45.9971 46.955ZM47.7321 44.888L49.6691 44.472L51.8351 47.257L48.3401 46.774L47.7321 44.888ZM48.6541 42.353L50.3331 41.299L53.3211 43.176L49.8711 43.917L48.6541 42.353ZM48.6541 39.654L49.8711 38.09L53.3211 38.831L50.3331 40.708L48.6541 39.654ZM50.2121 37.651L52.5461 34.65L62.0802 33.331L53.9291 38.449L50.2121 37.651ZM52.2761 34.183L48.5091 34.704L49.6771 31.086L58.1861 26.586L52.2761 34.183ZM49.2631 30.739L45.9031 32.516L45.7611 28.717L52.2161 21.578L49.2631 30.739ZM45.9031 49.49L49.2631 51.267L52.2161 60.426L45.7621 53.288L45.9031 49.49ZM48.5111 47.303L52.2761 47.824L58.1841 55.42L49.6781 50.921L48.5111 47.303ZM50.2121 44.355L53.9291 43.556L62.0791 48.674L52.5461 47.356L50.2121 44.355ZM50.8031 41.003L54.0231 38.982L63.4331 41.003L54.0231 43.024L50.8031 41.003ZM79.5812 30.406L64.3162 32.517L77.3571 24.329C78.2542 26.281 79.0052 28.31 79.5812 30.406ZM77.2352 24.067L77.1211 23.887L63.1101 32.684L52.9851 34.085L59.2621 26.016L73.8852 18.281L73.7871 18.097C75.1041 19.978 76.2551 21.977 77.2352 24.067ZM73.6161 17.858L60.0091 25.054L69.4602 12.904C70.9762 14.442 72.3652 16.098 73.6161 17.858ZM69.2532 12.691L69.0901 12.565L58.9331 25.624L49.8981 30.403L53.0361 20.673L64.1311 8.40396L63.9711 8.25796C65.8591 9.58796 67.6282 11.069 69.2532 12.691ZM63.7351 8.09596L53.4091 19.515L58.1381 4.85096C60.1031 5.78296 61.9701 6.87396 63.7351 8.09596ZM57.9861 4.77596L57.6691 4.67396L52.5911 20.42L45.7361 28L45.3571 17.786L51.5871 2.45996L51.3991 2.38396C53.6861 2.99696 55.8911 3.79296 57.9861 4.77596ZM38.9871 46.543L39.5101 47.122L38.6011 47.602L38.2121 46.65L38.9871 46.543ZM38.0191 46.172L37.8061 45.647L38.2111 45.734C38.2421 45.753 38.2741 45.772 38.3051 45.791L38.5801 46.095L38.0191 46.172ZM39.8571 47.505L40.6671 48.4L39.4651 49.728L38.7911 48.069L39.8571 47.505ZM39.5861 46.46L39.9771 46.405C40.0191 46.414 40.0631 46.417 40.1061 46.424L40.4681 46.615L39.9671 46.88L39.5861 46.46ZM40.3141 47.264L41.0031 46.899L41.6931 47.264L41.0031 48.026L40.3141 47.264ZM41.5381 46.615L41.9021 46.422C41.9391 46.417 41.9762 46.411 42.0141 46.403L42.4191 46.46L42.0391 46.88L41.5381 46.615ZM42.1491 47.505L43.2151 48.069L42.5401 49.727L41.3391 48.399L42.1491 47.505ZM42.4961 47.122L43.0181 46.544L43.7921 46.65L43.4041 47.603L42.4961 47.122ZM43.4261 46.094L43.6971 45.794C43.7301 45.775 43.7611 45.753 43.7951 45.734L44.2001 45.645L43.9861 46.17L43.4261 46.094ZM40.6101 45.485C38.1381 45.269 36.3031 43.083 36.5201 40.61C36.7361 38.138 38.9221 36.303 41.3951 36.519C43.8671 36.735 45.7021 38.922 45.4851 41.394C45.2701 43.867 43.0831 45.702 40.6101 45.485ZM43.0191 35.463L42.4961 34.884L43.4051 34.402L43.7941 35.356L43.0191 35.463ZM43.9871 35.834L44.2011 36.36L43.7951 36.273C43.7641 36.254 43.7321 36.234 43.6991 36.216L43.4251 35.913L43.9871 35.834ZM42.1491 34.502L41.3381 33.606L42.5401 32.277L43.2151 33.937L42.1491 34.502ZM42.4211 35.546L42.0311 35.6C41.9881 35.592 41.9431 35.59 41.9001 35.582L41.5381 35.39L42.0401 35.125L42.4211 35.546ZM41.6931 34.743L41.0031 35.107L40.3131 34.742L41.0031 33.979L41.6931 34.743ZM40.4681 35.391L40.1041 35.583C40.0662 35.59 40.0281 35.595 39.9901 35.602L39.5861 35.546L39.9681 35.125L40.4681 35.391ZM39.8571 34.501L38.7911 33.937L39.4661 32.278L40.6671 33.606L39.8571 34.501ZM39.5101 34.884L38.9871 35.463L38.2141 35.356L38.6031 34.403L39.5101 34.884ZM38.5811 35.912L38.3101 36.211C38.2761 36.231 38.2451 36.253 38.2101 36.273L37.8061 36.36L38.0201 35.834L38.5811 35.912ZM44.4981 35.763L45.5191 35.622L45.5561 36.65L44.7921 36.486L44.4981 35.763ZM44.3041 35.286L43.8501 34.168L45.4331 33.33L45.5001 35.121L44.3041 35.286ZM43.6601 33.702L42.9141 31.866L45.2811 29.247L45.4121 32.775L43.6601 33.702ZM42.7051 31.352L41.2731 27.831L44.8981 18.914L45.2541 28.533L42.7051 31.352ZM42.3321 31.764L41.0021 33.234L39.6741 31.765L41.0031 28.495L42.3321 31.764ZM39.3011 31.352L36.7511 28.534L37.1081 18.916L40.7331 27.83L39.3011 31.352ZM39.0921 31.866L38.3461 33.702L36.5941 32.776L36.7251 29.249L39.0921 31.866ZM38.1561 34.168L37.7011 35.286L36.5071 35.121L36.5731 33.331L38.1561 34.168ZM37.5071 35.763L37.2131 36.487L36.4511 36.651L36.4891 35.622L37.5071 35.763ZM36.9851 37.047L36.8281 37.432C36.8041 37.461 36.7761 37.488 36.7521 37.518L36.4101 37.732L36.4311 37.165L36.9851 37.047ZM36.7571 44.49C36.7811 44.52 36.8061 44.55 36.8321 44.579L36.9851 44.959L36.4301 44.84L36.4091 44.273L36.7571 44.49ZM37.2131 45.519L37.5081 46.242L36.4871 46.384L36.4501 45.357L37.2131 45.519ZM37.7021 46.721L38.1561 47.839L36.5731 48.676L36.5061 46.887L37.7021 46.721ZM38.3461 48.304L39.0921 50.14L36.7251 52.758L36.5941 49.231L38.3461 48.304ZM39.3011 50.654L40.7331 54.175L37.1081 63.091L36.7521 53.473L39.3011 50.654ZM39.6741 50.242L41.0041 48.772L42.3321 50.242L41.0031 53.512L39.6741 50.242ZM42.7051 50.655L45.2551 53.473L44.8981 63.091L41.2731 54.175L42.7051 50.655ZM42.9141 50.14L43.6601 48.305L45.4121 49.232L45.2811 52.757L42.9141 50.14ZM43.8501 47.839L44.3051 46.721L45.4981 46.886L45.4331 48.675L43.8501 47.839ZM44.4991 46.242L44.7931 45.519L45.5561 45.354L45.5181 46.383L44.4991 46.242ZM45.0221 44.958L45.1781 44.572C45.2021 44.544 45.2301 44.517 45.2541 44.488L45.5961 44.273L45.5751 44.838L45.0221 44.958ZM45.2501 37.516C45.2251 37.485 45.1992 37.455 45.1741 37.426L45.0211 37.047L45.5761 37.166L45.5971 37.733L45.2501 37.516ZM51.1091 2.30496L45.3111 16.568L44.7401 1.18396C46.9261 1.38796 49.0511 1.76996 51.1091 2.30496ZM40.5031 1.01796V3.00296C40.5031 3.27896 40.7271 3.50296 41.0031 3.50296C41.2791 3.50296 41.5031 3.27896 41.5031 3.00296V1.01696C42.4921 1.02796 43.4871 1.06796 44.4891 1.15596L44.2391 1.16496L44.8521 17.696L41.0031 27.166L37.1541 17.699L37.7671 1.16496L37.5591 1.15796C38.5321 1.07396 39.5151 1.03196 40.5031 1.01796ZM37.2661 1.18396L36.6951 16.569L30.8931 2.29696C32.9611 1.75696 35.0921 1.38496 37.2661 1.18396ZM30.7081 2.34196L30.4191 2.45896L36.6491 17.786L36.2701 28.001L29.4151 20.419L24.3361 4.67296L24.1371 4.73696C26.2401 3.75696 28.4351 2.94796 30.7081 2.34196ZM35.8601 39.069C35.8451 39.105 35.8341 39.141 35.8221 39.176L35.5691 39.501L35.3941 38.961L35.8741 38.659L35.8601 39.069ZM35.8751 43.345L35.3951 43.044L35.5701 42.505L35.8211 42.829C35.8341 42.863 35.8471 42.896 35.8601 42.931L35.8751 43.345ZM35.5091 40.945C35.5081 40.988 35.5031 41.032 35.5041 41.075L35.3831 41.45L35.0351 41.003L35.3831 40.555L35.5091 40.945ZM35.1971 42.026L34.9571 42.769L34.0861 42.221L34.7181 41.409L35.1971 42.026ZM35.2371 43.535L35.8971 43.951L35.9261 44.73L34.9201 44.515L35.2371 43.535ZM35.8981 38.055L35.2371 38.47L34.9221 37.491L35.9271 37.275L35.8981 38.055ZM34.9571 39.236L35.1971 39.98L34.7181 40.596L34.0861 39.783L34.9571 39.236ZM33.7771 39.387L32.6771 37.973L34.4271 37.597L34.7981 38.745L33.7771 39.387ZM34.4001 41.003L33.6601 41.955L32.1441 41.003L33.6601 40.051L34.4001 41.003ZM33.7771 42.619L34.7981 43.261L34.4271 44.409L32.6771 44.033L33.7771 42.619ZM34.7671 44.993L35.9471 45.246L35.9911 46.452L34.2181 46.698L34.7671 44.993ZM35.9451 36.76L34.7661 37.013L34.2161 35.308L35.9891 35.553L35.9451 36.76ZM34.2741 37.119L32.3371 37.535L30.1701 34.749L33.6651 35.232L34.2741 37.119ZM33.3521 39.654L31.6731 40.707L28.6851 38.831L32.1341 38.09L33.3521 39.654ZM33.3521 42.352L32.1351 43.917L28.6841 43.175L31.6731 41.299L33.3521 42.352ZM32.3371 44.472L34.2751 44.888L33.6671 46.774L30.1721 47.258L32.3371 44.472ZM34.0461 47.227L36.0091 46.956L36.0821 48.936L32.9641 50.585L34.0461 47.227ZM36.0091 35.051L34.0461 34.78L32.9631 31.421L36.0821 33.071L36.0091 35.051ZM33.4951 34.704L29.7301 34.183L23.8201 26.585L32.3281 31.085L33.4951 34.704ZM31.7941 37.651L28.0781 38.449L19.9271 33.331L29.4591 34.649L31.7941 37.651ZM31.2031 41.003L27.9831 43.024L18.5731 41.003L27.9831 38.982L31.2031 41.003ZM28.0771 43.556L31.7941 44.355L29.4601 47.356L19.9261 48.675L28.0771 43.556ZM29.7301 47.823L33.4971 47.302L32.3291 50.919L23.8211 55.42L29.7301 47.823ZM32.7431 51.268L36.1021 49.491L36.2441 53.29L29.7891 60.428L32.7431 51.268ZM36.1031 32.515L32.7431 30.738L29.7891 21.578L36.2451 28.717L36.1031 32.515ZM23.8711 4.86096L28.5971 19.516L18.2671 8.09296C20.0391 6.86796 21.9151 5.79096 23.8711 4.86096ZM18.0241 8.26996L17.8751 8.40496L28.9711 20.674L32.1091 30.403L23.0731 25.624L12.9161 12.566L12.7641 12.684C14.3881 11.065 16.1491 9.58796 18.0241 8.26996ZM12.5411 12.899L21.9951 25.054L8.38615 17.856C9.64115 16.091 11.0271 14.43 12.5411 12.899ZM8.22015 18.093L8.12015 18.281L22.7431 26.016L29.0191 34.085L18.8951 32.685L4.88315 23.887L4.71715 24.151C5.70915 22.016 6.88815 19.995 8.22015 18.093ZM4.64215 24.325L17.6891 32.517L2.43715 30.408C3.01415 28.302 3.75015 26.269 4.64215 24.325ZM2.35915 30.697L2.33115 30.898L18.7191 33.165L27.3761 38.601L17.3831 40.747L1.20815 37.273L1.15515 37.517C1.36015 35.172 1.77515 32.897 2.35915 30.697ZM1.14015 37.769L16.1921 41.003L1.13815 44.237C0.969148 42.116 0.961147 39.957 1.14015 37.769ZM1.16515 44.538L1.20715 44.734L17.3831 41.258L27.3761 43.404L18.7201 48.841L2.33115 51.108L2.37615 51.436C1.77415 49.204 1.37215 46.896 1.16515 44.538ZM2.42615 51.601L17.6871 49.49L4.64915 57.677C3.75215 55.726 3.00215 53.697 2.42615 51.601ZM4.77015 57.938L4.88515 58.12L18.8941 49.323L29.0201 47.923L22.7451 55.991L8.12115 63.726L8.21815 63.909C6.90115 62.026 5.75015 60.029 4.77015 57.938ZM8.39115 64.149L21.9971 56.952L12.5471 69.102C11.0311 67.565 9.64115 65.908 8.39115 64.149ZM12.7501 69.311L12.9171 69.441L23.0731 56.382L32.1081 51.604L28.9711 61.331L17.8751 73.601L18.0331 73.746C16.1441 72.416 14.3751 70.935 12.7501 69.311ZM18.2711 73.909L28.5981 62.49L23.8691 77.155C21.9031 76.224 20.0351 75.132 18.2711 73.909ZM24.0191 77.23L24.3371 77.333L29.4151 61.587L36.2701 54.006L36.6491 64.222L30.4191 79.548L30.6071 79.624C28.3191 79.009 26.1141 78.212 24.0191 77.23ZM30.8971 79.701L36.6951 65.438L37.2661 80.822C35.0801 80.618 32.9551 80.236 30.8971 79.701ZM37.5171 80.851L37.7671 80.841L37.1541 64.311L41.0041 54.841L44.8541 64.309L44.2411 80.842L44.4431 80.849C42.1741 81.043 39.8611 81.056 37.5171 80.851ZM44.7411 80.822L45.3111 65.438L51.1131 79.708C49.0451 80.249 46.9141 80.621 44.7411 80.822ZM51.3001 79.663L51.5871 79.546L45.3581 64.221L45.7361 54.006L52.5911 61.585L57.6701 77.333L57.8631 77.27C55.7621 78.249 53.5701 79.059 51.3001 79.663ZM58.1352 77.145L53.4081 62.49L63.7391 73.912C61.9671 75.137 60.0912 76.215 58.1352 77.145ZM63.9891 73.731L64.1321 73.601L53.0351 61.33L49.8971 51.603L58.9321 56.381L69.0882 69.44L69.2411 69.323C67.6191 70.939 65.8621 72.413 63.9891 73.731ZM69.4641 69.108L60.0102 56.951L73.6201 64.15C72.3652 65.915 70.9781 67.576 69.4641 69.108ZM73.7871 63.911L73.8862 63.724L59.2621 55.989L52.9871 47.921L63.1121 49.323L77.1222 58.119L77.2912 57.85C76.2982 59.986 75.1191 62.009 73.7871 63.911ZM77.3642 57.681L64.3182 49.49L79.5682 51.599C78.9922 53.705 78.2561 55.737 77.3642 57.681ZM79.6471 51.309L79.6751 51.109L63.2861 48.841L54.6301 43.406L64.6222 41.259L80.7981 44.735L80.8512 44.49C80.6461 46.835 80.2311 49.109 79.6471 51.309ZM80.8661 44.237L65.8141 41.003L80.8681 37.769C81.0371 39.889 81.0452 42.05 80.8661 44.237Z" fill="black"/>
</svg>
