<svg width="90" height="90" viewBox="0 0 90 90" fill="none" xmlns="http://www.w3.org/2000/svg">
<path d="M48.9249 0.173944C24.1659 -1.99206 2.33994 16.3219 0.173944 41.0809C-1.99206 65.8389 16.3219 87.6659 41.0809 89.8319C65.8389 91.9979 87.6659 73.6829 89.8319 48.9249C91.9979 24.1669 73.6829 2.33994 48.9249 0.173944ZM41.3429 86.8429C18.2719 84.8239 1.14494 64.4129 3.16294 41.3429C5.18194 18.2729 25.5929 1.14494 48.6629 3.16294C71.7339 5.18194 88.8609 25.5929 86.8429 48.6629C84.8239 71.7339 64.4129 88.8609 41.3429 86.8429Z" fill="black"/>
<path d="M48.5761 4.15896C26.0551 2.18896 6.12915 18.908 4.15915 41.43C2.18915 63.951 18.9081 83.877 41.4301 85.847C63.9511 87.818 83.8772 71.098 85.8472 48.576C87.8172 26.055 71.0981 6.12896 48.5761 4.15896ZM84.8411 41.469L84.7991 41.273L68.6232 44.748L58.6301 42.601L67.2861 37.165L83.6751 34.898L83.6292 34.567C84.2321 36.802 84.6341 39.111 84.8411 41.469ZM50.4371 43.501L50.1861 43.178C50.1731 43.143 50.1601 43.11 50.1471 43.075L50.1311 42.66L50.6111 42.961L50.4371 43.501ZM50.6231 44.556L50.9711 45.003L50.6231 45.451L50.4971 45.061C50.4981 45.018 50.5031 44.974 50.5021 44.93L50.6231 44.556ZM50.1461 46.938C50.1611 46.902 50.1721 46.867 50.1841 46.83L50.4381 46.505L50.6121 47.045L50.1321 47.347L50.1461 46.938ZM50.7701 47.536L51.0851 48.515L50.0801 48.731L50.1091 47.95L50.7701 47.536ZM51.0491 46.77L50.8091 46.027L51.2881 45.411L51.9201 46.224L51.0491 46.77ZM50.8091 43.979L51.0491 43.236L51.9201 43.783L51.2881 44.595L50.8091 43.979ZM50.7701 42.47L50.1091 42.055L50.0801 41.275L51.0861 41.491L50.7701 42.47ZM50.0601 40.759L50.0161 39.553L51.7891 39.308L51.2391 41.013L50.0601 40.759ZM50.0611 49.247L51.2411 48.993L51.7901 50.697L50.0171 50.452L50.0611 49.247ZM51.2071 47.261L52.2281 46.62L53.3281 48.033L51.5771 48.409L51.2071 47.261ZM51.6061 45.003L52.3461 44.051L53.8621 45.003L52.3451 45.955L51.6061 45.003ZM52.2291 43.386L51.2081 42.745L51.5791 41.597L53.3291 41.973L52.2291 43.386ZM51.7321 41.119L52.3411 39.232L55.8361 38.749L53.6691 41.535L51.7321 41.119ZM51.9601 38.78L49.9971 39.051L49.9241 37.071L53.0431 35.421L51.9601 38.78ZM49.9971 50.955L51.9611 51.226L53.0431 54.584L49.9241 52.934L49.9971 50.955ZM51.7321 48.888L53.6691 48.472L55.8351 51.257L52.3401 50.774L51.7321 48.888ZM52.6541 46.353L54.3331 45.299L57.3211 47.176L53.8711 47.917L52.6541 46.353ZM52.6541 43.654L53.8711 42.09L57.3211 42.831L54.3331 44.708L52.6541 43.654ZM54.2121 41.651L56.5461 38.65L66.0802 37.331L57.9291 42.449L54.2121 41.651ZM56.2761 38.183L52.5091 38.704L53.6771 35.086L62.1861 30.586L56.2761 38.183ZM53.2631 34.739L49.9031 36.516L49.7611 32.717L56.2161 25.578L53.2631 34.739ZM49.9031 53.49L53.2631 55.267L56.2161 64.426L49.7621 57.288L49.9031 53.49ZM52.5111 51.303L56.2761 51.824L62.1841 59.42L53.6781 54.921L52.5111 51.303ZM54.2121 48.355L57.9291 47.556L66.0791 52.674L56.5461 51.356L54.2121 48.355ZM54.8031 45.003L58.0231 42.982L67.4331 45.003L58.0231 47.024L54.8031 45.003ZM83.5812 34.406L68.3162 36.517L81.3571 28.329C82.2542 30.281 83.0052 32.31 83.5812 34.406ZM81.2352 28.067L81.1211 27.887L67.1101 36.684L56.9851 38.085L63.2621 30.016L77.8852 22.281L77.7871 22.097C79.1041 23.978 80.2551 25.977 81.2352 28.067ZM77.6161 21.858L64.0091 29.054L73.4602 16.904C74.9762 18.442 76.3652 20.098 77.6161 21.858ZM73.2532 16.691L73.0901 16.565L62.9331 29.624L53.8981 34.403L57.0361 24.673L68.1311 12.404L67.9711 12.258C69.8591 13.588 71.6282 15.069 73.2532 16.691ZM67.7351 12.096L57.4091 23.515L62.1381 8.85096C64.1031 9.78296 65.9701 10.874 67.7351 12.096ZM61.9861 8.77596L61.6691 8.67396L56.5911 24.42L49.7361 32L49.3571 21.786L55.5871 6.45996L55.3991 6.38396C57.6861 6.99696 59.8911 7.79296 61.9861 8.77596ZM42.9871 50.543L43.5101 51.122L42.6011 51.602L42.2121 50.65L42.9871 50.543ZM42.0191 50.172L41.8061 49.647L42.2111 49.734C42.2421 49.753 42.2741 49.772 42.3051 49.791L42.5801 50.095L42.0191 50.172ZM43.8571 51.505L44.6671 52.4L43.4651 53.728L42.7911 52.069L43.8571 51.505ZM43.5861 50.46L43.9771 50.405C44.0191 50.414 44.0631 50.417 44.1061 50.424L44.4681 50.615L43.9671 50.88L43.5861 50.46ZM44.3141 51.264L45.0031 50.899L45.6931 51.264L45.0031 52.026L44.3141 51.264ZM45.5381 50.615L45.9021 50.422C45.9391 50.417 45.9762 50.411 46.0141 50.403L46.4191 50.46L46.0391 50.88L45.5381 50.615ZM46.1491 51.505L47.2151 52.069L46.5401 53.727L45.3391 52.399L46.1491 51.505ZM46.4961 51.122L47.0181 50.544L47.7921 50.65L47.4041 51.603L46.4961 51.122ZM47.4261 50.094L47.6971 49.794C47.7301 49.775 47.7611 49.753 47.7951 49.734L48.2001 49.645L47.9861 50.17L47.4261 50.094ZM44.6101 49.485C42.1381 49.269 40.3031 47.083 40.5201 44.61C40.7361 42.138 42.9221 40.303 45.3951 40.519C47.8671 40.735 49.7021 42.922 49.4851 45.394C49.2701 47.867 47.0831 49.702 44.6101 49.485ZM47.0191 39.463L46.4961 38.884L47.4051 38.402L47.7941 39.356L47.0191 39.463ZM47.9871 39.834L48.2011 40.36L47.7951 40.273C47.7641 40.254 47.7321 40.234 47.6991 40.216L47.4251 39.913L47.9871 39.834ZM46.1491 38.502L45.3381 37.606L46.5401 36.277L47.2151 37.937L46.1491 38.502ZM46.4211 39.546L46.0311 39.6C45.9881 39.592 45.9431 39.59 45.9001 39.582L45.5381 39.39L46.0401 39.125L46.4211 39.546ZM45.6931 38.743L45.0031 39.107L44.3131 38.742L45.0031 37.979L45.6931 38.743ZM44.4681 39.391L44.1041 39.583C44.0662 39.59 44.0281 39.595 43.9901 39.602L43.5861 39.546L43.9681 39.125L44.4681 39.391ZM43.8571 38.501L42.7911 37.937L43.4661 36.278L44.6671 37.606L43.8571 38.501ZM43.5101 38.884L42.9871 39.463L42.2141 39.356L42.6031 38.403L43.5101 38.884ZM42.5811 39.912L42.3101 40.211C42.2761 40.231 42.2451 40.253 42.2101 40.273L41.8061 40.36L42.0201 39.834L42.5811 39.912ZM48.4981 39.763L49.5191 39.622L49.5561 40.65L48.7921 40.486L48.4981 39.763ZM48.3041 39.286L47.8501 38.168L49.4331 37.33L49.5001 39.121L48.3041 39.286ZM47.6601 37.702L46.9141 35.866L49.2811 33.247L49.4121 36.775L47.6601 37.702ZM46.7051 35.352L45.2731 31.831L48.8981 22.914L49.2541 32.533L46.7051 35.352ZM46.3321 35.764L45.0021 37.234L43.6741 35.765L45.0031 32.495L46.3321 35.764ZM43.3011 35.352L40.7511 32.534L41.1081 22.916L44.7331 31.83L43.3011 35.352ZM43.0921 35.866L42.3461 37.702L40.5941 36.776L40.7251 33.249L43.0921 35.866ZM42.1561 38.168L41.7011 39.286L40.5071 39.121L40.5731 37.331L42.1561 38.168ZM41.5071 39.763L41.2131 40.487L40.4511 40.651L40.4891 39.622L41.5071 39.763ZM40.9851 41.047L40.8281 41.432C40.8041 41.461 40.7761 41.488 40.7521 41.518L40.4101 41.732L40.4311 41.165L40.9851 41.047ZM40.7571 48.49C40.7811 48.52 40.8061 48.55 40.8321 48.579L40.9851 48.959L40.4301 48.84L40.4091 48.273L40.7571 48.49ZM41.2131 49.519L41.5081 50.242L40.4871 50.384L40.4501 49.357L41.2131 49.519ZM41.7021 50.721L42.1561 51.839L40.5731 52.676L40.5061 50.887L41.7021 50.721ZM42.3461 52.304L43.0921 54.14L40.7251 56.758L40.5941 53.231L42.3461 52.304ZM43.3011 54.654L44.7331 58.175L41.1081 67.091L40.7521 57.473L43.3011 54.654ZM43.6741 54.242L45.0041 52.772L46.3321 54.242L45.0031 57.512L43.6741 54.242ZM46.7051 54.655L49.2551 57.473L48.8981 67.091L45.2731 58.175L46.7051 54.655ZM46.9141 54.14L47.6601 52.305L49.4121 53.232L49.2811 56.757L46.9141 54.14ZM47.8501 51.839L48.3051 50.721L49.4981 50.886L49.4331 52.675L47.8501 51.839ZM48.4991 50.242L48.7931 49.519L49.5561 49.354L49.5181 50.383L48.4991 50.242ZM49.0221 48.958L49.1781 48.572C49.2021 48.544 49.2301 48.517 49.2541 48.488L49.5961 48.273L49.5751 48.838L49.0221 48.958ZM49.2501 41.516C49.2251 41.485 49.1992 41.455 49.1741 41.426L49.0211 41.047L49.5761 41.166L49.5971 41.733L49.2501 41.516ZM55.1091 6.30496L49.3111 20.568L48.7401 5.18396C50.9261 5.38796 53.0511 5.76996 55.1091 6.30496ZM44.5031 5.01796V7.00296C44.5031 7.27896 44.7271 7.50296 45.0031 7.50296C45.2791 7.50296 45.5031 7.27896 45.5031 7.00296V5.01696C46.4921 5.02796 47.4871 5.06796 48.4891 5.15596L48.2391 5.16496L48.8521 21.696L45.0031 31.166L41.1541 21.699L41.7671 5.16496L41.5591 5.15796C42.5321 5.07396 43.5151 5.03196 44.5031 5.01796ZM41.2661 5.18396L40.6951 20.569L34.8931 6.29696C36.9611 5.75696 39.0921 5.38496 41.2661 5.18396ZM34.7081 6.34196L34.4191 6.45896L40.6491 21.786L40.2701 32.001L33.4151 24.419L28.3361 8.67296L28.1371 8.73696C30.2401 7.75696 32.4351 6.94796 34.7081 6.34196ZM39.8601 43.069C39.8451 43.105 39.8341 43.141 39.8221 43.176L39.5691 43.501L39.3941 42.961L39.8741 42.659L39.8601 43.069ZM39.8751 47.345L39.3951 47.044L39.5701 46.505L39.8211 46.829C39.8341 46.863 39.8471 46.896 39.8601 46.931L39.8751 47.345ZM39.5091 44.945C39.5081 44.988 39.5031 45.032 39.5041 45.075L39.3831 45.45L39.0351 45.003L39.3831 44.555L39.5091 44.945ZM39.1971 46.026L38.9571 46.769L38.0861 46.221L38.7181 45.409L39.1971 46.026ZM39.2371 47.535L39.8971 47.951L39.9261 48.73L38.9201 48.515L39.2371 47.535ZM39.8981 42.055L39.2371 42.47L38.9221 41.491L39.9271 41.275L39.8981 42.055ZM38.9571 43.236L39.1971 43.98L38.7181 44.596L38.0861 43.783L38.9571 43.236ZM37.7771 43.387L36.6771 41.973L38.4271 41.597L38.7981 42.745L37.7771 43.387ZM38.4001 45.003L37.6601 45.955L36.1441 45.003L37.6601 44.051L38.4001 45.003ZM37.7771 46.619L38.7981 47.261L38.4271 48.409L36.6771 48.033L37.7771 46.619ZM38.7671 48.993L39.9471 49.246L39.9911 50.452L38.2181 50.698L38.7671 48.993ZM39.9451 40.76L38.7661 41.013L38.2161 39.308L39.9891 39.553L39.9451 40.76ZM38.2741 41.119L36.3371 41.535L34.1701 38.749L37.6651 39.232L38.2741 41.119ZM37.3521 43.654L35.6731 44.707L32.6851 42.831L36.1341 42.09L37.3521 43.654ZM37.3521 46.352L36.1351 47.917L32.6841 47.175L35.6731 45.299L37.3521 46.352ZM36.3371 48.472L38.2751 48.888L37.6671 50.774L34.1721 51.258L36.3371 48.472ZM38.0461 51.227L40.0091 50.956L40.0821 52.936L36.9641 54.585L38.0461 51.227ZM40.0091 39.051L38.0461 38.78L36.9631 35.421L40.0821 37.071L40.0091 39.051ZM37.4951 38.704L33.7301 38.183L27.8201 30.585L36.3281 35.085L37.4951 38.704ZM35.7941 41.651L32.0781 42.449L23.9271 37.331L33.4591 38.649L35.7941 41.651ZM35.2031 45.003L31.9831 47.024L22.5731 45.003L31.9831 42.982L35.2031 45.003ZM32.0771 47.556L35.7941 48.355L33.4601 51.356L23.9261 52.675L32.0771 47.556ZM33.7301 51.823L37.4971 51.302L36.3291 54.919L27.8211 59.42L33.7301 51.823ZM36.7431 55.268L40.1021 53.491L40.2441 57.29L33.7891 64.428L36.7431 55.268ZM40.1031 36.515L36.7431 34.738L33.7891 25.578L40.2451 32.717L40.1031 36.515ZM27.8711 8.86096L32.5971 23.516L22.2671 12.093C24.0391 10.868 25.9151 9.79096 27.8711 8.86096ZM22.0241 12.27L21.8751 12.405L32.9711 24.674L36.1091 34.403L27.0731 29.624L16.9161 16.566L16.7641 16.684C18.3881 15.065 20.1491 13.588 22.0241 12.27ZM16.5411 16.899L25.9951 29.054L12.3861 21.856C13.6411 20.091 15.0271 18.43 16.5411 16.899ZM12.2201 22.093L12.1201 22.281L26.7431 30.016L33.0191 38.085L22.8951 36.685L8.88315 27.887L8.71715 28.151C9.70915 26.016 10.8881 23.995 12.2201 22.093ZM8.64215 28.325L21.6891 36.517L6.43715 34.408C7.01415 32.302 7.75015 30.269 8.64215 28.325ZM6.35915 34.697L6.33115 34.898L22.7191 37.165L31.3761 42.601L21.3831 44.747L5.20815 41.273L5.15515 41.517C5.36015 39.172 5.77515 36.897 6.35915 34.697ZM5.14015 41.769L20.1921 45.003L5.13815 48.237C4.96915 46.116 4.96115 43.957 5.14015 41.769ZM5.16515 48.538L5.20715 48.734L21.3831 45.258L31.3761 47.404L22.7201 52.841L6.33115 55.108L6.37615 55.436C5.77415 53.204 5.37215 50.896 5.16515 48.538ZM6.42615 55.601L21.6871 53.49L8.64915 61.677C7.75215 59.726 7.00215 57.697 6.42615 55.601ZM8.77015 61.938L8.88515 62.12L22.8941 53.323L33.0201 51.923L26.7451 59.991L12.1211 67.726L12.2181 67.909C10.9011 66.026 9.75015 64.029 8.77015 61.938ZM12.3911 68.149L25.9971 60.952L16.5471 73.102C15.0311 71.565 13.6411 69.908 12.3911 68.149ZM16.7501 73.311L16.9171 73.441L27.0731 60.382L36.1081 55.604L32.9711 65.331L21.8751 77.601L22.0331 77.746C20.1441 76.416 18.3751 74.935 16.7501 73.311ZM22.2711 77.909L32.5981 66.49L27.8691 81.155C25.9031 80.224 24.0351 79.132 22.2711 77.909ZM28.0191 81.23L28.3371 81.333L33.4151 65.587L40.2701 58.006L40.6491 68.222L34.4191 83.548L34.6071 83.624C32.3191 83.009 30.1141 82.212 28.0191 81.23ZM34.8971 83.701L40.6951 69.438L41.2661 84.822C39.0801 84.618 36.9551 84.236 34.8971 83.701ZM41.5171 84.851L41.7671 84.841L41.1541 68.311L45.0041 58.841L48.8541 68.309L48.2411 84.842L48.4431 84.849C46.1741 85.043 43.8611 85.056 41.5171 84.851ZM48.7411 84.822L49.3111 69.438L55.1131 83.708C53.0451 84.249 50.9141 84.621 48.7411 84.822ZM55.3001 83.663L55.5871 83.546L49.3581 68.221L49.7361 58.006L56.5911 65.585L61.6701 81.333L61.8631 81.27C59.7621 82.249 57.5701 83.059 55.3001 83.663ZM62.1352 81.145L57.4081 66.49L67.7391 77.912C65.9671 79.137 64.0912 80.215 62.1352 81.145ZM67.9891 77.731L68.1321 77.601L57.0351 65.33L53.8971 55.603L62.9321 60.381L73.0882 73.44L73.2411 73.323C71.6191 74.939 69.8621 76.413 67.9891 77.731ZM73.4641 73.108L64.0102 60.951L77.6201 68.15C76.3652 69.915 74.9781 71.576 73.4641 73.108ZM77.7871 67.911L77.8862 67.724L63.2621 59.989L56.9871 51.921L67.1121 53.323L81.1222 62.119L81.2912 61.85C80.2982 63.986 79.1191 66.009 77.7871 67.911ZM81.3642 61.681L68.3182 53.49L83.5682 55.599C82.9922 57.705 82.2561 59.737 81.3642 61.681ZM83.6471 55.309L83.6751 55.109L67.2861 52.841L58.6301 47.406L68.6222 45.259L84.7981 48.735L84.8512 48.49C84.6461 50.835 84.2311 53.109 83.6471 55.309ZM84.8661 48.237L69.8141 45.003L84.8681 41.769C85.0371 43.889 85.0452 46.05 84.8661 48.237Z" fill="black"/>
</svg>
